<?xml version="1.0" encoding="UTF-8"?>
<svg xmlns="http://www.w3.org/2000/svg" xmlns:xlink="http://www.w3.org/1999/xlink" width="32px" height="32px" viewBox="0 0 32 32" version="1.1">
<g id="surface1">
<path style=" stroke:none;fill-rule:nonzero;fill:rgb(99.215686%,93.725491%,36.470589%);fill-opacity:1;" d="M 15.75 6.949219 C 15.976562 7.140625 16.171875 7.347656 16.335938 7.589844 L 16.363281 7.625 C 16.660156 8.066406 16.863281 8.589844 16.902344 9.121094 C 16.9375 9.734375 16.847656 10.335938 16.574219 10.890625 C 16.492188 11.054688 16.402344 11.210938 16.296875 11.363281 C 16.25 11.4375 16.25 11.4375 16.226562 11.523438 L 16.226562 11.730469 C 16.222656 11.792969 16.222656 11.855469 16.222656 11.917969 C 16.222656 11.964844 16.222656 12.007812 16.222656 12.050781 C 16.222656 12.164062 16.222656 12.28125 16.21875 12.394531 C 16.21875 12.511719 16.21875 12.628906 16.21875 12.75 C 16.214844 12.980469 16.214844 13.210938 16.214844 13.441406 L 16.242188 13.386719 L 16.28125 13.320312 L 16.300781 13.285156 C 16.347656 13.203125 16.398438 13.125 16.457031 13.046875 L 16.484375 13.011719 C 16.574219 12.898438 16.667969 12.796875 16.765625 12.691406 L 16.800781 12.65625 C 16.941406 12.503906 17.113281 12.382812 17.28125 12.261719 L 17.3125 12.242188 C 17.363281 12.207031 17.410156 12.171875 17.464844 12.140625 C 17.597656 12.058594 17.664062 11.976562 17.742188 11.839844 C 17.777344 11.78125 17.8125 11.726562 17.847656 11.667969 L 17.878906 11.625 C 18.015625 11.40625 18.183594 11.21875 18.363281 11.039062 L 18.40625 11 C 18.769531 10.652344 19.25 10.449219 19.734375 10.328125 C 19.804688 10.3125 19.875 10.300781 19.945312 10.292969 L 19.988281 10.289062 C 20.128906 10.273438 20.273438 10.273438 20.417969 10.273438 L 20.457031 10.273438 C 21.011719 10.273438 21.585938 10.386719 22.082031 10.644531 L 22.117188 10.667969 L 22.132812 10.703125 C 21.929688 11.160156 21.484375 11.609375 21.085938 11.90625 C 21.050781 11.929688 21.015625 11.957031 20.976562 11.980469 L 20.945312 12.007812 C 20.515625 12.296875 20 12.507812 19.484375 12.550781 C 18.964844 12.589844 18.382812 12.578125 17.890625 12.371094 C 17.847656 12.351562 17.847656 12.351562 17.785156 12.355469 C 17.601562 12.386719 17.4375 12.507812 17.296875 12.621094 C 17.25 12.660156 17.207031 12.703125 17.160156 12.742188 C 17.125 12.777344 17.085938 12.8125 17.046875 12.84375 C 16.921875 12.957031 16.8125 13.074219 16.710938 13.207031 L 16.679688 13.253906 C 16.589844 13.375 16.511719 13.503906 16.445312 13.636719 C 16.425781 13.667969 16.410156 13.703125 16.394531 13.734375 C 16.15625 14.195312 16.140625 14.738281 16.140625 15.246094 L 16.140625 15.339844 C 16.140625 15.402344 16.140625 15.46875 16.140625 15.53125 C 16.140625 15.613281 16.140625 15.695312 16.140625 15.777344 C 16.140625 15.84375 16.140625 15.90625 16.140625 15.96875 C 16.140625 16 16.140625 16.03125 16.140625 16.058594 C 16.140625 16.101562 16.140625 16.144531 16.140625 16.1875 L 16.140625 16.226562 C 16.140625 16.308594 16.140625 16.308594 16.160156 16.390625 C 16.191406 16.410156 16.191406 16.410156 16.230469 16.421875 L 16.273438 16.4375 L 16.324219 16.453125 L 16.421875 16.484375 C 16.4375 16.488281 16.453125 16.496094 16.46875 16.5 C 16.53125 16.519531 16.589844 16.542969 16.652344 16.566406 C 16.828125 16.628906 16.984375 16.65625 17.171875 16.640625 C 17.335938 16.609375 17.492188 16.550781 17.648438 16.5 C 17.785156 16.453125 17.914062 16.429688 18.0625 16.445312 C 18.160156 16.46875 18.234375 16.496094 18.3125 16.5625 C 18.359375 16.640625 18.390625 16.707031 18.398438 16.800781 C 18.386719 17.035156 18.21875 17.261719 18.09375 17.453125 C 18.070312 17.488281 18.042969 17.527344 18.019531 17.566406 C 17.921875 17.714844 17.828125 17.867188 17.742188 18.027344 L 17.792969 18.027344 C 17.855469 18.027344 17.917969 18.03125 17.980469 18.03125 C 18.007812 18.03125 18.03125 18.035156 18.058594 18.035156 C 18.097656 18.035156 18.136719 18.035156 18.175781 18.035156 L 18.246094 18.039062 C 18.308594 18.042969 18.359375 18.054688 18.417969 18.078125 C 18.453125 18.121094 18.453125 18.121094 18.472656 18.167969 C 18.46875 18.226562 18.46875 18.226562 18.453125 18.277344 C 18.417969 18.3125 18.417969 18.3125 18.386719 18.320312 C 18.335938 18.332031 18.285156 18.332031 18.230469 18.335938 L 18.164062 18.335938 L 18.09375 18.339844 L 18.023438 18.339844 C 17.964844 18.34375 17.90625 18.34375 17.847656 18.347656 L 17.886719 18.390625 C 17.964844 18.484375 18.046875 18.578125 18.125 18.675781 C 18.148438 18.707031 18.175781 18.742188 18.203125 18.773438 L 18.246094 18.824219 C 18.390625 18.996094 18.542969 19.152344 18.699219 19.308594 C 18.742188 19.351562 18.785156 19.394531 18.828125 19.4375 L 18.949219 19.558594 C 19.019531 19.628906 19.09375 19.695312 19.167969 19.757812 C 19.214844 19.800781 19.257812 19.839844 19.304688 19.882812 C 19.371094 19.945312 19.441406 20.007812 19.511719 20.0625 C 19.808594 20.304688 20.09375 20.570312 20.300781 20.890625 L 20.339844 20.949219 C 20.519531 21.226562 20.652344 21.535156 20.691406 21.867188 L 20.699219 21.917969 C 20.734375 22.265625 20.691406 22.621094 20.570312 22.949219 L 20.550781 23.007812 C 20.453125 23.261719 20.296875 23.472656 20.105469 23.664062 L 20.074219 23.699219 C 19.863281 23.925781 19.539062 24.089844 19.246094 24.183594 L 19.207031 24.199219 C 18.890625 24.292969 18.5625 24.292969 18.234375 24.292969 C 18.164062 24.292969 18.097656 24.292969 18.03125 24.292969 C 17.898438 24.292969 17.765625 24.292969 17.636719 24.292969 C 17.527344 24.292969 17.421875 24.292969 17.3125 24.292969 L 17.175781 24.292969 C 16.882812 24.292969 16.59375 24.292969 16.300781 24.292969 C 16.054688 24.292969 15.804688 24.292969 15.554688 24.292969 C 15.234375 24.292969 14.914062 24.292969 14.59375 24.292969 L 14.546875 24.292969 C 14.4375 24.292969 14.332031 24.292969 14.226562 24.292969 C 14.09375 24.292969 13.964844 24.292969 13.835938 24.292969 C 13.769531 24.292969 13.703125 24.292969 13.636719 24.292969 C 13.316406 24.292969 13.011719 24.289062 12.707031 24.183594 L 12.667969 24.167969 C 12.316406 24.042969 12.015625 23.8125 11.773438 23.535156 C 11.539062 23.242188 11.410156 22.90625 11.351562 22.535156 C 11.335938 22.433594 11.339844 22.335938 11.339844 22.234375 C 11.335938 22.195312 11.335938 22.160156 11.335938 22.121094 C 11.332031 21.746094 11.445312 21.378906 11.625 21.050781 C 11.808594 20.742188 12.050781 20.480469 12.304688 20.226562 C 12.332031 20.199219 12.355469 20.175781 12.382812 20.148438 C 12.46875 20.0625 12.554688 19.980469 12.648438 19.902344 C 12.683594 19.871094 12.714844 19.835938 12.746094 19.804688 C 12.789062 19.761719 12.832031 19.722656 12.878906 19.683594 C 12.984375 19.589844 13.082031 19.492188 13.179688 19.390625 L 13.242188 19.328125 C 13.285156 19.285156 13.332031 19.242188 13.375 19.195312 C 13.429688 19.140625 13.484375 19.085938 13.542969 19.03125 C 13.585938 18.988281 13.628906 18.941406 13.671875 18.898438 C 13.691406 18.878906 13.710938 18.859375 13.734375 18.839844 C 13.832031 18.738281 13.929688 18.640625 14.019531 18.535156 C 14.054688 18.496094 14.089844 18.460938 14.125 18.425781 C 14.140625 18.410156 14.152344 18.398438 14.167969 18.382812 C 14.195312 18.355469 14.226562 18.328125 14.253906 18.300781 L 14.332031 18.222656 C 14.375 18.175781 14.375 18.175781 14.398438 18.117188 C 14.378906 18.0625 14.378906 18.0625 14.339844 18.011719 C 14.324219 17.988281 14.3125 17.96875 14.300781 17.949219 L 14.277344 17.917969 C 14.222656 17.828125 14.175781 17.734375 14.125 17.640625 L 14.105469 17.609375 C 13.800781 17.039062 13.800781 17.039062 13.804688 16.753906 C 13.8125 16.695312 13.820312 16.660156 13.851562 16.609375 C 13.894531 16.550781 13.941406 16.515625 14.007812 16.480469 C 14.105469 16.445312 14.191406 16.433594 14.292969 16.445312 C 14.410156 16.472656 14.519531 16.511719 14.628906 16.5625 C 14.777344 16.625 14.929688 16.664062 15.09375 16.65625 C 15.304688 16.632812 15.5 16.539062 15.695312 16.453125 L 15.738281 16.4375 L 15.773438 16.421875 C 15.804688 16.410156 15.804688 16.410156 15.839844 16.410156 C 15.839844 16.242188 15.835938 16.078125 15.835938 15.914062 C 15.835938 15.835938 15.835938 15.761719 15.832031 15.683594 C 15.832031 15.609375 15.832031 15.535156 15.832031 15.460938 C 15.832031 15.433594 15.832031 15.40625 15.832031 15.378906 C 15.828125 15.105469 15.796875 14.839844 15.664062 14.601562 C 15.617188 14.523438 15.570312 14.453125 15.519531 14.382812 L 15.488281 14.335938 C 15.296875 14.085938 15.0625 13.871094 14.789062 13.710938 C 14.769531 13.695312 14.746094 13.683594 14.722656 13.667969 C 14.691406 13.640625 14.691406 13.640625 14.632812 13.617188 C 14.574219 13.613281 14.523438 13.625 14.472656 13.636719 L 14.425781 13.644531 C 14.359375 13.660156 14.296875 13.675781 14.234375 13.691406 C 14.011719 13.742188 13.792969 13.765625 13.566406 13.765625 L 13.53125 13.765625 C 12.980469 13.761719 12.511719 13.632812 12.03125 13.363281 C 11.824219 13.242188 11.640625 13.085938 11.464844 12.925781 L 11.425781 12.886719 C 11.121094 12.59375 10.914062 12.226562 10.714844 11.859375 C 10.6875 11.808594 10.65625 11.757812 10.628906 11.707031 L 10.605469 11.664062 C 10.589844 11.636719 10.574219 11.609375 10.558594 11.582031 C 10.523438 11.519531 10.507812 11.488281 10.507812 11.414062 C 10.921875 11.199219 11.429688 11.148438 11.894531 11.164062 C 12.46875 11.195312 13.035156 11.351562 13.523438 11.664062 C 13.691406 11.773438 13.84375 11.902344 13.992188 12.035156 L 14.03125 12.070312 C 14.210938 12.242188 14.355469 12.457031 14.488281 12.664062 C 14.503906 12.6875 14.519531 12.714844 14.535156 12.738281 C 14.648438 12.917969 14.75 13.128906 14.792969 13.335938 C 14.796875 13.347656 14.804688 13.359375 14.808594 13.367188 C 14.847656 13.386719 14.847656 13.386719 14.898438 13.40625 C 15.296875 13.65625 15.617188 13.972656 15.875 14.363281 C 15.890625 14.191406 15.894531 14.023438 15.894531 13.851562 L 15.894531 13.78125 C 15.894531 13.71875 15.894531 13.65625 15.894531 13.59375 L 15.894531 13.476562 C 15.898438 13.339844 15.898438 13.203125 15.898438 13.066406 C 15.898438 12.941406 15.898438 12.8125 15.898438 12.6875 C 15.898438 12.578125 15.898438 12.46875 15.898438 12.355469 C 15.898438 12.292969 15.898438 12.226562 15.898438 12.160156 C 15.898438 12.089844 15.898438 12.015625 15.898438 11.945312 C 15.898438 11.921875 15.898438 11.902344 15.898438 11.878906 C 15.898438 11.777344 15.894531 11.6875 15.859375 11.589844 C 15.820312 11.546875 15.820312 11.546875 15.769531 11.503906 C 15.644531 11.386719 15.539062 11.257812 15.433594 11.121094 C 15.417969 11.097656 15.398438 11.078125 15.382812 11.054688 C 15.296875 10.945312 15.230469 10.824219 15.164062 10.703125 L 15.132812 10.640625 C 14.914062 10.222656 14.796875 9.726562 14.804688 9.253906 C 14.839844 8.617188 15.015625 7.992188 15.355469 7.453125 C 15.472656 7.277344 15.597656 7.097656 15.75 6.949219 M 15.769531 7.429688 C 15.742188 7.464844 15.71875 7.5 15.695312 7.535156 L 15.675781 7.570312 C 15.355469 8.082031 15.160156 8.660156 15.140625 9.265625 C 15.132812 9.753906 15.269531 10.261719 15.507812 10.6875 C 15.59375 10.839844 15.695312 10.976562 15.804688 11.109375 L 15.84375 11.160156 C 15.882812 11.210938 15.882812 11.210938 15.929688 11.253906 L 15.980469 11.253906 C 16.015625 11.207031 16.015625 11.207031 16.050781 11.148438 L 16.070312 11.117188 C 16.082031 11.09375 16.09375 11.074219 16.105469 11.050781 C 16.121094 11.027344 16.136719 11.003906 16.152344 10.976562 C 16.238281 10.84375 16.296875 10.703125 16.355469 10.558594 L 16.371094 10.519531 C 16.558594 10.050781 16.617188 9.539062 16.5625 9.039062 C 16.484375 8.496094 16.253906 8.023438 15.929688 7.589844 L 15.894531 7.546875 L 15.859375 7.5 L 15.832031 7.460938 L 15.804688 7.429688 Z M 18.933594 10.96875 C 18.832031 11.035156 18.738281 11.105469 18.648438 11.183594 L 18.617188 11.207031 C 18.335938 11.445312 18.125 11.746094 17.957031 12.070312 C 18.289062 12.261719 18.769531 12.292969 19.148438 12.292969 C 19.609375 12.28125 20.058594 12.171875 20.464844 11.945312 C 20.496094 11.929688 20.527344 11.914062 20.558594 11.894531 C 21.023438 11.644531 21.402344 11.253906 21.707031 10.828125 C 21.652344 10.78125 21.601562 10.757812 21.53125 10.738281 L 21.46875 10.722656 L 21.335938 10.683594 C 20.523438 10.460938 19.660156 10.519531 18.933594 10.96875 M 10.898438 11.589844 C 11.078125 11.976562 11.308594 12.324219 11.601562 12.628906 C 11.617188 12.648438 11.636719 12.667969 11.652344 12.6875 C 11.890625 12.9375 12.152344 13.113281 12.460938 13.261719 L 12.496094 13.277344 C 12.882812 13.457031 13.351562 13.523438 13.773438 13.488281 C 14.007812 13.460938 14.273438 13.421875 14.488281 13.316406 C 14.339844 12.957031 14.152344 12.636719 13.882812 12.355469 L 13.855469 12.324219 C 13.703125 12.160156 13.546875 12.027344 13.351562 11.910156 L 13.316406 11.890625 C 13.15625 11.792969 12.992188 11.710938 12.816406 11.644531 L 12.78125 11.628906 C 12.265625 11.433594 11.40625 11.3125 10.898438 11.589844 M 15.679688 16.769531 C 15.425781 16.875 15.195312 16.964844 14.914062 16.941406 C 14.757812 16.914062 14.617188 16.867188 14.472656 16.804688 C 14.375 16.761719 14.292969 16.734375 14.183594 16.738281 C 14.148438 16.746094 14.148438 16.746094 14.121094 16.765625 C 14.09375 16.800781 14.09375 16.800781 14.089844 16.863281 C 14.09375 16.964844 14.136719 17.050781 14.183594 17.140625 L 14.207031 17.195312 C 14.410156 17.648438 14.410156 17.648438 14.703125 18.042969 C 14.765625 18.0625 14.828125 18.066406 14.894531 18.066406 L 15.097656 18.066406 C 15.164062 18.066406 15.230469 18.066406 15.296875 18.066406 C 15.335938 18.066406 15.375 18.066406 15.417969 18.066406 C 15.5625 18.066406 15.703125 18.066406 15.847656 18.066406 C 15.980469 18.066406 16.113281 18.066406 16.246094 18.066406 C 16.359375 18.066406 16.476562 18.066406 16.589844 18.066406 C 16.65625 18.066406 16.726562 18.066406 16.792969 18.066406 C 16.859375 18.066406 16.921875 18.066406 16.988281 18.066406 C 17.023438 18.066406 17.054688 18.066406 17.089844 18.066406 C 17.242188 18.066406 17.242188 18.066406 17.386719 18.027344 C 17.421875 17.984375 17.445312 17.949219 17.46875 17.902344 C 17.484375 17.878906 17.5 17.851562 17.515625 17.824219 L 17.539062 17.785156 C 17.582031 17.714844 17.625 17.648438 17.667969 17.578125 L 17.71875 17.496094 C 17.761719 17.429688 17.804688 17.367188 17.84375 17.300781 L 17.878906 17.246094 C 17.898438 17.214844 17.921875 17.179688 17.941406 17.144531 C 18.046875 16.996094 18.046875 16.996094 18.105469 16.828125 L 18.097656 16.78125 L 18.0625 16.746094 C 17.929688 16.71875 17.808594 16.738281 17.683594 16.78125 C 17.621094 16.800781 17.5625 16.824219 17.5 16.847656 C 17.285156 16.929688 17.078125 16.96875 16.847656 16.933594 C 16.726562 16.90625 16.613281 16.867188 16.496094 16.824219 L 16.460938 16.808594 C 16.40625 16.789062 16.347656 16.765625 16.292969 16.742188 C 16.136719 16.679688 16.136719 16.679688 15.976562 16.667969 C 15.871094 16.6875 15.777344 16.730469 15.679688 16.769531 M 16.988281 18.320312 C 16.738281 18.3125 16.484375 18.308594 16.230469 18.304688 C 16.078125 18.304688 15.925781 18.300781 15.769531 18.292969 C 15.148438 18.246094 15.148438 18.246094 14.554688 18.375 C 14.347656 18.496094 14.1875 18.675781 14.058594 18.875 C 14.023438 18.925781 14.023438 18.925781 14.027344 18.96875 L 13.992188 18.96875 C 13.964844 18.996094 13.964844 18.996094 13.933594 19.03125 C 13.871094 19.109375 13.800781 19.179688 13.726562 19.253906 L 13.6875 19.292969 C 13.660156 19.320312 13.632812 19.347656 13.605469 19.375 C 13.566406 19.414062 13.523438 19.457031 13.484375 19.496094 L 13.402344 19.574219 L 13.367188 19.613281 C 13.296875 19.683594 13.226562 19.75 13.152344 19.8125 C 13.113281 19.847656 13.074219 19.882812 13.039062 19.921875 L 12.996094 19.964844 L 12.949219 20.007812 C 12.792969 20.171875 12.792969 20.171875 12.714844 20.238281 C 12.621094 20.320312 12.53125 20.40625 12.441406 20.496094 C 12.410156 20.527344 12.382812 20.554688 12.351562 20.585938 C 12.179688 20.753906 12.027344 20.933594 11.90625 21.140625 L 11.886719 21.179688 C 11.695312 21.519531 11.621094 21.871094 11.621094 22.257812 C 11.625 22.5625 11.691406 22.863281 11.84375 23.128906 C 11.882812 23.191406 11.921875 23.25 11.964844 23.308594 L 11.992188 23.347656 C 12.144531 23.566406 12.402344 23.730469 12.640625 23.839844 C 13 24 13.351562 24.007812 13.738281 24.007812 C 13.804688 24.007812 13.871094 24.007812 13.9375 24.007812 C 14.066406 24.007812 14.199219 24.007812 14.328125 24.007812 C 14.449219 24.007812 14.566406 24.007812 14.6875 24.007812 C 14.71875 24.007812 14.75 24.007812 14.78125 24.007812 C 15.066406 24.007812 15.351562 24.007812 15.640625 24.007812 C 15.882812 24.007812 16.128906 24.007812 16.375 24.007812 C 16.691406 24.007812 17.003906 24.007812 17.320312 24.007812 L 17.367188 24.007812 C 17.472656 24.007812 17.578125 24.007812 17.683594 24.007812 C 17.808594 24.007812 17.9375 24.007812 18.066406 24.007812 C 18.132812 24.007812 18.195312 24.007812 18.261719 24.007812 C 18.746094 24.007812 18.746094 24.007812 19.210938 23.890625 L 19.253906 23.875 C 19.464844 23.789062 19.652344 23.683594 19.816406 23.523438 C 19.859375 23.484375 19.859375 23.484375 19.902344 23.449219 C 19.953125 23.40625 19.992188 23.359375 20.035156 23.304688 L 20.058594 23.273438 C 20.25 23.015625 20.359375 22.738281 20.402344 22.417969 C 20.441406 22.058594 20.40625 21.722656 20.269531 21.390625 C 20.160156 21.152344 20 20.941406 19.820312 20.746094 L 19.78125 20.699219 C 19.652344 20.550781 19.507812 20.421875 19.355469 20.300781 C 19.253906 20.214844 19.15625 20.125 19.0625 20.03125 L 19.023438 19.996094 L 18.992188 19.964844 C 18.957031 19.933594 18.921875 19.902344 18.886719 19.871094 C 18.800781 19.800781 18.722656 19.722656 18.644531 19.644531 L 18.597656 19.597656 C 18.566406 19.566406 18.535156 19.535156 18.503906 19.503906 C 18.453125 19.453125 18.40625 19.40625 18.359375 19.355469 C 18.328125 19.324219 18.296875 19.292969 18.265625 19.261719 L 18.21875 19.21875 C 18.132812 19.132812 18.050781 19.039062 17.972656 18.941406 C 17.929688 18.886719 17.882812 18.832031 17.835938 18.78125 C 17.742188 18.671875 17.652344 18.558594 17.570312 18.441406 L 17.515625 18.371094 C 17.492188 18.339844 17.492188 18.339844 17.441406 18.328125 C 17.410156 18.328125 17.382812 18.328125 17.355469 18.328125 C 17.234375 18.328125 17.113281 18.324219 16.988281 18.320312 "/>
<path style=" stroke:none;fill-rule:nonzero;fill:rgb(99.607843%,93.725491%,36.078432%);fill-opacity:1;" d="M 15.980469 19.394531 C 16.046875 19.394531 16.046875 19.394531 16.105469 19.414062 C 16.136719 19.441406 16.136719 19.441406 16.160156 19.484375 C 16.167969 19.542969 16.167969 19.542969 16.164062 19.617188 L 16.164062 19.652344 C 16.164062 19.695312 16.164062 19.734375 16.164062 19.773438 C 16.164062 19.800781 16.164062 19.828125 16.164062 19.855469 C 16.160156 19.921875 16.160156 19.988281 16.160156 20.054688 L 16.210938 20.054688 L 16.277344 20.050781 L 16.34375 20.050781 C 16.4375 20.054688 16.53125 20.0625 16.621094 20.089844 C 16.679688 20.128906 16.679688 20.128906 16.710938 20.179688 C 16.710938 20.242188 16.710938 20.242188 16.691406 20.300781 C 16.671875 20.335938 16.671875 20.335938 16.640625 20.355469 C 16.535156 20.378906 16.4375 20.367188 16.328125 20.355469 L 16.28125 20.351562 C 16.238281 20.347656 16.199219 20.34375 16.160156 20.335938 L 16.160156 20.375 L 16.164062 20.421875 L 16.164062 20.46875 C 16.160156 20.519531 16.148438 20.546875 16.125 20.585938 C 16.09375 20.609375 16.09375 20.609375 16.054688 20.621094 C 16 20.621094 16 20.621094 15.945312 20.605469 C 15.90625 20.570312 15.90625 20.570312 15.875 20.515625 C 15.871094 20.449219 15.871094 20.386719 15.875 20.320312 C 15.800781 20.351562 15.726562 20.382812 15.667969 20.4375 C 15.625 20.492188 15.609375 20.539062 15.601562 20.609375 C 15.597656 20.722656 15.601562 20.824219 15.652344 20.925781 C 15.710938 21 15.789062 21.058594 15.875 21.101562 L 15.871094 21.046875 C 15.875 20.976562 15.875 20.976562 15.910156 20.925781 C 15.945312 20.890625 15.945312 20.890625 15.980469 20.871094 C 16.035156 20.867188 16.035156 20.867188 16.089844 20.871094 C 16.128906 20.898438 16.128906 20.898438 16.160156 20.941406 C 16.164062 20.992188 16.167969 21.03125 16.164062 21.078125 L 16.164062 21.117188 C 16.164062 21.148438 16.160156 21.179688 16.160156 21.207031 L 16.203125 21.214844 C 16.371094 21.246094 16.5 21.308594 16.640625 21.40625 C 16.730469 21.484375 16.792969 21.578125 16.835938 21.6875 C 16.882812 21.835938 16.890625 21.984375 16.859375 22.140625 C 16.816406 22.277344 16.753906 22.386719 16.65625 22.492188 C 16.53125 22.609375 16.378906 22.648438 16.214844 22.683594 L 16.160156 22.683594 L 16.160156 22.722656 C 16.160156 22.78125 16.160156 22.835938 16.164062 22.894531 C 16.164062 22.914062 16.164062 22.933594 16.164062 22.953125 L 16.164062 23.0625 C 16.160156 23.113281 16.152344 23.140625 16.125 23.183594 C 16.09375 23.207031 16.09375 23.207031 16.054688 23.21875 C 16 23.214844 16 23.214844 15.945312 23.199219 C 15.90625 23.167969 15.90625 23.167969 15.875 23.109375 C 15.867188 23.039062 15.867188 22.964844 15.871094 22.890625 L 15.871094 22.832031 C 15.871094 22.78125 15.875 22.734375 15.875 22.683594 L 15.835938 22.679688 C 15.6875 22.667969 15.550781 22.648438 15.421875 22.566406 C 15.34375 22.507812 15.277344 22.453125 15.234375 22.363281 C 15.226562 22.308594 15.226562 22.308594 15.234375 22.257812 C 15.265625 22.207031 15.265625 22.207031 15.308594 22.167969 C 15.359375 22.160156 15.359375 22.160156 15.414062 22.167969 C 15.460938 22.199219 15.496094 22.234375 15.539062 22.277344 C 15.578125 22.316406 15.609375 22.339844 15.664062 22.363281 L 15.859375 22.398438 L 15.859375 21.386719 L 15.644531 21.316406 C 15.535156 21.242188 15.445312 21.164062 15.378906 21.050781 C 15.304688 20.894531 15.277344 20.757812 15.289062 20.585938 C 15.308594 20.460938 15.339844 20.351562 15.417969 20.25 C 15.480469 20.179688 15.535156 20.125 15.625 20.09375 C 15.699219 20.070312 15.777344 20.054688 15.859375 20.035156 L 15.859375 19.988281 C 15.859375 19.925781 15.859375 19.867188 15.859375 19.804688 C 15.859375 19.777344 15.859375 19.753906 15.859375 19.726562 C 15.859375 19.6875 15.859375 19.652344 15.859375 19.613281 L 15.863281 19.546875 C 15.875 19.484375 15.875 19.484375 15.898438 19.457031 C 15.925781 19.433594 15.925781 19.433594 15.980469 19.394531 M 16.160156 21.511719 L 16.160156 22.398438 C 16.269531 22.382812 16.335938 22.371094 16.425781 22.3125 C 16.5 22.242188 16.539062 22.167969 16.574219 22.074219 C 16.597656 21.992188 16.597656 21.914062 16.585938 21.832031 C 16.5625 21.746094 16.515625 21.683594 16.453125 21.621094 C 16.359375 21.546875 16.359375 21.546875 16.160156 21.511719 "/>
<path style=" stroke:none;fill-rule:nonzero;fill:rgb(99.607843%,93.725491%,36.470589%);fill-opacity:1;" d="M 23.484375 12.730469 L 23.519531 12.730469 L 23.53125 12.773438 C 23.574219 12.933594 23.574219 12.933594 23.660156 13.070312 C 23.746094 13.144531 23.859375 13.183594 23.964844 13.226562 L 23.964844 13.261719 L 23.910156 13.277344 L 23.835938 13.300781 L 23.800781 13.3125 C 23.722656 13.335938 23.667969 13.367188 23.609375 13.421875 C 23.554688 13.503906 23.539062 13.59375 23.519531 13.6875 L 23.464844 13.6875 L 23.453125 13.644531 L 23.433594 13.585938 L 23.417969 13.53125 C 23.394531 13.476562 23.375 13.433594 23.34375 13.386719 C 23.3125 13.363281 23.3125 13.363281 23.277344 13.347656 L 23.242188 13.332031 C 23.175781 13.304688 23.109375 13.28125 23.039062 13.261719 L 23.039062 13.226562 L 23.097656 13.199219 L 23.167969 13.160156 L 23.207031 13.144531 C 23.261719 13.113281 23.304688 13.089844 23.347656 13.042969 C 23.386719 12.984375 23.410156 12.921875 23.4375 12.855469 L 23.449219 12.820312 C 23.460938 12.789062 23.472656 12.757812 23.484375 12.730469 "/>
<path style=" stroke:none;fill-rule:nonzero;fill:rgb(99.607843%,93.725491%,36.862746%);fill-opacity:1;" d="M 8.605469 14.828125 L 8.621094 14.828125 L 8.632812 14.878906 L 8.652344 14.945312 L 8.667969 15.011719 C 8.695312 15.082031 8.726562 15.132812 8.78125 15.183594 C 8.828125 15.210938 8.878906 15.230469 8.929688 15.25 L 8.96875 15.269531 C 9.003906 15.28125 9.035156 15.292969 9.066406 15.308594 C 9.023438 15.351562 8.988281 15.355469 8.929688 15.375 C 8.835938 15.402344 8.835938 15.402344 8.753906 15.453125 C 8.699219 15.515625 8.679688 15.566406 8.65625 15.644531 L 8.648438 15.679688 C 8.636719 15.710938 8.628906 15.738281 8.621094 15.769531 L 8.585938 15.769531 L 8.574219 15.730469 C 8.519531 15.570312 8.519531 15.570312 8.414062 15.441406 C 8.363281 15.40625 8.316406 15.390625 8.261719 15.375 L 8.203125 15.355469 L 8.160156 15.34375 L 8.160156 15.289062 L 8.203125 15.273438 C 8.292969 15.242188 8.375 15.207031 8.441406 15.136719 C 8.503906 15.0625 8.535156 14.976562 8.570312 14.886719 C 8.585938 14.84375 8.585938 14.84375 8.605469 14.828125 M 11.574219 8.800781 L 11.609375 8.800781 L 11.621094 8.851562 C 11.65625 8.996094 11.65625 8.996094 11.730469 9.121094 C 11.785156 9.179688 11.855469 9.214844 11.929688 9.246094 L 11.964844 9.261719 C 11.996094 9.273438 12.023438 9.285156 12.054688 9.296875 C 11.996094 9.355469 11.921875 9.363281 11.84375 9.382812 C 11.78125 9.40625 11.746094 9.429688 11.699219 9.476562 C 11.648438 9.566406 11.628906 9.660156 11.609375 9.761719 L 11.574219 9.761719 C 11.566406 9.746094 11.5625 9.730469 11.554688 9.710938 L 11.535156 9.648438 L 11.511719 9.589844 C 11.484375 9.527344 11.457031 9.488281 11.414062 9.441406 C 11.382812 9.417969 11.382812 9.417969 11.347656 9.402344 L 11.308594 9.386719 C 11.25 9.359375 11.191406 9.335938 11.128906 9.316406 C 11.191406 9.265625 11.257812 9.234375 11.332031 9.199219 C 11.390625 9.167969 11.425781 9.132812 11.464844 9.085938 C 11.492188 9.035156 11.507812 8.988281 11.527344 8.9375 L 11.539062 8.898438 C 11.550781 8.863281 11.5625 8.832031 11.574219 8.800781 "/>
<path style=" stroke:none;fill-rule:nonzero;fill:rgb(99.607843%,93.725491%,37.64706%);fill-opacity:1;" d="M 21.191406 17.136719 L 21.207031 17.136719 L 21.21875 17.183594 C 21.25 17.300781 21.25 17.300781 21.308594 17.40625 C 21.378906 17.46875 21.457031 17.5 21.546875 17.527344 L 21.527344 17.582031 L 21.464844 17.597656 C 21.390625 17.613281 21.34375 17.640625 21.289062 17.691406 C 21.242188 17.753906 21.226562 17.824219 21.207031 17.902344 L 21.171875 17.902344 L 21.164062 17.867188 C 21.144531 17.792969 21.128906 17.734375 21.085938 17.671875 C 21.007812 17.617188 20.925781 17.59375 20.835938 17.5625 C 20.871094 17.535156 20.90625 17.511719 20.945312 17.488281 C 21.003906 17.453125 21.054688 17.425781 21.089844 17.367188 C 21.109375 17.324219 21.125 17.285156 21.136719 17.246094 C 21.15625 17.207031 21.171875 17.171875 21.191406 17.136719 "/>
<path style=" stroke:none;fill-rule:nonzero;fill:rgb(99.607843%,93.725491%,38.431373%);fill-opacity:1;" d="M 19.90625 8.507812 C 19.964844 8.515625 19.964844 8.515625 20.015625 8.550781 C 20.054688 8.605469 20.054688 8.605469 20.0625 8.640625 C 20.066406 8.679688 20.0625 8.707031 20.054688 8.746094 C 20.019531 8.800781 20.019531 8.800781 19.964844 8.835938 C 19.90625 8.839844 19.859375 8.835938 19.804688 8.816406 L 19.769531 8.789062 C 19.746094 8.730469 19.742188 8.6875 19.75 8.621094 C 19.785156 8.570312 19.785156 8.570312 19.820312 8.535156 C 19.859375 8.515625 19.859375 8.515625 19.90625 8.507812 M 9.742188 17.902344 C 9.78125 17.910156 9.78125 17.910156 9.8125 17.921875 C 9.847656 17.949219 9.847656 17.949219 9.867188 17.992188 C 9.875 18.042969 9.875 18.042969 9.867188 18.097656 C 9.835938 18.148438 9.835938 18.148438 9.796875 18.1875 C 9.742188 18.203125 9.742188 18.203125 9.6875 18.203125 C 9.648438 18.195312 9.648438 18.195312 9.617188 18.167969 C 9.585938 18.121094 9.585938 18.121094 9.5625 18.0625 C 9.574219 18.003906 9.589844 17.96875 9.628906 17.921875 C 9.675781 17.902344 9.695312 17.898438 9.742188 17.902344 M 13.441406 15.460938 C 13.480469 15.464844 13.511719 15.46875 13.546875 15.484375 C 13.582031 15.53125 13.582031 15.53125 13.601562 15.589844 C 13.597656 15.648438 13.589844 15.683594 13.5625 15.730469 C 13.527344 15.75 13.527344 15.75 13.46875 15.761719 C 13.40625 15.75 13.40625 15.75 13.351562 15.714844 C 13.316406 15.664062 13.316406 15.664062 13.304688 15.609375 C 13.316406 15.554688 13.316406 15.554688 13.351562 15.503906 C 13.40625 15.464844 13.40625 15.464844 13.441406 15.460938 "/>
<path style=" stroke:none;fill-rule:nonzero;fill:rgb(99.607843%,93.725491%,37.254903%);fill-opacity:1;" d="M 11.546875 19.417969 C 11.589844 19.429688 11.589844 19.429688 11.625 19.449219 C 11.648438 19.488281 11.648438 19.511719 11.652344 19.554688 C 11.648438 19.597656 11.644531 19.625 11.625 19.664062 C 11.578125 19.6875 11.535156 19.6875 11.480469 19.6875 C 11.449219 19.679688 11.449219 19.679688 11.414062 19.652344 C 11.390625 19.597656 11.386719 19.558594 11.394531 19.503906 C 11.417969 19.460938 11.417969 19.460938 11.449219 19.429688 C 11.503906 19.414062 11.503906 19.414062 11.546875 19.417969 "/>
<path style=" stroke:none;fill-rule:nonzero;fill:rgb(99.607843%,93.725491%,36.862746%);fill-opacity:1;" d="M 10.292969 21.601562 C 10.34375 21.589844 10.34375 21.589844 10.398438 21.601562 C 10.441406 21.628906 10.441406 21.628906 10.472656 21.671875 C 10.46875 21.734375 10.46875 21.734375 10.453125 21.796875 L 10.417969 21.832031 C 10.355469 21.835938 10.355469 21.835938 10.292969 21.832031 L 10.257812 21.8125 C 10.238281 21.777344 10.238281 21.777344 10.234375 21.726562 C 10.238281 21.671875 10.238281 21.671875 10.261719 21.628906 Z M 10.292969 21.601562 "/>
<path style=" stroke:none;fill-rule:nonzero;fill:rgb(99.607843%,93.725491%,38.039216%);fill-opacity:1;" d="M 21.992188 20.570312 C 22.042969 20.5625 22.042969 20.5625 22.097656 20.570312 L 22.132812 20.585938 C 22.152344 20.621094 22.152344 20.621094 22.15625 20.683594 C 22.152344 20.746094 22.152344 20.746094 22.117188 20.800781 C 22.074219 20.816406 22.074219 20.816406 22.027344 20.816406 C 21.976562 20.789062 21.976562 20.789062 21.9375 20.746094 C 21.929688 20.691406 21.929688 20.691406 21.9375 20.640625 C 21.957031 20.597656 21.957031 20.597656 21.992188 20.570312 "/>
<path style=" stroke:none;fill-rule:nonzero;fill:rgb(99.607843%,95.686275%,69.411767%);fill-opacity:1;" d="M 15.980469 29.582031 L 16.335938 29.582031 L 16.335938 29.601562 L 15.980469 29.601562 Z M 16.746094 2.363281 L 16.871094 2.363281 L 16.871094 2.382812 L 16.746094 2.382812 Z M 14.914062 29.617188 L 14.988281 29.636719 Z M 14.738281 29.601562 L 14.792969 29.617188 Z M 13.867188 29.492188 L 13.921875 29.511719 Z M 13.796875 29.476562 L 13.832031 29.492188 Z M 13.601562 29.367188 L 13.636719 29.386719 Z M 12.960938 29.246094 L 12.996094 29.261719 Z M 12.960938 29.246094 "/>
</g>
</svg>
