<svg preserveAspectRatio="xMidYMid meet" viewBox="175.5 12.01556420233463 357 375.4863813229572" xmlns="http://www.w3.org/2000/svg" version="1.0" style="max-height: 500px" width="357" height="375.4863813229572">

<g stroke="none" fill="#000000" transform="translate(0.000000,386.000000) scale(0.100000,-0.100000)">
<path d="M3427 3579 c-68 -78 -124 -194 -142 -294 -13 -74 -13 -96 -1 -165 8&#10;-46 28 -105 46 -142 38 -75 46 -87 96 -141 22 -23 51 -57 67 -75 l27 -34 0&#10;-239 c0 -210 -2 -240 -16 -246 -11 -4 -40 19 -95 73 -67 66 -83 90 -106 149&#10;-71 189 -216 328 -391 378 -57 16 -269 20 -334 6 -88 -18 -94 -25 -79 -92 43&#10;-195 220 -369 429 -423 65 -17 246 -18 307 -2 l45 12 71 -69 c38 -39 91 -101&#10;117 -139 l47 -68 3 -128 c4 -149 6 -147 -97 -180 -85 -27 -163 -24 -233 8 -53&#10;25 -79 27 -96 10 -25 -25 -11 -63 74 -205 24 -39 44 -74 44 -77 0 -3 -10 -14&#10;-21 -25 -17 -16 -20 -25 -13 -48 4 -15 8 -31 8 -35 1 -4 -110 -119 -245 -255&#10;-190 -192 -251 -260 -272 -303 -111 -229 -6 -484 233 -566 52 -18 93 -19 670&#10;-19 l615 0 58 23 c86 35 169 117 214 211 34 70 37 83 37 166 0 81 -4 97 -34&#10;160 -29 63 -60 97 -289 328 -284 286 -277 274 -183 312 63 25 75 36 66 59 -6&#10;15 -15 17 -48 13 -23 -3 -51 -9 -63 -13 -32 -9 -29 4 17 83 78 132 85 150 72&#10;178 -15 32 -41 32 -120 0 -80 -32 -137 -32 -236 4 l-79 28 1 250 c0 207 3 256&#10;16 281 42 82 227 281 274 296 15 5 31 1 50 -12 55 -40 173 -74 272 -79 105 -6&#10;175 7 270 51 103 47 303 271 284 319 -8 21 -96 71 -176 99 -54 20 -82 23 -193&#10;22 -116 0 -137 -3 -196 -26 -122 -48 -193 -102 -276 -213 -53 -69 -303 -325&#10;-318 -325 -6 0 -10 51 -9 138 0 118 3 142 21 177 45 87 100 234 113 301 20&#10;113 3 215 -59 340 -44 88 -151 214 -183 214 -9 0 -37 -23 -61 -51z m109 -81&#10;c115 -131 162 -319 116 -465 -26 -82 -82 -201 -98 -207 -7 -3 -24 4 -37 15&#10;-43 33 -127 156 -148 213 -27 77 -26 215 2 299 18 56 79 162 103 179 13 9 36&#10;-4 62 -34z m1009 -556 c67 -25 124 -52 131 -64 14 -22 -103 -153 -182 -204&#10;-139 -89 -315 -99 -476 -25 -63 28 -75 45 -57 78 39 73 211 203 268 203 10 0&#10;21 4 27 9 15 15 44 19 144 20 70 1 109 -4 145 -17z m-1728 -153 c104 -24 130&#10;-32 181 -58 110 -54 262 -255 239 -315 -9 -23 -159 -36 -247 -21 -122 22 -153&#10;35 -248 107 -64 49 -103 98 -142 175 -39 76 -39 104 -2 102 15 -1 38 3 52 9&#10;33 14 108 15 167 1z m839 -1090 c88 -30 152 -39 202 -27 26 6 47 7 52 2 11&#10;-11 -69 -151 -101 -176 -19 -16 -47 -18 -253 -18 -171 0 -236 3 -248 13 -22&#10;17 -108 155 -108 172 0 17 10 18 64 5 40 -9 130 2 171 20 80 35 140 38 221 9z&#10;m440 -591 c328 -330 329 -331 329 -468 0 -99 -33 -169 -113 -240 -106 -94 -75&#10;-91 -770 -88 l-607 3 -48 23 c-26 13 -51 29 -54 37 -3 8 -11 15 -17 15 -22 0&#10;-75 64 -100 123 -38 85 -36 175 4 265 28 61 57 93 308 344 l277 278 250 0 251&#10;0 290 -292z"/>
<path d="M3532 1208 c-6 -7 -12 -26 -14 -43 -2 -24 -11 -34 -49 -52 -66 -31&#10;-89 -67 -89 -138 0 -53 3 -60 38 -94 20 -20 52 -44 70 -53 31 -16 32 -20 32&#10;-77 0 -33 -3 -66 -6 -75 -7 -18 -45 -21 -61 -5 -6 6 -23 9 -39 7 -21 -2 -30&#10;-9 -32 -25 -3 -23 26 -44 83 -57 40 -10 55 -24 55 -51 0 -32 25 -50 52 -38 16&#10;7 22 19 22 44 1 29 6 35 32 44 54 18 81 43 97 89 27 78 -12 160 -90 188 -18 7&#10;-33 14 -34 18 0 3 -2 37 -4 77 -3 79 3 88 53 74 34 -10 62 3 62 28 0 22 -47&#10;55 -75 53 -30 -2 -45 16 -39 48 5 22 1 31 -14 39 -27 14 -37 14 -50 -1z m-8&#10;-184 c11 -30 6 -91 -9 -104 -19 -16 -40 -8 -60 23 -12 19 -13 30 -5 53 17 44&#10;61 61 74 28z m121 -238 c29 -21 26 -83 -5 -107 -14 -10 -29 -17 -35 -15 -5 1&#10;-11 33 -12 69 -2 58 0 67 15 67 10 0 27 -6 37 -14z"/>
<path d="M4254 3385 c-4 -9 -2 -21 4 -27 15 -15 44 -1 40 19 -4 23 -36 29 -44&#10;8z"/>
<path d="M2634 3333 c-14 -46 -32 -70 -71 -88 -23 -11 -42 -23 -43 -27 0 -3&#10;19 -17 43 -30 27 -15 49 -37 60 -60 22 -44 34 -48 47 -13 12 30 56 74 88 86&#10;12 5 22 13 22 18 0 5 -10 13 -22 16 -33 10 -68 45 -84 83 -16 35 -32 41 -40&#10;15z"/>
<path d="M10601 3046 c-8 -9 -10 -155 -9 -522 l3 -509 43 -3 c51 -4 67 7 76&#10;48 8 43 32 48 69 14 77 -71 212 -103 306 -73 156 50 254 171 267 331 14 163&#10;-58 303 -191 371 -95 48 -149 55 -250 32 -38 -9 -113 -44 -121 -56 -3 -5 -14&#10;-9 -25 -9 -18 0 -19 9 -19 183 0 129 -4 187 -12 195 -17 17 -123 16 -137 -2z&#10;m469 -468 c55 -24 109 -89 128 -155 37 -127 -63 -266 -208 -288 -36 -5 -56 -1&#10;-101 19 -152 67 -190 246 -79 375 11 13 45 36 76 51 63 32 109 31 184 -2z"/>
<path d="M6197 2730 c-26 -10 -63 -30 -82 -44 -44 -34 -52 -33 -69 9 -14 33&#10;-18 35 -61 35 -40 0 -47 -3 -55 -26 -11 -28 -14 -611 -4 -663 l7 -31 68 0 c57&#10;0 70 3 79 19 6 12 10 109 10 247 0 210 1 229 20 259 30 49 61 65 126 65 41 0&#10;64 -6 86 -21 53 -38 58 -65 58 -313 0 -123 3 -231 6 -240 9 -23 139 -23 148 0&#10;3 9 6 114 6 235 0 244 6 274 59 305 17 10 31 22 31 26 0 4 28 8 63 8 49 -1 67&#10;-5 88 -23 51 -43 54 -56 59 -317 l5 -245 75 0 75 0 0 270 c0 264 -1 271 -24&#10;318 -13 26 -41 63 -63 82 -48 40 -133 70 -180 62 -97 -17 -166 -46 -202 -86&#10;-11 -12 -23 -21 -29 -21 -5 0 -30 19 -57 43 -75 67 -151 82 -243 47z"/>
<path d="M7470 2740 c-8 -5 -23 -10 -34 -10 -30 0 -118 -49 -159 -88 -21 -20&#10;-53 -64 -70 -97 -30 -57 -31 -66 -31 -175 0 -103 2 -121 25 -170 44 -93 128&#10;-160 250 -199 44 -14 166 -15 174 -1 3 5 19 10 35 10 16 0 32 5 35 10 3 6 12&#10;10 20 10 19 0 81 43 117 81 96 100 120 298 54 433 -42 86 -148 172 -236 190&#10;-61 13 -164 17 -180 6z m145 -151 c5 -5 17 -9 26 -9 28 0 105 -94 118 -144 15&#10;-59 14 -82 -4 -144 -26 -87 -123 -162 -210 -162 -74 0 -161 56 -194 124 -29&#10;63 -29 171 0 228 22 43 75 98 95 98 6 0 23 6 36 13 27 13 117 11 133 -4z"/>
<path d="M8415 2738 c-58 -20 -126 -52 -137 -65 -18 -23 -44 -14 -59 20 -13&#10;29 -19 32 -61 35 -42 3 -48 1 -53 -20 -3 -13 -4 -174 -3 -358 l3 -335 69 -3&#10;c49 -2 72 1 77 10 5 7 9 106 9 219 0 114 3 221 7 240 4 19 24 50 49 76 43 42&#10;45 43 112 43 66 0 69 -1 104 -37 19 -21 40 -53 47 -72 7 -21 11 -118 11 -258&#10;l0 -224 73 3 72 3 3 255 c3 282 -4 327 -58 392 -58 69 -180 104 -265 76z"/>
<path d="M9200 2740 c-8 -5 -24 -10 -36 -10 -67 0 -172 -87 -216 -178 -32 -64&#10;-33 -72 -33 -182 1 -103 3 -121 27 -172 42 -91 158 -188 226 -188 11 0 24 -4&#10;27 -10 3 -5 37 -10 75 -10 38 0 72 5 75 10 3 6 17 10 30 10 41 0 195 97 195&#10;122 0 18 -64 88 -79 88 -9 0 -34 -12 -56 -27 -119 -82 -223 -80 -312 7 -33 33&#10;-66 111 -56 135 4 13 46 15 263 15 304 0 289 -6 271 101 -25 151 -110 246&#10;-255 284 -65 17 -124 19 -146 5z m95 -130 c3 -5 17 -10 30 -10 15 0 40 -15 63&#10;-38 46 -45 61 -80 41 -93 -8 -5 -87 -9 -177 -9 -137 0 -164 2 -168 15 -8 20&#10;42 96 67 102 10 3 19 9 19 14 0 5 12 9 28 9 15 0 34 5 42 10 20 13 47 13 55 0z"/>
<path d="M11685 2736 c-147 -31 -145 -29 -120 -106 15 -46 19 -50 49 -50 18 0&#10;36 4 42 9 5 5 27 11 49 15 22 3 56 8 76 12 23 3 39 2 43 -5 4 -6 19 -11 32&#10;-11 15 0 38 -13 56 -31 27 -26 31 -38 32 -87 l1 -57 -30 2 c-16 1 -59 5 -94 9&#10;-114 12 -233 -32 -279 -103 -31 -47 -43 -117 -30 -177 13 -64 75 -132 133&#10;-148 62 -16 146 -21 158 -9 6 6 18 11 27 11 24 0 74 26 95 50 26 28 38 25 59&#10;-15 18 -33 22 -35 68 -35 l48 0 0 273 c0 265 -1 273 -24 322 -13 28 -32 57&#10;-42 66 -27 23 -94 56 -129 64 -55 13 -159 13 -220 1z m220 -418 c38 -10 45&#10;-16 45 -38 0 -48 -19 -92 -56 -128 -34 -33 -44 -37 -103 -40 -59 -4 -69 -1&#10;-93 21 -50 47 -49 109 3 158 40 37 124 48 204 27z"/>
<path d="M12545 2738 c-150 -49 -235 -145 -265 -299 -28 -140 32 -292 145&#10;-368 58 -39 113 -54 195 -54 84 0 114 9 173 50 67 47 77 40 71 -42 -7 -98 -32&#10;-140 -102 -171 -44 -20 -68 -24 -107 -21 -91 9 -147 28 -214 73 -19 13 -38 21&#10;-42 18 -4 -2 -22 -25 -38 -50 l-31 -45 22 -29 c12 -17 30 -30 39 -30 10 0 21&#10;-4 24 -10 5 -8 34 -23 100 -50 53 -22 198 -31 260 -16 90 22 175 90 216 172&#10;l24 49 0 405 0 405 -39 3 c-44 4 -56 -5 -70 -50 -14 -43 -36 -46 -78 -11 -44&#10;38 -92 63 -116 63 -12 0 -24 5 -27 10 -8 12 -100 11 -140 -2z m180 -149 c5 -5&#10;15 -9 22 -9 19 0 87 -69 108 -110 24 -46 24 -134 0 -180 -53 -105 -184 -161&#10;-279 -121 -95 41 -145 113 -146 210 0 131 108 232 238 223 26 -2 51 -8 57 -13z"/>
<path d="M9725 2720 c-7 -12 -1 -26 149 -333 69 -141 126 -265 126 -276 0 -10&#10;-41 -102 -91 -206 -49 -103 -88 -194 -85 -201 6 -15 121 -20 143 -6 12 8 28&#10;40 208 427 54 116 134 287 177 380 44 94 80 181 81 195 2 24 0 25 -70 28 -85&#10;3 -79 10 -148 -153 -26 -60 -56 -130 -67 -155 -11 -25 -26 -60 -34 -77 -7 -18&#10;-18 -33 -24 -33 -9 0 -93 165 -175 345 -32 69 -41 75 -116 75 -37 0 -70 -4&#10;-74 -10z"/>
<path d="M4981 2562 c-6 -12 -11 -27 -11 -35 0 -18 -60 -72 -89 -82 -28 -8&#10;-27 -32 2 -40 35 -11 68 -46 89 -95 18 -43 20 -44 34 -26 8 11 14 25 14 32 0&#10;21 41 64 81 84 21 11 39 24 39 28 -1 4 -20 16 -43 27 -30 15 -49 33 -67 67&#10;-33 61 -36 64 -49 40z"/>
<path d="M2074 2135 c-7 -28 -57 -75 -81 -75 -22 0 -12 -16 27 -42 19 -13 42&#10;-38 50 -55 19 -42 28 -41 46 2 9 23 28 41 55 55 33 17 38 24 29 36 -7 8 -18&#10;14 -24 14 -15 0 -61 48 -69 73 -9 25 -26 21 -33 -8z"/>
<path d="M3936 2111 c-4 -5 -2 -12 3 -15 5 -4 12 -2 15 3 4 5 2 12 -3 15 -5 4&#10;-12 2 -15 -3z"/>
<path d="M3030 2010 c0 -15 5 -20 18 -18 9 2 17 10 17 18 0 8 -8 16 -17 18&#10;-13 2 -18 -3 -18 -18z"/>
<path d="M4540 1696 c0 -20 -40 -66 -66 -76 -33 -13 -30 -34 9 -51 20 -9 39&#10;-28 51 -52 14 -30 21 -36 32 -26 8 6 14 17 14 23 0 17 40 52 68 61 29 9 28 33&#10;-2 41 -28 7 -61 40 -71 72 -7 24 -35 31 -35 8z"/>
<path d="M5122 1659 c2 -6 8 -10 13 -10 5 0 11 4 13 10 2 6 -4 11 -13 11 -9 0&#10;-15 -5 -13 -11z"/>
<path d="M8315 1478 c-3 -13 -4 -124 -3 -248 3 -205 5 -225 21 -228 16 -3 17&#10;14 17 247 0 215 -2 251 -15 251 -8 0 -17 -10 -20 -22z"/>
<path d="M9070 1385 c0 -130 -7 -143 -59 -106 -82 58 -201 -21 -201 -133 0&#10;-90 51 -146 132 -146 27 0 63 7 80 16 29 15 32 15 44 -1 30 -41 35 -11 35 235&#10;1 216 -1 245 -15 248 -14 3 -16 -12 -16 -113z m-59 -146 c67 -47 74 -117 17&#10;-174 -27 -29 -36 -32 -72 -28 -61 7 -83 21 -101 66 -20 50 -7 96 38 132 39 30&#10;79 32 118 4z"/>
<path d="M10770 1250 c0 -206 2 -250 14 -250 7 0 19 7 26 15 12 14 15 14 36 0&#10;14 -9 46 -15 77 -15 51 0 57 3 90 39 74 82 53 196 -44 246 -38 20 -62 19 -111&#10;-5 -22 -11 -45 -17 -49 -14 -5 3 -9 57 -9 120 0 95 -3 114 -15 114 -13 0 -15&#10;-34 -15 -250z m209 -18 c28 -23 34 -36 38 -78 5 -44 2 -53 -23 -82 -25 -28&#10;-35 -32 -77 -32 -59 0 -82 11 -102 50 -57 111 70 221 164 142z"/>
<path d="M2264 1459 c-3 -6 0 -17 8 -25 13 -13 16 -13 27 0 7 8 10 20 6 26 -8&#10;13 -32 13 -41 -1z"/>
<path d="M7555 1400 c-4 -6 -6 -27 -5 -48 3 -59 2 -62 -30 -62 -20 0 -30 -5&#10;-30 -15 0 -10 10 -15 30 -15 17 0 30 -5 31 -12 0 -7 2 -65 2 -128 2 -100 4&#10;-115 20 -118 15 -3 17 7 17 110 0 123 7 144 50 150 33 4 28 22 -7 26 -36 5&#10;-43 17 -43 75 0 34 -4 47 -14 47 -8 0 -18 -5 -21 -10z"/>
<path d="M9950 1355 c0 -36 -4 -57 -12 -59 -7 -3 -26 -7 -41 -10 -32 -7 -27&#10;-26 7 -26 40 0 46 -17 46 -142 0 -98 3 -118 15 -118 12 0 15 20 15 118 0 125&#10;6 142 47 142 14 0 23 6 23 15 0 10 -10 15 -29 15 -32 0 -44 19 -41 68 3 44 1&#10;52 -15 52 -12 0 -15 -13 -15 -55z"/>
<path d="M11715 1390 c-4 -11 -4 -33 -1 -48 8 -35 -2 -49 -37 -54 -35 -4 -40&#10;-22 -7 -26 43 -6 50 -27 50 -149 0 -93 3 -113 15 -113 12 0 15 23 17 128 l3&#10;127 33 3 c40 4 38 25 -4 32 -28 5 -29 8 -32 63 -2 40 -7 57 -17 57 -7 0 -17&#10;-9 -20 -20z"/>
<path d="M7284 1385 c-7 -18 3 -35 21 -35 15 0 24 19 18 38 -6 17 -32 15 -39&#10;-3z"/>
<path d="M9302 1388 c-8 -8 -9 -15 -1 -25 22 -26 53 -8 41 25 -5 15 -24 16&#10;-40 0z"/>
<path d="M10524 1385 c-7 -18 3 -35 21 -35 18 0 26 25 12 39 -15 15 -27 14&#10;-33 -4z"/>
<path d="M11991 1386 c-9 -10 -8 -16 4 -26 19 -16 41 1 32 24 -8 20 -21 20&#10;-36 2z"/>
<path d="M5975 1290 c-3 -5 -14 -10 -24 -10 -22 0 -66 -46 -80 -83 -16 -41&#10;-13 -73 9 -117 29 -57 67 -80 132 -80 45 0 59 5 91 31 20 17 37 35 37 40 0 17&#10;-37 9 -66 -13 -18 -14 -42 -23 -67 -23 -33 0 -45 6 -73 38 -38 41 -42 71 -19&#10;120 16 34 64 67 96 67 21 0 62 -24 92 -53 14 -14 22 -16 30 -8 12 12 -17 59&#10;-44 71 -7 4 -24 12 -36 18 -28 15 -70 15 -78 2z"/>
<path d="M6393 1285 c-58 -26 -93 -105 -78 -175 4 -18 23 -50 42 -71 33 -37&#10;39 -39 93 -39 39 0 62 5 70 15 7 8 18 15 25 15 7 0 15 -7 19 -15 3 -8 12 -15&#10;21 -15 13 0 15 21 15 139 0 138 -6 165 -30 136 -13 -16 -40 -21 -40 -7 0 10&#10;-60 32 -86 31 -10 0 -33 -7 -51 -14z m118 -42 c63 -38 74 -121 22 -175 -22&#10;-23 -35 -28 -78 -28 -44 0 -54 4 -78 31 -21 24 -27 41 -27 76 0 39 5 50 36 79&#10;40 39 79 44 125 17z"/>
<path d="M6887 1277 c-37 -20 -37 -20 -52 -1 -28 37 -35 -4 -35 -222 0 -165 3&#10;-214 13 -223 23 -18 27 -2 27 96 0 92 0 93 24 93 14 0 28 -4 31 -10 3 -5 30&#10;-10 60 -10 43 0 59 5 85 26 45 39 63 79 57 132 -5 50 -29 87 -77 120 -40 27&#10;-83 27 -133 -1z m113 -32 c66 -34 78 -131 23 -182 -22 -21 -36 -26 -72 -24&#10;-56 3 -77 14 -96 51 -29 57 -14 115 41 151 35 23 65 24 104 4z"/>
<path d="M7892 1277 c-49 -33 -72 -74 -72 -130 0 -55 18 -96 56 -126 34 -27&#10;122 -29 161 -4 24 16 26 16 39 -1 7 -10 19 -16 26 -14 10 4 13 38 13 134 -1&#10;144 -6 165 -36 138 -18 -17 -21 -16 -58 4 -48 27 -87 27 -129 -1z m134 -42&#10;c62 -47 65 -114 7 -175 -22 -23 -32 -27 -62 -23 -77 10 -82 13 -102 59 -17 38&#10;-19 50 -9 79 14 43 65 85 104 85 16 0 44 -11 62 -25z"/>
<path d="M9568 1282 c-15 -9 -32 -29 -38 -43 -21 -51 21 -94 112 -113 15 -4&#10;35 -18 44 -32 16 -24 16 -26 -6 -49 -33 -35 -75 -33 -110 5 -15 17 -33 30 -39&#10;30 -20 0 -12 -36 13 -59 20 -19 35 -23 88 -22 55 0 66 3 86 26 24 29 28 72 9&#10;95 -18 22 -75 50 -101 50 -20 0 -66 32 -66 46 0 3 5 14 10 25 15 26 79 26 108&#10;-1 28 -26 44 -25 40 2 -4 27 -53 57 -93 56 -16 0 -42 -7 -57 -16z"/>
<path d="M10302 1283 c-19 -14 -27 -14 -43 -4 -11 6 -24 9 -29 6 -6 -4 -10&#10;-67 -10 -146 0 -117 2 -139 15 -139 12 0 15 16 15 80 0 118 28 170 90 170 16&#10;0 21 5 18 22 -4 28 -26 32 -56 11z"/>
<path d="M12289 1280 c-27 -14 -42 -32 -58 -70 -29 -67 -22 -119 24 -168 29&#10;-32 39 -36 94 -40 54 -4 65 -2 96 22 82 63 88 168 13 231 -58 50 -106 57 -169&#10;25z m137 -40 c62 -39 69 -122 15 -173 -24 -22 -38 -27 -81 -27 -45 0 -56 4&#10;-81 31 -23 25 -29 40 -29 76 0 39 5 50 36 79 42 41 89 45 140 14z"/>
<path d="M12810 1293 c-8 -3 -23 -12 -32 -20 -13 -12 -21 -12 -38 -3 -12 7&#10;-25 8 -29 3 -3 -4 -5 -68 -3 -141 3 -96 7 -132 15 -129 8 2 14 40 17 101 5 95&#10;6 99 38 127 19 17 44 29 60 29 33 0 78 -42 66 -61 -4 -7 -7 -53 -7 -103 0 -85&#10;2 -91 22 -94 20 -3 21 0 21 114 l0 117 -36 33 c-33 32 -60 40 -94 27z"/>
<path d="M7291 1277 c-8 -10 -11 -55 -9 -143 3 -112 5 -129 20 -132 15 -3 17&#10;11 20 130 3 137 -5 175 -31 145z"/>
<path d="M10536 1283 c-3 -3 -6 -69 -6 -145 0 -116 2 -138 15 -138 13 0 15 22&#10;15 139 0 127 -6 162 -24 144z"/>
<path d="M11457 1283 c-4 -3 -7 -42 -7 -85 0 -77 -16 -132 -44 -150 -18 -13&#10;-104 -9 -113 5 -4 6 -10 59 -13 117 -4 92 -7 105 -23 108 -18 4 -19 -4 -15&#10;-106 2 -93 6 -115 24 -139 25 -33 77 -42 138 -22 31 11 40 11 44 1 2 -7 10&#10;-12 17 -12 11 0 15 28 17 129 2 70 2 136 0 145 -4 17 -14 21 -25 9z"/>
<path d="M9304 1267 c-2 -7 -3 -69 -2 -137 3 -110 5 -125 21 -128 15 -3 17 9&#10;17 137 0 120 -2 141 -15 141 -9 0 -18 -6 -21 -13z"/>
<path d="M11998 1273 c-2 -5 -2 -68 0 -140 3 -107 6 -133 18 -133 11 0 14 26&#10;14 140 0 115 -3 140 -14 140 -8 0 -16 -3 -18 -7z"/>
<path d="M2598 1199 l-28 -31 31 -31 31 -30 30 31 31 30 -31 31 c-17 17 -32&#10;31 -34 31 -2 -1 -15 -15 -30 -31z"/>
<path d="M4724 925 c-7 -18 3 -35 21 -35 21 0 28 19 15 35 -16 19 -29 19 -36&#10;0z"/>
<path d="M2420 765 c0 -8 5 -15 10 -15 6 0 10 7 10 15 0 8 -4 15 -10 15 -5 0&#10;-10 -7 -10 -15z"/>
</g>
</svg>