<?xml version="1.0" encoding="UTF-8"?>
<svg xmlns="http://www.w3.org/2000/svg" xmlns:xlink="http://www.w3.org/1999/xlink" width="250px" height="66px" viewBox="0 0 250 66" version="1.1">
<g id="surface1">
<path style=" stroke:none;fill-rule:nonzero;fill:rgb(0%,0%,0%);fill-opacity:1;" d="M 51.777344 2.910156 C 53.34375 3.738281 54.347656 5.140625 55.292969 6.613281 C 56.128906 8.160156 56.480469 9.6875 56.515625 11.441406 C 56.433594 13.449219 55.90625 15.359375 54.824219 17.074219 C 54.214844 18.046875 53.996094 18.839844 53.953125 19.980469 C 53.941406 21.152344 53.972656 22.324219 54.027344 23.496094 L 54.484375 22.984375 C 55.527344 21.847656 56.574219 20.722656 57.683594 19.652344 C 58.371094 18.972656 58.984375 18.296875 59.5625 17.527344 C 60.636719 16.121094 61.753906 15.121094 63.359375 14.363281 C 65.371094 13.53125 67.128906 13.230469 69.324219 13.425781 C 71.171875 13.796875 72.828125 14.441406 74.269531 15.660156 L 74.5 16.109375 C 73.609375 17.949219 72.253906 19.53125 70.671875 20.8125 C 69.144531 21.777344 67.542969 22.46875 65.722656 22.597656 C 63.25 22.652344 61.15625 21.925781 58.972656 20.8125 C 57.152344 22.371094 55.5625 23.941406 54.25 25.957031 C 53.964844 26.808594 53.972656 27.621094 53.953125 28.503906 L 53.9375 29.058594 C 53.925781 29.640625 53.910156 30.222656 53.894531 30.8125 L 53.871094 31.996094 C 53.84375 32.96875 53.824219 33.9375 53.800781 34.90625 L 54.332031 35.011719 C 54.886719 35.125 55.332031 35.292969 55.855469 35.511719 C 56.722656 35.808594 57.359375 35.800781 58.269531 35.652344 C 59.035156 35.488281 59.4375 35.347656 60.097656 34.90625 C 60.675781 34.839844 60.675781 34.839844 61.222656 34.90625 L 61.671875 35.578125 C 61.628906 36.5625 61.3125 37.246094 60.792969 38.074219 L 60.535156 38.457031 L 60.277344 38.863281 C 60.066406 39.1875 59.859375 39.511719 59.652344 39.828125 L 61.902344 39.828125 C 61.910156 40.332031 61.910156 40.332031 61.671875 40.949219 C 61.03125 41.328125 60.355469 41.59375 59.652344 41.84375 C 60.597656 42.972656 61.59375 44.015625 62.65625 45.035156 C 62.972656 45.34375 63.292969 45.652344 63.609375 45.964844 C 64.105469 46.441406 64.597656 46.921875 65.09375 47.394531 C 68.8125 50.957031 68.8125 50.957031 69.546875 53.253906 C 69.832031 54.449219 69.730469 55.636719 69.546875 56.839844 C 69.097656 58.261719 68.421875 59.394531 67.328125 60.417969 C 66.152344 61.332031 64.957031 61.972656 63.472656 62.207031 C 62.816406 62.230469 62.160156 62.246094 61.503906 62.246094 L 60.90625 62.246094 C 60.261719 62.25 59.613281 62.25 58.964844 62.253906 L 57.609375 62.253906 C 56.660156 62.261719 55.714844 62.261719 54.765625 62.261719 C 53.558594 62.261719 52.34375 62.265625 51.136719 62.277344 C 50.203125 62.277344 49.265625 62.28125 48.332031 62.28125 C 47.886719 62.28125 47.441406 62.28125 46.996094 62.285156 C 44.542969 62.300781 42.40625 62.300781 40.140625 61.253906 C 38.808594 60.378906 37.9375 59.34375 37.152344 57.953125 C 36.566406 56.589844 36.582031 55.167969 36.703125 53.703125 C 36.953125 52.28125 37.613281 51.316406 38.503906 50.199219 C 39.199219 49.386719 39.957031 48.652344 40.734375 47.910156 C 41.074219 47.589844 41.40625 47.265625 41.738281 46.9375 C 42.261719 46.4375 42.78125 45.9375 43.308594 45.4375 C 43.816406 44.949219 44.324219 44.457031 44.828125 43.96875 L 45.308594 43.519531 C 45.707031 43.125 46.066406 42.761719 46.375 42.292969 C 46.402344 41.535156 46.402344 41.535156 46.152344 40.949219 L 47.050781 40.5 L 46.625 39.796875 L 46.066406 38.878906 L 45.785156 38.417969 C 45.691406 38.269531 45.605469 38.121094 45.511719 37.96875 L 45.261719 37.558594 C 45.015625 37.125 44.777344 36.703125 44.574219 36.25 C 44.628906 35.777344 44.628906 35.777344 44.800781 35.355469 L 45.25 34.90625 C 45.8125 34.957031 46.300781 35.105469 46.828125 35.308594 C 47.917969 35.714844 48.765625 35.890625 49.925781 35.714844 C 50.765625 35.488281 51.46875 35.109375 52.222656 34.683594 C 52.421875 32.234375 52.421875 32.234375 51.902344 29.886719 C 51.105469 28.625 49.988281 27.496094 48.902344 26.480469 L 48.625 26.183594 L 48.625 25.734375 L 47.824219 25.957031 C 45.78125 26.394531 43.703125 26.386719 41.691406 25.816406 C 39.644531 25.105469 37.984375 24.066406 36.484375 22.5 C 35.542969 21.332031 34.832031 20.050781 34.542969 18.574219 C 34.488281 18.046875 34.453125 17.535156 34.453125 17.003906 C 36.515625 16.253906 38.660156 16.125 40.828125 16.449219 C 42.90625 16.875 44.449219 17.609375 46.078125 18.949219 C 47.453125 20.21875 48.214844 21.691406 48.921875 23.394531 C 49.519531 24.765625 50.449219 25.640625 51.550781 26.628906 C 51.847656 26.925781 52.152344 27.222656 52.449219 27.519531 C 52.480469 26.328125 52.488281 25.136719 52.488281 23.941406 C 52.488281 23.535156 52.496094 23.128906 52.503906 22.730469 C 52.5625 20.746094 52.5625 20.746094 52.222656 18.796875 C 51.746094 17.933594 51.097656 17.328125 50.359375 16.683594 C 49.296875 15.691406 48.71875 14.371094 48.261719 13.003906 C 47.949219 11.222656 48 9.25 48.527344 7.527344 C 49.21875 5.722656 50.347656 4.199219 51.777344 2.910156 M 51.777344 4.921875 C 50.621094 6.300781 49.90625 7.875 49.527344 9.621094 C 49.371094 11.128906 49.625 12.472656 50.199219 13.875 C 50.535156 14.5 50.910156 15.082031 51.324219 15.660156 L 51.703125 16.222656 L 52 16.558594 L 52.449219 16.558594 L 52.675781 17.230469 L 53.347656 17.003906 C 53.609375 16.511719 53.84375 16 54.050781 15.484375 L 54.234375 15.058594 C 54.96875 13.292969 55.066406 11.753906 54.921875 9.84375 C 54.566406 8.109375 53.683594 6.78125 52.628906 5.375 L 52.222656 4.921875 Z M 63.332031 16 C 62.175781 16.765625 61.074219 17.613281 60.324219 18.796875 C 60.171875 19.269531 60.171875 19.269531 60.097656 19.691406 C 62.019531 20.714844 63.675781 21.160156 65.863281 21.113281 C 67.15625 20.980469 68.207031 20.566406 69.324219 19.917969 C 70.691406 18.902344 71.78125 17.765625 72.699219 16.332031 C 72.347656 16.152344 71.996094 15.96875 71.644531 15.792969 L 71.050781 15.484375 C 68.683594 14.433594 65.550781 14.730469 63.332031 16 M 36.027344 18.125 C 36.261719 19.53125 36.875 20.621094 37.753906 21.738281 C 38.921875 23 40.292969 23.738281 41.875 24.390625 C 42.527344 24.582031 43.105469 24.640625 43.78125 24.644531 L 44.355469 24.644531 L 44.941406 24.640625 L 45.535156 24.644531 L 46.621094 24.644531 C 47.066406 24.640625 47.066406 24.640625 47.5 24.390625 C 47.4375 23.207031 46.96875 22.355469 46.34375 21.375 C 45.515625 20.253906 44.5625 19.359375 43.308594 18.71875 C 41.796875 18.09375 40.480469 17.871094 38.839844 17.875 L 37.957031 17.871094 C 37.28125 17.894531 36.683594 17.96875 36.027344 18.125 M 51.4375 36.808594 C 49.925781 37.308594 48.394531 37.203125 46.824219 37.144531 C 47 37.457031 47.171875 37.769531 47.34375 38.082031 L 47.636719 38.609375 L 47.949219 39.160156 L 48.183594 39.738281 L 48.625 40.277344 C 49.316406 40.417969 49.890625 40.484375 50.589844 40.496094 L 51.175781 40.515625 C 51.589844 40.527344 52 40.53125 52.410156 40.535156 C 53.035156 40.542969 53.65625 40.574219 54.28125 40.609375 C 55.984375 40.660156 55.984375 40.660156 57.625 40.277344 C 58.636719 39.457031 59.160156 38.316406 59.652344 37.144531 L 59.199219 36.921875 L 58.75 37.144531 C 57.207031 37.269531 55.917969 37.167969 54.472656 36.625 C 53.386719 36.261719 52.488281 36.449219 51.4375 36.808594 M 48.175781 42.53125 C 47.875 42.816406 47.574219 43.113281 47.277344 43.410156 L 46.832031 43.828125 C 46.375 44.265625 45.921875 44.707031 45.472656 45.152344 L 44.972656 45.640625 C 44.628906 45.980469 44.285156 46.316406 43.941406 46.65625 C 43.597656 47 43.246094 47.34375 42.894531 47.6875 C 42.386719 48.1875 41.875 48.6875 41.371094 49.191406 L 40.894531 49.644531 C 39.738281 50.808594 38.609375 52.144531 38.128906 53.746094 C 37.96875 54.566406 37.933594 55.332031 38.050781 56.167969 C 38.449219 57.269531 38.972656 58.175781 39.75 59.0625 L 40.300781 59.519531 L 40.734375 59.902344 C 41.449219 60.347656 42.160156 60.605469 43.003906 60.683594 C 43.542969 60.699219 44.078125 60.703125 44.613281 60.703125 L 45.234375 60.707031 C 45.90625 60.707031 46.574219 60.707031 47.246094 60.707031 L 48.652344 60.714844 C 49.628906 60.714844 50.609375 60.714844 51.589844 60.714844 C 52.84375 60.707031 54.09375 60.714844 55.347656 60.71875 C 56.3125 60.722656 57.28125 60.722656 58.25 60.722656 C 58.707031 60.722656 59.171875 60.722656 59.636719 60.722656 C 60.28125 60.730469 60.925781 60.730469 61.574219 60.722656 L 62.144531 60.730469 C 63.410156 60.71875 64.34375 60.484375 65.5 59.96875 C 66.488281 59.269531 67.15625 58.5625 67.75 57.511719 C 68.230469 56.214844 68.34375 55.019531 68.121094 53.667969 C 67.511719 51.34375 65.253906 49.640625 63.621094 47.972656 C 63.09375 47.449219 62.566406 46.921875 62.042969 46.394531 C 61.683594 46.035156 61.324219 45.671875 60.964844 45.308594 C 60.4375 44.777344 59.910156 44.25 59.386719 43.722656 L 58.902344 43.230469 L 58.441406 42.777344 C 58.3125 42.644531 58.183594 42.515625 58.046875 42.375 C 57.53125 42 57.128906 41.921875 56.5 41.84375 C 55.449219 41.777344 54.394531 41.753906 53.34375 41.738281 C 53 41.734375 52.660156 41.722656 52.324219 41.714844 C 51.828125 41.699219 51.332031 41.6875 50.832031 41.683594 L 49.941406 41.660156 C 49.074219 41.84375 48.824219 41.972656 48.175781 42.53125 M 208.765625 15.6875 C 210.230469 16.394531 210.230469 16.394531 210.839844 17.003906 L 211.078125 16.347656 L 211.515625 15.660156 C 212.316406 15.453125 212.316406 15.453125 213.089844 15.4375 L 213.542969 15.660156 C 213.558594 17.410156 213.566406 19.160156 213.574219 20.910156 C 213.578125 21.722656 213.582031 22.535156 213.589844 23.347656 C 213.597656 24.128906 213.597656 24.917969 213.605469 25.703125 C 213.605469 26.144531 213.609375 26.589844 213.613281 27.03125 C 213.613281 28.550781 213.53125 29.722656 212.863281 31.105469 C 212.394531 31.871094 211.828125 32.46875 211.066406 32.957031 C 209.707031 33.667969 208.480469 33.859375 206.957031 33.832031 C 205.125 33.699219 203.609375 33.050781 202.042969 32.128906 C 201.613281 31.777344 201.613281 31.777344 201.40625 31.339844 C 201.390625 30.878906 201.390625 30.878906 201.613281 30.449219 L 201.9375 30.042969 L 202.261719 29.625 L 202.515625 29.3125 L 203.128906 29.597656 L 203.9375 29.96875 L 204.734375 30.339844 C 205.917969 30.871094 206.855469 31 208.140625 30.878906 C 208.859375 30.613281 209.324219 30.386719 209.847656 29.832031 C 210.261719 29.160156 210.328125 28.578125 210.433594 27.800781 C 210.46875 27.542969 210.503906 27.28125 210.542969 27.011719 L 210.613281 26.40625 L 210.199219 26.691406 L 209.644531 27.0625 L 209.097656 27.433594 C 208.265625 27.949219 207.546875 28.03125 206.578125 28.066406 C 205.144531 28.050781 204.121094 27.734375 202.875 27.035156 C 201.828125 26.308594 201.246094 25.488281 200.707031 24.347656 C 200.261719 23.171875 200.113281 22.0625 200.265625 20.8125 C 200.527344 19.417969 200.996094 18.277344 201.902344 17.175781 C 202.777344 16.296875 203.777344 15.71875 204.964844 15.355469 C 206.277344 15.09375 207.519531 15.191406 208.765625 15.6875 M 204.765625 18.574219 C 204.203125 19.042969 203.78125 19.503906 203.417969 20.140625 C 203.175781 20.90625 203.113281 21.578125 203.1875 22.375 C 203.480469 23.359375 203.921875 24.011719 204.667969 24.714844 C 205.246094 25.082031 205.707031 25.265625 206.390625 25.339844 C 207.339844 25.363281 208.152344 25.371094 209.011719 24.9375 C 209.699219 24.402344 210.074219 24.019531 210.453125 23.253906 C 210.734375 22.503906 210.902344 21.839844 210.839844 21.035156 C 210.589844 20.199219 210.207031 19.527344 209.605469 18.890625 C 209.058594 18.421875 208.597656 18.128906 207.917969 17.902344 C 206.652344 17.816406 205.84375 17.847656 204.765625 18.574219 "/>
<path style=" stroke:none;fill-rule:nonzero;fill:rgb(0%,0%,0%);fill-opacity:1;" d="M 98.109375 15.628906 C 98.8125 16.011719 99.375 16.4375 99.921875 17.003906 L 100.300781 16.730469 C 101.410156 15.949219 102.378906 15.34375 103.746094 15.21875 C 104.839844 15.1875 105.761719 15.363281 106.730469 15.875 C 107.5625 16.488281 108.027344 17.09375 108.46875 18.027344 C 108.988281 19.796875 108.808594 21.699219 108.765625 23.527344 C 108.761719 23.953125 108.753906 24.386719 108.75 24.816406 C 108.738281 25.871094 108.71875 26.921875 108.699219 27.96875 L 105.769531 27.96875 L 105.753906 27.25 C 105.738281 26.363281 105.71875 25.480469 105.699219 24.589844 C 105.691406 24.207031 105.683594 23.824219 105.675781 23.441406 C 105.667969 22.890625 105.652344 22.339844 105.640625 21.785156 L 105.628906 21.269531 C 105.605469 20.355469 105.519531 19.613281 105.09375 18.796875 C 104.734375 18.363281 104.734375 18.363281 104.199219 18.125 C 103.417969 18.015625 103.417969 18.015625 102.621094 18.125 C 101.984375 18.375 101.984375 18.375 101.496094 18.796875 C 101.214844 19.160156 101.214844 19.160156 101.046875 19.691406 C 100.996094 20.324219 100.964844 20.957031 100.953125 21.589844 L 100.9375 22.140625 C 100.925781 22.722656 100.917969 23.308594 100.90625 23.886719 C 100.894531 24.28125 100.890625 24.675781 100.878906 25.074219 C 100.859375 26.035156 100.839844 27.003906 100.824219 27.96875 L 97.894531 27.96875 L 97.886719 27.296875 C 97.863281 26.46875 97.847656 25.636719 97.824219 24.808594 C 97.816406 24.449219 97.808594 24.089844 97.800781 23.730469 C 97.792969 23.214844 97.777344 22.699219 97.765625 22.183594 L 97.753906 21.699219 C 97.730469 20.667969 97.5625 19.769531 97.222656 18.796875 C 96.878906 18.328125 96.878906 18.328125 96.324219 18.125 C 95.640625 18.050781 95.175781 18.003906 94.519531 18.125 C 93.859375 18.511719 93.859375 18.511719 93.394531 19.019531 C 93.074219 19.667969 93.125 20.25 93.109375 20.972656 L 93.09375 21.425781 C 93.082031 21.90625 93.074219 22.386719 93.058594 22.863281 C 93.046875 23.34375 93.035156 23.816406 93.019531 24.292969 C 93.011719 24.730469 93 25.160156 92.988281 25.597656 C 92.949219 26.402344 92.847656 27.175781 92.722656 27.96875 C 92.277344 27.980469 91.832031 27.980469 91.386719 27.984375 L 90.636719 27.996094 L 90.019531 27.96875 L 89.796875 27.746094 C 89.777344 27.378906 89.761719 27.011719 89.761719 26.640625 L 89.753906 25.925781 L 89.75 25.144531 L 89.75 24.355469 C 89.746094 23.796875 89.746094 23.246094 89.746094 22.6875 C 89.738281 21.832031 89.734375 20.984375 89.730469 20.128906 C 89.722656 19.59375 89.722656 19.058594 89.722656 18.515625 L 89.714844 17.738281 L 89.71875 17.019531 L 89.714844 16.390625 C 89.738281 16.222656 89.769531 16.058594 89.796875 15.886719 C 90.472656 15.4375 90.472656 15.4375 91.160156 15.371094 L 91.824219 15.4375 L 92.269531 16.109375 L 92.269531 16.78125 L 92.605469 16.550781 C 94.324219 15.417969 96.113281 14.761719 98.109375 15.628906 "/>
<path style=" stroke:none;fill-rule:nonzero;fill:rgb(0%,0%,0%);fill-opacity:1;" d="M 171.238281 9.84375 L 173.941406 9.84375 L 173.941406 16.78125 L 175.738281 15.660156 C 177.019531 15.265625 178.113281 15.125 179.441406 15.308594 C 180.699219 15.597656 181.769531 16.113281 182.734375 16.972656 C 183.566406 17.871094 184.15625 18.738281 184.515625 19.917969 C 184.75 21.222656 184.855469 22.457031 184.453125 23.738281 L 184.292969 24.167969 L 184.125 24.621094 C 183.652344 25.714844 183 26.449219 182.066406 27.191406 C 181.097656 27.863281 180.28125 28.144531 179.097656 28.265625 C 177.667969 28.316406 176.542969 28.203125 175.265625 27.542969 L 174.84375 27.300781 L 174.152344 26.90625 L 173.71875 26.628906 L 173.042969 27.96875 C 171.65625 27.996094 171.65625 27.996094 171.238281 27.96875 L 171.015625 27.746094 C 170.996094 27.199219 170.984375 26.652344 170.988281 26.105469 L 170.984375 25.582031 C 170.984375 25.011719 170.984375 24.4375 170.988281 23.863281 L 170.984375 22.683594 C 170.984375 21.847656 170.984375 21.019531 170.988281 20.1875 C 170.988281 19.125 170.988281 18.058594 170.984375 16.988281 C 170.984375 16.171875 170.984375 15.359375 170.984375 14.542969 C 170.984375 14.144531 170.984375 13.753906 170.984375 13.359375 C 170.984375 12.8125 170.984375 12.261719 170.988281 11.714844 L 170.984375 11.21875 C 170.988281 10.832031 171 10.453125 171.015625 10.066406 Z M 175.652344 18.511719 C 175.046875 18.988281 174.625 19.511719 174.167969 20.140625 C 173.859375 21.0625 173.78125 21.859375 173.941406 22.824219 C 174.40625 23.808594 174.996094 24.589844 175.828125 25.285156 C 176.625 25.589844 177.363281 25.753906 178.21875 25.734375 C 178.890625 25.613281 179.433594 25.417969 180.015625 25.0625 C 180.65625 24.464844 181.199219 23.832031 181.59375 23.046875 C 181.714844 22.03125 181.75 21.035156 181.402344 20.058594 C 181.035156 19.40625 180.65625 18.9375 180.050781 18.488281 C 179.308594 18.066406 178.609375 17.84375 177.753906 17.792969 C 176.886719 17.902344 176.375 18.046875 175.652344 18.511719 "/>
<path style=" stroke:none;fill-rule:nonzero;fill:rgb(0%,0%,0%);fill-opacity:1;" d="M 121.015625 15.816406 C 121.984375 16.296875 122.828125 16.863281 123.546875 17.675781 C 124.167969 18.671875 124.628906 19.6875 124.730469 20.859375 C 124.800781 23.46875 124.800781 23.46875 124.207031 24.722656 C 123.488281 25.921875 122.6875 26.863281 121.488281 27.59375 C 120.078125 28.261719 118.691406 28.328125 117.144531 28.28125 C 115.8125 28.140625 114.933594 27.714844 113.839844 26.96875 C 112.832031 26.183594 112.113281 25.316406 111.589844 24.15625 C 111.203125 22.824219 111.234375 21.503906 111.394531 20.140625 C 111.722656 18.875 112.390625 17.847656 113.28125 16.894531 C 114.191406 16.058594 115.105469 15.652344 116.292969 15.371094 C 117.917969 15.097656 119.480469 15.199219 121.015625 15.816406 M 115.800781 18.488281 C 115.105469 19.09375 114.644531 19.722656 114.324219 20.589844 C 114.183594 21.433594 114.183594 22.203125 114.324219 23.046875 C 114.71875 23.875 115.191406 24.359375 115.824219 25.019531 C 116.5 25.464844 116.800781 25.613281 117.566406 25.734375 C 118.28125 25.769531 118.71875 25.699219 119.425781 25.511719 C 120.328125 24.96875 120.910156 24.339844 121.519531 23.496094 C 121.886719 22.765625 121.832031 22.035156 121.824219 21.234375 C 121.722656 20.390625 121.46875 19.847656 120.96875 19.167969 C 120.394531 18.550781 119.855469 18.15625 119.046875 17.902344 C 117.847656 17.699219 116.816406 17.8125 115.800781 18.488281 M 151.078125 15.925781 C 152.027344 16.457031 152.644531 16.980469 153.246094 17.902344 C 154.050781 19.453125 154.140625 20.300781 154.140625 22.152344 L 144.691406 22.152344 C 145.355469 24.238281 145.355469 24.238281 146.199219 24.964844 C 147.140625 25.371094 147.9375 25.582031 148.96875 25.511719 C 150.097656 25.167969 151.125 24.578125 152.121094 23.941406 L 153.46875 25.511719 C 153.015625 26.40625 153.015625 26.40625 152.578125 26.769531 L 152.0625 27.105469 L 151.550781 27.441406 C 150.203125 28.183594 148.984375 28.292969 147.464844 28.261719 C 146.339844 28.160156 145.4375 27.886719 144.46875 27.300781 C 143.53125 26.566406 142.730469 25.777344 142.234375 24.683594 C 141.730469 23.121094 141.605469 21.644531 141.859375 20.015625 C 142.125 18.917969 142.546875 18.125 143.277344 17.261719 C 144.285156 16.207031 145.28125 15.65625 146.675781 15.261719 C 148.246094 15.167969 149.640625 15.265625 151.078125 15.925781 M 146.4375 18.058594 C 145.832031 18.5625 145.363281 19.042969 144.917969 19.691406 L 144.917969 20.140625 L 150.996094 20.140625 C 150.878906 19.089844 150.878906 19.089844 150.46875 18.671875 C 149.75 18.128906 149.75 18.128906 148.96875 17.675781 C 147.917969 17.589844 147.378906 17.566406 146.4375 18.058594 "/>
<path style=" stroke:none;fill-rule:nonzero;fill:rgb(0%,0%,0%);fill-opacity:1;" d="M 195.542969 15.886719 C 196.121094 16.21875 196.421875 16.503906 196.890625 17.003906 C 197.582031 18.292969 197.65625 19.339844 197.628906 20.78125 L 197.628906 21.40625 C 197.625 22.0625 197.613281 22.714844 197.609375 23.371094 C 197.605469 23.816406 197.597656 24.261719 197.597656 24.707031 C 197.589844 25.796875 197.578125 26.878906 197.566406 27.96875 L 195.542969 27.96875 L 195.089844 26.855469 C 194.535156 27.113281 194.015625 27.421875 193.515625 27.777344 C 192.769531 28.199219 192.136719 28.277344 191.28125 28.308594 C 190.214844 28.265625 189.402344 28.105469 188.480469 27.574219 C 187.808594 27.066406 187.363281 26.480469 186.988281 25.734375 C 186.890625 24.746094 186.839844 23.746094 187.144531 22.792969 C 187.480469 22.152344 187.917969 21.683594 188.4375 21.1875 C 189.644531 20.621094 190.839844 20.425781 192.167969 20.363281 C 193.011719 20.449219 193.816406 20.597656 194.640625 20.8125 C 194.582031 20.488281 194.519531 20.167969 194.457031 19.84375 L 194.355469 19.300781 C 194.21875 18.785156 194.21875 18.785156 193.878906 18.410156 C 193.496094 18.078125 193.496094 18.078125 192.839844 17.902344 C 191.308594 17.765625 189.839844 18.035156 188.339844 18.347656 C 187.886719 17.515625 187.667969 17.078125 187.667969 16.109375 C 190.296875 15.144531 192.890625 14.785156 195.542969 15.886719 M 190.753906 22.800781 C 190.332031 23.09375 190.332031 23.09375 189.917969 23.71875 C 189.746094 24.402344 189.746094 24.402344 189.917969 25.0625 C 190.09375 25.613281 190.09375 25.613281 190.589844 25.957031 C 191.277344 26.167969 191.902344 26.230469 192.613281 26.183594 C 193.410156 25.796875 193.84375 25.441406 194.386719 24.753906 C 194.683594 24.0625 194.707031 23.566406 194.640625 22.824219 L 194.417969 22.597656 C 192.550781 22.417969 192.550781 22.417969 190.753906 22.800781 "/>
<path style=" stroke:none;fill-rule:nonzero;fill:rgb(0%,0%,0%);fill-opacity:1;" d="M 136.144531 15.4375 C 137.136719 15.953125 137.753906 16.546875 138.394531 17.453125 C 138.988281 18.421875 139.0625 19.433594 139.097656 20.558594 C 139.097656 20.875 139.097656 21.199219 139.097656 21.519531 L 139.097656 22.035156 C 139.097656 22.394531 139.097656 22.753906 139.097656 23.113281 C 139.097656 23.667969 139.097656 24.214844 139.097656 24.765625 C 139.097656 25.113281 139.097656 25.464844 139.097656 25.8125 L 139.097656 26.3125 C 139.09375 27.472656 139.09375 27.472656 138.84375 27.96875 L 136.144531 27.96875 L 136.128906 27.316406 C 136.113281 26.511719 136.09375 25.707031 136.074219 24.902344 C 136.0625 24.550781 136.058594 24.207031 136.046875 23.859375 C 136.035156 23.359375 136.027344 22.855469 136.011719 22.355469 L 136.003906 21.890625 C 135.972656 20.871094 135.796875 19.984375 135.46875 19.019531 C 135.171875 18.59375 135.171875 18.59375 134.796875 18.347656 C 133.980469 18.078125 133.402344 18.050781 132.546875 18.125 C 131.78125 18.457031 131.78125 18.457031 131.191406 19.019531 C 130.746094 20.058594 130.671875 21.042969 130.652344 22.15625 L 130.640625 22.667969 C 130.625 23.191406 130.613281 23.722656 130.605469 24.25 L 130.578125 25.332031 C 130.558594 26.214844 130.535156 27.09375 130.519531 27.96875 L 127.59375 27.96875 C 127.589844 26.222656 127.582031 24.472656 127.582031 22.722656 C 127.582031 22.128906 127.578125 21.535156 127.578125 20.9375 C 127.574219 20.082031 127.574219 19.230469 127.574219 18.378906 L 127.566406 17.566406 L 127.566406 16.15625 L 127.59375 15.660156 L 127.816406 15.4375 C 128.578125 15.371094 128.578125 15.371094 129.394531 15.4375 C 129.828125 15.84375 129.828125 15.84375 130.066406 16.332031 L 130.066406 17.003906 L 130.449219 16.730469 C 131.402344 16.0625 132.265625 15.480469 133.421875 15.253906 C 134.355469 15.175781 135.234375 15.230469 136.144531 15.4375 M 156.167969 15.4375 C 156.558594 15.390625 156.941406 15.355469 157.332031 15.328125 L 157.988281 15.265625 L 158.640625 15.4375 C 159.761719 16.65625 160.371094 18.425781 161.0625 19.902344 C 161.28125 20.363281 161.5 20.828125 161.71875 21.292969 L 162.003906 21.90625 C 162.203125 22.363281 162.203125 22.363281 162.46875 22.597656 L 162.683594 22.089844 C 163 21.316406 163.324219 20.546875 163.652344 19.777344 L 163.984375 18.96875 L 164.3125 18.1875 L 164.613281 17.46875 C 164.964844 16.734375 165.355469 16.089844 165.84375 15.4375 C 166.40625 15.300781 166.40625 15.300781 166.996094 15.34375 L 167.589844 15.371094 C 168.09375 15.4375 168.09375 15.4375 168.542969 15.660156 C 168.40625 16.488281 168.171875 17.171875 167.816406 17.925781 L 167.496094 18.609375 C 167.378906 18.847656 167.265625 19.09375 167.152344 19.34375 L 166.792969 20.109375 C 166.53125 20.65625 166.277344 21.203125 166.019531 21.746094 C 165.613281 22.609375 165.207031 23.480469 164.800781 24.34375 C 164.265625 25.488281 163.730469 26.628906 163.191406 27.769531 C 162.753906 28.703125 162.316406 29.636719 161.886719 30.566406 L 161.628906 31.109375 C 161.480469 31.433594 161.332031 31.75 161.1875 32.066406 C 160.910156 32.65625 160.683594 33.097656 160.21875 33.5625 C 159.628906 33.609375 159.628906 33.609375 158.953125 33.59375 L 158.265625 33.578125 L 157.746094 33.5625 L 157.515625 32.894531 C 157.785156 32.246094 157.785156 32.246094 158.203125 31.457031 L 158.640625 30.59375 C 158.871094 30.140625 159.109375 29.691406 159.34375 29.238281 C 159.574219 28.808594 159.792969 28.371094 160.015625 27.933594 L 160.425781 27.140625 C 160.730469 26.425781 160.730469 26.425781 160.535156 25.75 C 160.15625 24.925781 159.765625 24.113281 159.355469 23.308594 L 159.097656 22.808594 C 158.839844 22.285156 158.574219 21.765625 158.308594 21.246094 C 158.042969 20.722656 157.777344 20.199219 157.511719 19.675781 C 157.34375 19.355469 157.183594 19.03125 157.015625 18.707031 C 156.214844 17.128906 156.214844 17.128906 155.941406 16.332031 C 156.027344 15.816406 156.027344 15.816406 156.167969 15.4375 "/>
<path style=" stroke:none;fill-rule:nonzero;fill:rgb(0%,0%,0%);fill-opacity:1;" d="M 52.449219 44.980469 L 53.800781 44.980469 L 53.910156 45.71875 L 54.25 46.542969 C 54.824219 46.878906 55.40625 47.058594 56.046875 47.214844 C 55.980469 47.515625 55.90625 47.8125 55.824219 48.109375 L 55.597656 48.332031 C 54.996094 48.296875 54.402344 48.199219 53.800781 48.109375 C 53.761719 48.96875 53.785156 49.746094 54.027344 50.574219 C 54.515625 51.050781 54.988281 51.34375 55.59375 51.660156 L 56.046875 51.910156 C 56.394531 52.609375 56.359375 53.277344 56.355469 54.042969 C 56.277344 54.597656 56.277344 54.597656 55.753906 55.269531 C 55.332031 55.578125 54.910156 55.878906 54.472656 56.167969 L 53.800781 56.167969 L 53.800781 57.511719 L 52.449219 57.511719 L 52.222656 56.390625 L 50.199219 55.71875 L 49.972656 54.597656 L 50.652344 54.152344 C 51.277344 54.222656 51.839844 54.421875 52.449219 54.597656 C 52.457031 53.753906 52.433594 52.957031 52.222656 52.136719 C 51.734375 51.652344 51.308594 51.511719 50.652344 51.246094 C 50.265625 50.964844 50.265625 50.964844 49.972656 50.574219 C 49.832031 49.746094 49.863281 48.941406 49.972656 48.109375 C 50.339844 47.425781 50.339844 47.425781 50.875 46.988281 C 51.605469 46.699219 51.605469 46.699219 52.222656 46.542969 Z M 51.777344 48.332031 L 51.324219 48.78125 C 51.285156 49.359375 51.285156 49.359375 51.324219 49.902344 L 52.449219 50.125 L 52.449219 48.332031 Z M 53.800781 52.582031 L 53.800781 54.597656 L 54.699219 54.152344 L 54.699219 52.808594 Z M 53.800781 52.582031 "/>
<path style=" stroke:none;fill-rule:nonzero;fill:rgb(0%,0%,0%);fill-opacity:1;" d="M 145.59375 36.472656 L 146.269531 36.472656 L 146.269531 45.425781 L 145.59375 44.980469 C 145.175781 45.042969 145.175781 45.042969 144.691406 45.203125 C 143.921875 45.371094 143.921875 45.371094 143.121094 45.425781 C 142.363281 45.125 142.003906 44.765625 141.457031 44.167969 C 141.105469 43.433594 141.035156 43.167969 141.078125 42.390625 C 141.207031 41.597656 141.332031 41.375 141.871094 40.722656 C 142.441406 40.277344 142.441406 40.277344 142.894531 40.050781 C 143.527344 40 143.527344 40 144.246094 40.050781 L 145.371094 40.722656 Z M 142.722656 40.949219 C 142.160156 41.386719 142.160156 41.386719 141.894531 42.152344 C 141.71875 42.9375 141.71875 42.9375 141.921875 43.59375 C 142.207031 44.144531 142.207031 44.144531 142.894531 44.53125 C 143.660156 44.660156 143.660156 44.660156 144.46875 44.53125 C 145.15625 44.089844 145.15625 44.089844 145.59375 43.410156 C 145.761719 42.738281 145.761719 42.738281 145.59375 42.066406 C 145.253906 41.417969 145.253906 41.417969 144.691406 40.949219 C 143.902344 40.683594 143.511719 40.667969 142.722656 40.949219 M 175.292969 36.472656 L 175.96875 36.472656 L 176.191406 40.722656 L 177.316406 40.050781 C 177.980469 39.957031 177.980469 39.957031 178.667969 40.050781 C 179.347656 40.421875 179.855469 40.738281 180.328125 41.355469 C 180.53125 42.074219 180.53125 42.667969 180.46875 43.410156 C 180.125 44.125 179.734375 44.703125 179.113281 45.203125 C 178.589844 45.28125 178.589844 45.28125 178.003906 45.269531 L 177.421875 45.269531 C 176.84375 45.199219 176.46875 45.042969 175.96875 44.753906 L 175.96875 45.203125 L 175.292969 45.425781 Z M 176.921875 41.003906 C 176.371094 41.390625 176.371094 41.390625 175.96875 42.066406 C 175.832031 42.71875 175.832031 42.71875 175.96875 43.410156 C 176.402344 44.089844 176.402344 44.089844 177.09375 44.53125 C 177.878906 44.734375 177.878906 44.734375 178.667969 44.53125 C 179.375 43.972656 179.375 43.972656 179.792969 43.1875 C 179.792969 42.433594 179.644531 41.996094 179.296875 41.328125 C 178.894531 40.902344 178.894531 40.902344 178.246094 40.738281 C 177.535156 40.675781 177.535156 40.675781 176.921875 41.003906 M 106.21875 40.050781 L 106.894531 40.277344 L 106.894531 40.722656 L 107.484375 40.390625 C 108.246094 40.050781 108.246094 40.050781 108.921875 39.957031 C 109.59375 40.050781 109.59375 40.050781 110.328125 40.449219 C 110.949219 40.949219 110.949219 40.949219 111.253906 41.355469 C 111.464844 42.074219 111.457031 42.667969 111.394531 43.410156 C 111.140625 44.140625 111.140625 44.140625 110.71875 44.753906 C 110.105469 45.1875 110.105469 45.1875 109.371094 45.425781 C 108.542969 45.386719 108.542969 45.386719 107.796875 45.203125 L 107.121094 44.753906 L 106.894531 48.109375 L 106.21875 48.109375 Z M 107.722656 41.0625 C 107.0625 41.582031 107.0625 41.582031 106.878906 42.390625 C 106.84375 43.183594 106.84375 43.183594 107.191406 43.828125 C 107.53125 44.328125 107.53125 44.328125 108.019531 44.53125 C 108.792969 44.625 108.792969 44.625 109.59375 44.53125 C 110.160156 44.207031 110.160156 44.207031 110.496094 43.636719 C 110.761719 42.871094 110.761719 42.871094 110.71875 42.066406 C 110.40625 41.402344 110.40625 41.402344 109.824219 40.949219 C 108.933594 40.625 108.59375 40.671875 107.722656 41.0625 M 100.824219 40.050781 C 101.46875 40.277344 101.46875 40.277344 101.949219 40.5 L 102.171875 40.050781 L 102.847656 40.277344 L 102.847656 45.425781 L 101.496094 44.980469 C 101.121094 45.121094 100.746094 45.265625 100.371094 45.425781 C 99.582031 45.390625 99.097656 45.238281 98.402344 44.863281 C 97.902344 44.308594 97.753906 44.03125 97.558594 43.328125 C 97.421875 42.566406 97.449219 42.292969 97.714844 41.535156 C 98.332031 40.640625 98.332031 40.640625 98.796875 40.277344 C 99.535156 40.03125 100.046875 40.011719 100.824219 40.050781 M 99.191406 40.894531 C 98.730469 41.183594 98.730469 41.183594 98.347656 41.84375 C 98.28125 42.5 98.246094 42.996094 98.347656 43.636719 C 98.644531 44.230469 98.644531 44.230469 99.246094 44.53125 C 99.875 44.652344 100.421875 44.652344 101.046875 44.53125 C 101.644531 44.230469 101.644531 44.230469 101.949219 43.636719 C 102.066406 43.011719 102.074219 42.46875 101.949219 41.84375 C 101.613281 41.269531 101.613281 41.269531 101.046875 40.949219 C 100.332031 40.746094 99.894531 40.660156 99.191406 40.894531 M 127.144531 40.050781 L 127.75 40.308594 L 128.269531 40.5 L 128.941406 40.050781 L 129.171875 40.277344 C 129.1875 40.644531 129.191406 41.011719 129.191406 41.375 L 129.1875 42.046875 L 129.183594 42.753906 L 129.183594 43.464844 C 129.175781 44.042969 129.171875 44.621094 129.171875 45.203125 L 128.53125 45.074219 C 127.832031 44.917969 127.832031 44.917969 127.253906 45.203125 C 126.691406 45.425781 126.691406 45.425781 126.019531 45.410156 C 125.34375 45.203125 125.34375 45.203125 124.714844 44.640625 L 124.21875 44.082031 L 123.996094 43.859375 C 123.894531 43.097656 123.890625 42.375 123.996094 41.621094 C 124.308594 41.027344 124.605469 40.738281 125.121094 40.277344 C 125.859375 40.03125 126.371094 40.011719 127.144531 40.050781 M 126.019531 40.722656 C 125.378906 41.105469 125.378906 41.105469 124.894531 41.621094 C 124.636719 42.078125 124.636719 42.078125 124.582031 42.699219 C 124.613281 43.441406 124.613281 43.441406 125.136719 44.050781 C 125.769531 44.589844 125.769531 44.589844 126.597656 44.65625 C 127.363281 44.578125 127.363281 44.578125 127.917969 44.191406 C 128.277344 43.625 128.34375 43.386719 128.378906 42.738281 C 128.371094 42.277344 128.371094 42.277344 128.269531 41.84375 C 127.9375 41.269531 127.9375 41.269531 127.371094 40.949219 C 126.71875 40.6875 126.71875 40.6875 126.019531 40.722656 "/>
<path style=" stroke:none;fill-rule:nonzero;fill:rgb(0%,0%,0%);fill-opacity:1;" d="M 77.875 21.261719 L 78.546875 21.480469 L 78.816406 22.222656 C 78.964844 22.65625 78.964844 22.65625 79.222656 23.046875 C 79.792969 23.4375 80.378906 23.699219 81.019531 23.941406 L 81.019531 24.390625 C 79.730469 25.0625 79.730469 25.0625 79.222656 25.0625 L 79.027344 25.691406 C 78.769531 26.40625 78.769531 26.40625 78.324219 27.078125 L 77.875 27.078125 L 77.605469 26.347656 C 77.332031 25.707031 77.15625 25.46875 76.621094 24.980469 C 76.105469 24.613281 76.105469 24.613281 75.625 24.390625 L 75.847656 23.71875 L 76.496094 23.328125 C 77.1875 22.902344 77.1875 22.902344 77.4375 22.417969 C 77.597656 22.035156 77.738281 21.644531 77.875 21.261719 "/>
<path style=" stroke:none;fill-rule:nonzero;fill:rgb(0%,0%,0%);fill-opacity:1;" d="M 37.152344 7.832031 L 37.828125 8.058594 L 37.996094 8.558594 C 38.222656 9.175781 38.222656 9.175781 38.652344 9.480469 C 38.9375 9.671875 39.230469 9.859375 39.519531 10.042969 L 39.847656 10.292969 L 39.847656 10.738281 L 39.105469 10.980469 C 38.667969 11.144531 38.667969 11.144531 38.277344 11.410156 C 37.941406 11.925781 37.792969 12.386719 37.597656 12.980469 L 36.925781 12.753906 L 36.628906 12.109375 L 36.25 11.410156 C 35.5625 10.984375 35.5625 10.984375 34.902344 10.738281 L 35.125 10.066406 L 35.769531 9.660156 C 36.519531 9.21875 36.519531 9.21875 36.894531 8.449219 Z M 203.863281 40.050781 C 204.550781 40.417969 205.042969 40.734375 205.527344 41.339844 C 205.738281 42.121094 205.816406 42.84375 205.667969 43.636719 C 205.34375 44.1875 205.003906 44.527344 204.542969 44.980469 C 203.890625 45.300781 203.308594 45.285156 202.589844 45.28125 C 202.0625 45.203125 202.0625 45.203125 201.640625 44.96875 C 201.15625 44.566406 200.769531 44.199219 200.488281 43.636719 C 200.394531 42.949219 200.386719 42.308594 200.488281 41.621094 C 200.800781 41.035156 201.121094 40.738281 201.613281 40.277344 C 202.433594 40.011719 203.011719 39.984375 203.863281 40.050781 M 202.515625 40.722656 C 201.859375 41.097656 201.859375 41.097656 201.390625 41.621094 C 201.128906 42.078125 201.128906 42.078125 201.082031 42.699219 C 201.109375 43.441406 201.109375 43.441406 201.628906 44.050781 C 202.265625 44.589844 202.265625 44.589844 203.09375 44.65625 C 203.859375 44.582031 203.859375 44.582031 204.402344 44.183594 C 204.808594 43.628906 204.808594 43.628906 204.988281 42.863281 C 205.050781 42.0625 205.050781 42.0625 204.652344 41.425781 C 204.105469 40.894531 204.105469 40.894531 203.316406 40.714844 Z M 209.042969 40.050781 L 209.488281 40.050781 L 209.714844 40.5 L 210.078125 40.277344 C 210.769531 39.988281 211.222656 39.964844 211.964844 40.050781 C 212.558594 40.371094 212.558594 40.371094 213.089844 40.949219 C 213.261719 41.675781 213.265625 42.390625 213.269531 43.128906 L 213.292969 43.734375 C 213.300781 44.222656 213.3125 44.714844 213.3125 45.203125 L 212.417969 45.203125 L 212.1875 40.949219 C 210.765625 41.050781 210.765625 41.050781 210.1875 41.417969 C 209.796875 42.09375 209.8125 42.800781 209.785156 43.5625 L 209.761719 44.042969 C 209.746094 44.425781 209.730469 44.8125 209.714844 45.203125 L 208.8125 45.203125 C 208.808594 44.386719 208.800781 43.566406 208.800781 42.753906 L 208.796875 42.046875 L 208.792969 41.375 L 208.785156 40.753906 L 208.8125 40.277344 Z M 183.613281 40.050781 L 184.292969 40.050781 L 184.332031 40.871094 L 184.390625 41.925781 L 184.417969 42.46875 C 184.449219 43.417969 184.449219 43.417969 184.738281 44.308594 C 185.386719 44.359375 185.386719 44.359375 186.089844 44.308594 C 186.496094 44.09375 186.496094 44.09375 186.765625 43.636719 C 186.886719 43.027344 186.972656 42.417969 187.03125 41.800781 L 187.089844 41.292969 C 187.136719 40.878906 187.175781 40.46875 187.214844 40.050781 L 187.890625 40.050781 L 187.890625 45.425781 L 186.542969 44.980469 L 185.863281 45.425781 C 185.203125 45.394531 185.203125 45.394531 184.515625 45.203125 C 184.027344 44.878906 184.027344 44.878906 183.613281 44.308594 C 183.503906 43.578125 183.53125 42.859375 183.5625 42.125 L 183.574219 41.519531 C 183.582031 41.03125 183.597656 40.542969 183.613281 40.050781 M 93.171875 40.050781 C 93.917969 40.433594 93.917969 40.433594 94.519531 40.949219 C 94.71875 41.5625 94.71875 41.5625 94.746094 42.066406 C 94.222656 41.816406 93.78125 41.574219 93.3125 41.230469 L 92.722656 40.949219 C 92 41.078125 92 41.078125 91.371094 41.394531 L 90.921875 41.84375 C 90.808594 42.609375 90.808594 42.609375 90.921875 43.410156 C 91.253906 43.984375 91.253906 43.984375 91.824219 44.308594 C 92.488281 44.453125 92.488281 44.453125 93.171875 44.308594 C 93.785156 43.875 93.785156 43.875 94.296875 43.410156 L 94.746094 43.410156 C 94.691406 43.925781 94.691406 43.925781 94.519531 44.53125 C 94.15625 44.921875 94.15625 44.921875 93.621094 45.203125 C 92.863281 45.394531 92.863281 45.394531 92.046875 45.425781 C 91.3125 45.15625 90.839844 44.894531 90.292969 44.347656 C 89.9375 43.703125 89.828125 43.25 89.796875 42.515625 C 90.050781 41.761719 90.308594 41.152344 90.808594 40.53125 C 91.546875 39.980469 92.285156 39.96875 93.171875 40.050781 M 155.378906 39.96875 C 156.167969 40.050781 156.167969 40.050781 156.71875 40.347656 L 157.066406 40.722656 L 157.066406 41.394531 L 156.589844 41.171875 C 155.886719 40.925781 155.332031 40.917969 154.59375 40.949219 L 154.59375 41.84375 L 155.125 42.027344 L 155.816406 42.265625 L 156.503906 42.5 L 157.066406 42.738281 C 157.292969 43.1875 157.292969 43.1875 157.375 43.828125 L 157.292969 44.53125 C 156.859375 45.074219 156.859375 45.074219 156.167969 45.425781 C 155.464844 45.464844 154.816406 45.410156 154.140625 45.203125 C 153.746094 44.894531 153.746094 44.894531 153.46875 44.53125 L 153.46875 43.859375 C 153.890625 43.941406 153.890625 43.941406 154.371094 44.082031 L 154.816406 44.53125 C 155.511719 44.566406 155.511719 44.566406 156.167969 44.53125 L 156.621094 43.410156 L 156.15625 43.296875 C 155.269531 43.058594 154.519531 42.847656 153.765625 42.316406 L 153.46875 41.84375 C 153.46875 41.269531 153.46875 41.269531 153.691406 40.722656 C 154.238281 40.121094 154.558594 40.058594 155.378906 39.96875 M 158.589844 53.371094 C 158.90625 53.417969 159.222656 53.453125 159.542969 53.480469 L 159.765625 53.253906 C 160.542969 53.3125 160.542969 53.3125 161.34375 53.480469 L 161.792969 54.152344 C 161.839844 54.855469 161.839844 54.855469 161.824219 55.644531 L 161.808594 56.449219 L 161.792969 57.0625 L 161.121094 57.0625 L 161.078125 56.488281 L 161.019531 55.746094 C 161 55.5 160.984375 55.261719 160.964844 55.003906 C 160.933594 54.386719 160.933594 54.386719 160.667969 53.925781 L 159.542969 54.375 L 159.316406 57.0625 L 158.640625 56.839844 L 158.417969 53.925781 L 157.292969 54.152344 C 157.003906 54.722656 156.996094 55.21875 156.941406 55.859375 L 156.886719 56.535156 L 156.84375 57.0625 L 156.390625 57.0625 L 156.390625 53.480469 C 157.308594 53.296875 157.722656 53.238281 158.589844 53.371094 M 70.449219 36.25 C 70.828125 36.625 71.203125 37.003906 71.574219 37.386719 C 72.03125 37.855469 72.03125 37.855469 72.699219 38.265625 L 72.472656 38.9375 L 71.925781 39.246094 L 71.347656 39.609375 C 71.046875 40.183594 71.046875 40.183594 70.902344 40.722656 L 70.222656 40.5 L 69.925781 39.984375 C 69.464844 39.25 68.9375 38.925781 68.199219 38.488281 C 68.652344 38.042969 68.652344 38.042969 69.199219 37.746094 C 69.84375 37.324219 70.097656 36.933594 70.449219 36.25 M 27.472656 28.417969 L 27.925781 28.417969 L 28.175781 29.03125 C 28.660156 29.859375 29.128906 30.183594 29.953125 30.65625 L 29.441406 31.019531 C 28.785156 31.582031 28.378906 32.160156 27.925781 32.894531 L 27.25 32.671875 L 26.941406 32.140625 C 26.609375 31.511719 26.609375 31.511719 25.972656 31.144531 L 25.453125 30.878906 C 25.824219 30.503906 26.203125 30.136719 26.589844 29.777344 C 27.003906 29.339844 27.238281 28.96875 27.472656 28.417969 M 85.519531 53.253906 L 85.972656 53.253906 C 86.125 53.582031 86.269531 53.90625 86.421875 54.234375 L 86.675781 54.785156 C 86.875 55.269531 86.875 55.269531 86.875 55.71875 L 87.324219 55.71875 L 87.996094 53.480469 L 88.671875 53.480469 L 89.347656 55.496094 C 89.800781 55.046875 90 54.691406 90.277344 54.125 L 90.515625 53.628906 L 90.699219 53.253906 L 91.144531 53.703125 L 89.574219 57.285156 L 89.121094 57.0625 C 88.921875 56.546875 88.777344 56.027344 88.625 55.5 L 88.449219 55.046875 L 87.996094 54.824219 L 87.921875 55.253906 L 87.8125 55.816406 L 87.714844 56.375 L 87.546875 56.839844 L 86.875 57.0625 C 86.644531 56.550781 86.421875 56.046875 86.199219 55.535156 L 86 55.097656 C 85.71875 54.449219 85.519531 53.972656 85.519531 53.253906 M 160.890625 38.042969 L 161.566406 38.042969 L 161.566406 40.050781 L 162.917969 40.050781 L 162.917969 40.722656 L 162.015625 40.949219 C 161.792969 42.359375 161.675781 43.777344 161.566406 45.203125 L 160.890625 45.203125 L 160.890625 40.722656 L 159.542969 40.722656 L 159.542969 40.277344 L 160.890625 40.050781 Z M 112.496094 53.15625 L 113.199219 53.253906 C 113.84375 53.761719 113.84375 53.761719 114.324219 54.375 L 114.324219 55.269531 L 111.621094 55.269531 L 111.84375 56.167969 C 112.355469 56.324219 112.355469 56.324219 112.96875 56.390625 C 113.589844 56.199219 113.589844 56.199219 114.09375 55.941406 L 114.09375 56.613281 C 113.421875 57.0625 113.421875 57.0625 112.644531 57.128906 C 111.84375 57.0625 111.84375 57.0625 111.3125 56.839844 C 110.917969 56.355469 110.847656 56.113281 110.75 55.511719 C 110.703125 54.941406 110.71875 54.613281 110.890625 54.066406 C 111.347656 53.472656 111.753906 53.269531 112.496094 53.15625 M 111.84375 53.925781 L 111.84375 54.824219 L 113.421875 54.824219 L 113.199219 53.925781 Z M 165.84375 53.253906 C 166.613281 53.269531 166.613281 53.269531 167.417969 53.480469 C 167.980469 54.011719 167.980469 54.011719 168.316406 54.597656 L 168.09375 55.269531 L 165.390625 55.496094 L 165.621094 56.167969 C 166.125 56.324219 166.125 56.324219 166.746094 56.390625 C 167.359375 56.199219 167.359375 56.199219 167.871094 55.941406 L 167.871094 56.613281 C 167.191406 57.0625 167.191406 57.0625 166.417969 57.144531 C 165.621094 57.0625 165.621094 57.0625 165.082031 56.699219 C 164.71875 56.167969 164.71875 56.167969 164.503906 55.511719 C 164.496094 54.824219 164.496094 54.824219 164.777344 54.207031 C 165.167969 53.703125 165.167969 53.703125 165.84375 53.253906 M 165.621094 53.925781 L 165.621094 54.824219 L 167.191406 54.824219 L 167.191406 53.925781 C 166.515625 53.71875 166.324219 53.691406 165.621094 53.925781 M 171.917969 53.253906 C 172.550781 53.171875 172.550781 53.171875 173.265625 53.253906 C 173.902344 53.644531 173.902344 53.644531 174.390625 54.152344 C 174.574219 54.65625 174.574219 54.65625 174.613281 55.046875 C 173.964844 55.222656 173.324219 55.328125 172.644531 55.394531 L 172.105469 55.453125 L 171.691406 55.496094 L 171.917969 56.167969 C 172.425781 56.324219 172.425781 56.324219 173.042969 56.390625 C 173.660156 56.199219 173.660156 56.199219 174.167969 55.941406 L 174.167969 56.613281 C 173.488281 57.0625 173.488281 57.0625 172.71875 57.144531 C 171.917969 57.0625 171.917969 57.0625 171.378906 56.699219 C 171.015625 56.167969 171.015625 56.167969 170.808594 55.511719 C 170.792969 54.824219 170.792969 54.824219 171.089844 54.207031 C 171.46875 53.703125 171.46875 53.703125 171.917969 53.253906 M 171.917969 53.925781 L 171.917969 54.824219 L 173.488281 54.824219 L 173.71875 54.375 C 173.40625 54.03125 173.40625 54.03125 173.042969 53.703125 C 172.546875 53.683594 172.546875 53.683594 171.917969 53.925781 "/>
<path style=" stroke:none;fill-rule:nonzero;fill:rgb(0%,0%,0%);fill-opacity:1;" d="M 94.074219 51.246094 L 94.519531 51.246094 L 94.519531 53.703125 L 95.199219 53.253906 C 95.886719 53.296875 95.886719 53.296875 96.546875 53.480469 L 96.996094 54.152344 C 97.042969 54.855469 97.042969 54.855469 97.027344 55.644531 L 97.011719 56.449219 L 96.996094 57.0625 L 96.324219 57.0625 L 96.097656 54.152344 L 94.972656 54.152344 L 94.746094 54.375 C 94.691406 54.828125 94.652344 55.28125 94.621094 55.734375 L 94.5625 56.480469 L 94.519531 57.0625 L 93.847656 56.839844 C 93.839844 55.949219 93.839844 55.058594 93.832031 54.167969 L 93.828125 53.394531 L 93.824219 52.660156 L 93.824219 51.984375 L 93.847656 51.46875 Z M 94.074219 51.246094 "/>
<path style=" stroke:none;fill-rule:nonzero;fill:rgb(0%,0%,0%);fill-opacity:1;" d="M 101.496094 53.113281 C 102.171875 53.253906 102.171875 53.253906 102.800781 53.644531 C 103.296875 54.152344 103.296875 54.152344 103.496094 54.640625 L 103.519531 55.046875 L 103.296875 55.269531 C 102.84375 55.324219 102.386719 55.363281 101.933594 55.394531 L 101.175781 55.453125 L 100.597656 55.496094 L 100.824219 56.167969 C 101.332031 56.324219 101.332031 56.324219 101.949219 56.390625 C 102.566406 56.199219 102.566406 56.199219 103.074219 55.941406 L 103.074219 56.613281 C 102.394531 57.0625 102.394531 57.0625 101.625 57.144531 C 100.824219 57.0625 100.824219 57.0625 100.285156 56.714844 C 99.921875 56.167969 99.921875 56.167969 99.683594 55.410156 C 99.699219 54.597656 99.699219 54.597656 99.890625 54.199219 C 100.359375 53.5625 100.71875 53.277344 101.496094 53.113281 M 101.496094 53.703125 C 101 53.894531 101 53.894531 100.597656 54.152344 L 100.597656 54.824219 L 102.394531 54.824219 L 102.394531 53.925781 C 101.988281 53.769531 101.988281 53.769531 101.496094 53.703125 M 119.496094 38.042969 L 120.171875 38.042969 L 120.171875 40.050781 L 121.519531 40.050781 L 121.519531 40.722656 L 120.394531 40.949219 L 120.171875 45.203125 L 119.496094 45.203125 L 119.496094 40.722656 L 118.144531 40.722656 L 118.371094 40.050781 L 119.496094 40.050781 Z M 191.714844 38.042969 L 192.390625 38.265625 L 192.390625 40.050781 L 193.515625 40.050781 L 193.738281 40.722656 L 192.613281 40.949219 L 192.390625 45.203125 L 191.714844 45.203125 L 191.488281 40.949219 L 190.363281 40.722656 L 190.363281 40.277344 L 191.714844 40.050781 Z M 214.652344 53.144531 C 215.339844 53.253906 215.339844 53.253906 215.972656 53.644531 C 216.464844 54.152344 216.464844 54.152344 216.660156 54.640625 L 216.6875 55.046875 L 216.464844 55.269531 C 216.046875 55.285156 215.628906 55.292969 215.214844 55.285156 L 214.519531 55.277344 L 213.988281 55.269531 L 213.988281 54.824219 L 215.792969 54.824219 L 215.5625 53.925781 L 214.214844 54.152344 L 213.765625 55.71875 C 214.027344 56.089844 214.027344 56.089844 214.4375 56.390625 C 215.082031 56.324219 215.621094 56.144531 216.238281 55.941406 C 216.15625 56.375 216.15625 56.375 216.015625 56.839844 C 215.5625 57.0625 215.5625 57.0625 214.816406 57.15625 L 213.988281 57.0625 C 213.3125 56.488281 213.3125 56.488281 212.863281 55.71875 C 212.847656 54.90625 212.847656 54.90625 213.089844 54.152344 C 213.566406 53.464844 213.816406 53.285156 214.652344 53.144531 M 141.316406 53.128906 C 141.996094 53.253906 141.996094 53.253906 142.625 53.675781 C 143.121094 54.152344 143.121094 54.152344 143.34375 54.597656 C 143.425781 55.230469 143.425781 55.230469 143.34375 55.941406 C 142.878906 56.582031 142.878906 56.582031 142.21875 57.0625 C 141.433594 57.199219 141.433594 57.199219 140.644531 57.0625 C 139.984375 56.597656 139.984375 56.597656 139.519531 55.941406 C 139.378906 55.15625 139.378906 55.15625 139.519531 54.375 C 140.066406 53.621094 140.390625 53.300781 141.316406 53.128906 M 140.644531 53.925781 C 140.175781 54.28125 140.175781 54.28125 139.96875 54.824219 C 139.953125 55.40625 139.953125 55.40625 140.191406 55.941406 C 140.566406 56.386719 140.566406 56.386719 141.09375 56.613281 C 141.683594 56.652344 141.683594 56.652344 142.21875 56.390625 C 142.636719 55.839844 142.636719 55.839844 142.894531 55.269531 C 142.5 54.558594 142.5 54.558594 141.996094 53.925781 C 141.339844 53.832031 141.339844 53.832031 140.644531 53.925781 M 198.5625 53.1875 L 199.363281 53.253906 C 199.75 53.621094 199.75 53.621094 200.042969 54.152344 C 200.105469 54.828125 200.105469 54.828125 200.082031 55.550781 L 200.0625 56.28125 L 200.042969 56.839844 C 199.121094 57.03125 198.285156 57.128906 197.339844 57.0625 L 196.890625 56.390625 C 196.917969 55.816406 196.917969 55.816406 197.113281 55.269531 C 197.519531 54.980469 197.519531 54.980469 198.015625 54.824219 L 198.917969 54.824219 L 198.917969 55.269531 L 197.792969 55.496094 L 197.566406 56.390625 L 199.140625 56.613281 L 199.140625 54.152344 C 198.25 53.890625 198.25 53.890625 197.339844 53.925781 L 197.339844 53.480469 C 197.792969 53.253906 197.792969 53.253906 198.5625 53.1875 M 132.546875 36.472656 L 133.21875 36.472656 L 133.21875 45.203125 L 132.546875 45.203125 Z M 165.84375 40.050781 L 166.292969 40.050781 L 166.292969 40.722656 L 166.796875 40.390625 C 167.417969 40.050781 167.417969 40.050781 168.316406 40.050781 L 168.316406 40.949219 L 167.65625 41.160156 C 167.003906 41.328125 167.003906 41.328125 166.746094 41.621094 C 166.6875 42.21875 166.644531 42.824219 166.613281 43.425781 L 166.589844 43.9375 C 166.5625 44.359375 166.542969 44.78125 166.515625 45.203125 L 165.621094 45.203125 C 165.578125 41.675781 165.578125 41.675781 165.84375 40.050781 M 148.519531 53.253906 C 148.886719 53.496094 148.886719 53.496094 149.191406 53.925781 C 149.261719 54.675781 149.261719 54.675781 149.234375 55.535156 L 149.21875 56.402344 L 149.191406 57.0625 L 148.519531 56.839844 L 148.292969 54.152344 L 147.167969 54.152344 C 146.878906 54.722656 146.871094 55.21875 146.816406 55.859375 L 146.761719 56.535156 L 146.71875 57.0625 L 146.042969 56.839844 L 146.042969 53.480469 C 147.839844 53.183594 147.839844 53.183594 148.519531 53.253906 M 207.238281 53.253906 L 207.6875 53.253906 L 207.730469 53.828125 L 207.785156 54.574219 C 207.808594 54.816406 207.824219 55.058594 207.84375 55.3125 C 207.875 55.933594 207.875 55.933594 208.140625 56.390625 L 209.265625 56.167969 L 209.488281 53.480469 L 210.167969 53.253906 C 210.183594 53.722656 210.199219 54.1875 210.207031 54.65625 L 210.230469 55.441406 C 210.167969 56.167969 210.167969 56.167969 209.875 56.703125 L 209.488281 57.0625 C 208.703125 57.15625 208.703125 57.15625 207.917969 57.0625 C 207.441406 56.714844 207.277344 56.457031 207.015625 55.941406 C 206.996094 55.566406 206.984375 55.199219 206.984375 54.824219 L 206.984375 54.222656 C 207.015625 53.703125 207.015625 53.703125 207.238281 53.253906 M 131.191406 53.253906 C 132.011719 53.339844 132.011719 53.339844 132.769531 53.480469 L 132.769531 53.925781 L 131.644531 53.925781 L 131.644531 54.597656 L 132.316406 55.003906 L 132.996094 55.496094 C 133.078125 56.222656 133.078125 56.222656 132.996094 56.839844 C 132.269531 57.199219 131.546875 57.074219 130.746094 57.0625 L 130.746094 56.390625 L 132.316406 56.390625 L 132.09375 55.71875 L 131.40625 55.296875 L 130.746094 54.824219 C 130.628906 54.234375 130.628906 54.234375 130.746094 53.703125 Z M 121.066406 53.253906 C 121.496094 53.40625 121.496094 53.40625 121.96875 53.703125 C 122.203125 54.238281 122.203125 54.238281 122.363281 54.847656 L 122.53125 55.46875 L 122.644531 55.941406 L 123.09375 55.941406 L 123.234375 55.46875 L 123.417969 54.847656 L 123.597656 54.238281 C 123.769531 53.703125 123.769531 53.703125 123.996094 53.253906 L 124.441406 53.253906 C 124.332031 54.652344 123.699219 55.816406 123.09375 57.0625 L 122.421875 56.839844 C 122.15625 56.332031 121.917969 55.8125 121.703125 55.285156 L 121.515625 54.84375 C 121.066406 53.777344 121.066406 53.777344 121.066406 53.253906 "/>
<path style=" stroke:none;fill-rule:nonzero;fill:rgb(0%,0%,0%);fill-opacity:1;" d="M 177.765625 51.910156 L 178.21875 51.910156 L 178.269531 52.433594 L 178.441406 53.03125 C 178.878906 53.441406 178.878906 53.441406 179.34375 53.703125 L 178.441406 53.925781 C 178.390625 54.683594 178.359375 55.417969 178.441406 56.167969 C 178.84375 56.753906 178.84375 56.753906 179.34375 57.0625 L 177.988281 57.0625 C 177.640625 56.359375 177.515625 55.808594 177.527344 55.03125 C 177.582031 54.207031 177.582031 54.207031 177.402344 53.675781 C 177.316406 53.253906 177.316406 53.253906 177.527344 52.53125 Z M 177.765625 51.910156 "/>
<path style=" stroke:none;fill-rule:nonzero;fill:rgb(0%,0%,0%);fill-opacity:1;" d="M 182.488281 53.253906 C 183.082031 53.230469 183.082031 53.230469 183.613281 53.253906 L 183.390625 53.925781 L 182.71875 54.152344 L 183.613281 55.046875 L 184.027344 55.371094 L 184.292969 55.71875 C 184.234375 56.308594 184.234375 56.308594 184.066406 56.839844 L 183.84375 57.0625 C 183.238281 57.09375 182.644531 57.066406 182.042969 57.0625 L 181.816406 56.613281 L 183.613281 56.390625 L 183.09375 55.871094 L 182.488281 55.269531 L 182.066406 54.921875 L 181.816406 54.597656 C 181.859375 54.136719 181.859375 54.136719 182.042969 53.703125 Z M 191.042969 53.253906 C 191.464844 53.59375 191.464844 53.59375 191.941406 54.152344 C 192.144531 54.746094 192.265625 55.324219 192.390625 55.941406 L 192.839844 55.941406 L 192.957031 55.46875 L 193.121094 54.847656 L 193.28125 54.238281 L 193.515625 53.703125 C 193.988281 53.40625 193.988281 53.40625 194.417969 53.253906 C 194.015625 54.574219 193.488281 55.84375 192.839844 57.0625 L 192.390625 57.0625 C 192.160156 56.59375 191.9375 56.128906 191.714844 55.660156 L 191.339844 54.875 C 191.042969 54.152344 191.042969 54.152344 191.042969 53.253906 M 202.964844 51.246094 L 203.640625 51.46875 L 203.628906 52.03125 C 203.613281 54.21875 203.613281 54.21875 203.863281 56.390625 C 204.191406 56.777344 204.191406 56.777344 204.542969 57.0625 C 204.089844 57.066406 203.640625 57.066406 203.1875 57.0625 L 202.964844 56.839844 C 202.949219 56.421875 202.941406 56.003906 202.941406 55.59375 L 202.941406 54.828125 L 202.953125 54.027344 L 202.953125 53.21875 C 202.957031 52.5625 202.957031 51.902344 202.964844 51.246094 "/>
<path style=" stroke:none;fill-rule:nonzero;fill:rgb(0%,0%,0%);fill-opacity:1;" d="M 196.667969 40.050781 L 197.339844 40.050781 L 197.339844 45.203125 L 196.441406 44.980469 Z M 196.667969 40.050781 "/>
<path style=" stroke:none;fill-rule:nonzero;fill:rgb(0%,0%,0%);fill-opacity:1;" d="M 171.015625 40.050781 L 171.691406 40.050781 L 171.691406 45.203125 L 171.015625 45.203125 Z M 114.769531 40.050781 L 115.21875 40.050781 L 115.21875 45.203125 L 114.546875 45.203125 C 114.542969 44.386719 114.535156 43.566406 114.53125 42.753906 L 114.527344 42.046875 L 114.527344 41.375 L 114.519531 40.753906 L 114.546875 40.277344 Z M 36.925781 44.53125 C 37.488281 45.046875 37.488281 45.046875 38.050781 45.652344 L 38.050781 46.316406 C 37.714844 46.808594 37.714844 46.808594 37.375 47.214844 C 36.621094 46.890625 36.136719 46.46875 35.578125 45.871094 L 36.125 45.453125 C 36.707031 45.035156 36.707031 45.035156 36.925781 44.53125 M 150.542969 40.050781 L 150.542969 45.203125 L 149.871094 45.203125 L 149.871094 40.277344 C 150.316406 40.050781 150.316406 40.050781 150.542969 40.050781 M 108.246094 53.253906 L 108.019531 53.925781 L 107.34375 54.152344 C 107.058594 54.722656 107.046875 55.21875 106.996094 55.859375 L 106.9375 56.535156 L 106.894531 57.0625 L 106.21875 56.839844 L 106.21875 53.480469 C 107.574219 53.253906 107.574219 53.253906 108.246094 53.253906 M 127.144531 53.480469 L 127.816406 53.480469 L 127.816406 57.0625 L 127.144531 57.0625 Z M 135.917969 53.480469 L 136.59375 53.480469 L 136.59375 57.0625 L 135.917969 56.839844 Z M 65.722656 6.9375 L 66.171875 7.160156 L 65.949219 8.28125 L 65.046875 8.058594 L 65.046875 7.160156 Z M 30.625 40.5 L 31.527344 40.722656 L 31.300781 41.621094 L 30.402344 41.394531 Z M 73.375 49.902344 C 73.75 49.964844 74.125 50.035156 74.5 50.125 L 74.269531 50.796875 L 73.597656 51.019531 L 73.144531 50.125 Z M 43.902344 30.878906 L 44.800781 30.878906 L 44.800781 31.777344 L 43.675781 31.777344 Z M 196.667969 38.265625 L 197.339844 38.265625 L 197.113281 39.160156 L 196.441406 38.9375 Z M 171.015625 38.265625 L 171.691406 38.265625 L 171.691406 39.160156 L 170.792969 38.714844 Z M 80.574219 36.921875 L 81.019531 37.144531 L 81.019531 37.816406 L 80.125 37.59375 L 80.125 37.144531 Z M 149.871094 38.265625 L 150.542969 38.265625 L 150.316406 39.160156 L 149.871094 39.160156 Z M 114.546875 38.265625 L 115.21875 38.265625 L 115.21875 39.160156 L 114.546875 38.9375 Z M 135.917969 51.910156 L 136.59375 51.910156 L 136.59375 52.582031 L 135.917969 52.582031 Z M 127.144531 51.910156 L 127.816406 51.910156 L 127.816406 52.582031 L 127.144531 52.582031 Z M 33.328125 52.359375 L 33.777344 52.582031 L 33.777344 53.03125 L 33.328125 53.03125 Z M 33.328125 52.359375 "/>
</g>
</svg>
