<?xml version="1.0" encoding="UTF-8"?>
<svg xmlns="http://www.w3.org/2000/svg" xmlns:xlink="http://www.w3.org/1999/xlink" width="250px" height="66px" viewBox="0 0 250 66" version="1.1">
<g id="surface1">
<path style=" stroke:none;fill-rule:nonzero;fill:rgb(99.607843%,99.607843%,99.607843%);fill-opacity:1;" d="M 51.367188 2.9375 C 52.949219 3.78125 53.96875 5.195312 54.914062 6.683594 C 55.757812 8.25 56.113281 9.78125 56.148438 11.554688 C 56.070312 13.585938 55.535156 15.515625 54.445312 17.253906 C 53.824219 18.226562 53.609375 19.03125 53.570312 20.179688 C 53.554688 21.367188 53.582031 22.546875 53.640625 23.734375 L 54.101562 23.21875 C 55.15625 22.070312 56.214844 20.9375 57.332031 19.84375 C 58.023438 19.164062 58.652344 18.484375 59.234375 17.703125 C 60.3125 16.28125 61.445312 15.277344 63.070312 14.507812 C 65.09375 13.671875 66.875 13.359375 69.09375 13.5625 C 70.960938 13.9375 72.628906 14.589844 74.089844 15.820312 L 74.320312 16.273438 C 73.421875 18.125 72.050781 19.726562 70.453125 21.023438 C 68.914062 22 67.289062 22.695312 65.449219 22.828125 C 62.957031 22.875 60.839844 22.152344 58.636719 21.023438 C 56.796875 22.59375 55.195312 24.1875 53.859375 26.21875 C 53.574219 27.078125 53.582031 27.898438 53.570312 28.796875 L 53.554688 29.351562 C 53.539062 29.9375 53.527344 30.527344 53.511719 31.125 L 53.484375 32.320312 C 53.453125 33.296875 53.433594 34.28125 53.410156 35.253906 L 53.945312 35.359375 C 54.503906 35.476562 54.957031 35.648438 55.484375 35.867188 C 56.363281 36.171875 57.003906 36.164062 57.921875 36.007812 C 58.699219 35.84375 59.105469 35.703125 59.769531 35.253906 C 60.355469 35.1875 60.355469 35.1875 60.910156 35.253906 L 61.367188 35.9375 C 61.324219 36.933594 61.003906 37.625 60.46875 38.460938 L 60.210938 38.84375 L 59.957031 39.253906 C 59.742188 39.578125 59.535156 39.90625 59.320312 40.234375 L 61.585938 40.234375 C 61.601562 40.742188 61.601562 40.742188 61.367188 41.355469 C 60.710938 41.75 60.027344 42.015625 59.320312 42.265625 C 60.277344 43.40625 61.28125 44.460938 62.359375 45.492188 C 62.679688 45.804688 63 46.117188 63.320312 46.425781 C 63.820312 46.914062 64.316406 47.390625 64.816406 47.875 C 68.574219 51.46875 68.574219 51.46875 69.320312 53.796875 C 69.605469 55 69.5 56.203125 69.320312 57.40625 C 68.867188 58.851562 68.179688 60 67.078125 61.03125 C 65.886719 61.953125 64.679688 62.601562 63.183594 62.835938 C 62.515625 62.859375 61.851562 62.875 61.1875 62.875 L 60.589844 62.875 C 59.933594 62.875 59.285156 62.886719 58.621094 62.886719 L 57.261719 62.886719 C 56.296875 62.890625 55.34375 62.890625 54.386719 62.890625 C 53.160156 62.890625 51.9375 62.898438 50.71875 62.90625 C 49.777344 62.90625 48.828125 62.90625 47.886719 62.90625 C 47.4375 62.90625 46.988281 62.914062 46.53125 62.914062 C 44.050781 62.925781 41.898438 62.925781 39.617188 61.875 C 38.257812 60.984375 37.386719 59.9375 36.589844 58.539062 C 36.003906 57.164062 36.019531 55.71875 36.132812 54.246094 C 36.390625 52.8125 37.058594 51.835938 37.957031 50.703125 C 38.65625 49.882812 39.425781 49.140625 40.210938 48.390625 C 40.550781 48.070312 40.886719 47.742188 41.230469 47.417969 C 41.757812 46.90625 42.277344 46.398438 42.8125 45.898438 C 43.324219 45.40625 43.839844 44.90625 44.34375 44.414062 L 44.828125 43.953125 C 45.234375 43.5625 45.597656 43.195312 45.90625 42.71875 C 45.933594 41.953125 45.933594 41.953125 45.683594 41.355469 L 46.589844 40.90625 L 46.15625 40.203125 L 45.597656 39.273438 L 45.3125 38.804688 C 45.222656 38.65625 45.128906 38.507812 45.035156 38.347656 L 44.785156 37.9375 C 44.535156 37.5 44.292969 37.078125 44.085938 36.617188 C 44.144531 36.140625 44.144531 36.140625 44.316406 35.710938 L 44.773438 35.253906 C 45.34375 35.3125 45.839844 35.460938 46.367188 35.664062 C 47.464844 36.078125 48.320312 36.25 49.5 36.074219 C 50.347656 35.84375 51.050781 35.460938 51.816406 35.03125 C 52.023438 32.5625 52.023438 32.5625 51.492188 30.183594 C 50.6875 28.914062 49.5625 27.773438 48.457031 26.746094 L 48.179688 26.449219 L 48.179688 25.992188 L 47.375 26.21875 C 45.3125 26.660156 43.210938 26.648438 41.179688 26.078125 C 39.113281 25.359375 37.429688 24.3125 35.917969 22.726562 C 34.972656 21.550781 34.25 20.261719 33.957031 18.765625 C 33.902344 18.234375 33.867188 17.710938 33.867188 17.179688 C 35.953125 16.421875 38.113281 16.289062 40.304688 16.605469 C 42.40625 17.046875 43.960938 17.789062 45.613281 19.144531 C 46.996094 20.421875 47.773438 21.914062 48.480469 23.632812 C 49.085938 25.015625 50.027344 25.898438 51.136719 26.898438 C 51.445312 27.195312 51.742188 27.5 52.042969 27.796875 C 52.070312 26.59375 52.085938 25.390625 52.085938 24.1875 C 52.085938 23.773438 52.09375 23.367188 52.101562 22.953125 C 52.15625 20.953125 52.15625 20.953125 51.816406 18.984375 C 51.335938 18.117188 50.679688 17.511719 49.933594 16.851562 C 48.863281 15.851562 48.273438 14.515625 47.816406 13.140625 C 47.496094 11.34375 47.550781 9.347656 48.078125 7.601562 C 48.785156 5.777344 49.917969 4.242188 51.367188 2.9375 M 51.367188 4.96875 C 50.195312 6.367188 49.476562 7.953125 49.09375 9.71875 C 48.933594 11.242188 49.191406 12.601562 49.777344 14.015625 C 50.109375 14.648438 50.488281 15.230469 50.910156 15.820312 L 51.292969 16.394531 L 51.59375 16.726562 L 52.042969 16.726562 L 52.269531 17.40625 L 52.957031 17.179688 C 53.21875 16.679688 53.453125 16.164062 53.667969 15.640625 L 53.847656 15.203125 C 54.585938 13.421875 54.6875 11.875 54.546875 9.949219 C 54.179688 8.195312 53.289062 6.855469 52.226562 5.429688 L 51.816406 4.96875 Z M 63.042969 16.164062 C 61.867188 16.9375 60.761719 17.796875 59.996094 18.984375 C 59.847656 19.46875 59.847656 19.46875 59.769531 19.890625 C 61.707031 20.921875 63.390625 21.378906 65.59375 21.328125 C 66.898438 21.1875 67.96875 20.777344 69.09375 20.117188 C 70.46875 19.09375 71.574219 17.945312 72.5 16.5 C 72.144531 16.3125 71.789062 16.136719 71.429688 15.953125 L 70.839844 15.640625 C 68.4375 14.578125 65.28125 14.875 63.042969 16.164062 M 35.457031 18.3125 C 35.691406 19.734375 36.3125 20.828125 37.203125 21.960938 C 38.378906 23.234375 39.761719 23.976562 41.363281 24.644531 C 42.019531 24.828125 42.605469 24.890625 43.289062 24.890625 L 46.15625 24.890625 C 46.609375 24.890625 46.609375 24.890625 47.046875 24.644531 C 46.980469 23.445312 46.503906 22.582031 45.878906 21.589844 C 45.035156 20.460938 44.074219 19.554688 42.8125 18.90625 C 41.285156 18.285156 39.953125 18.046875 38.292969 18.054688 L 37.410156 18.054688 C 36.722656 18.078125 36.117188 18.148438 35.457031 18.3125 M 51.023438 37.179688 C 49.5 37.679688 47.945312 37.574219 46.363281 37.523438 C 46.539062 37.832031 46.710938 38.15625 46.890625 38.46875 L 47.179688 39 L 47.503906 39.550781 L 47.738281 40.140625 L 48.179688 40.6875 C 48.886719 40.828125 49.460938 40.890625 50.160156 40.90625 L 50.761719 40.921875 C 51.171875 40.9375 51.59375 40.9375 52 40.945312 C 52.632812 40.953125 53.261719 40.984375 53.894531 41.011719 C 55.613281 41.070312 55.613281 41.070312 57.273438 40.6875 C 58.292969 39.859375 58.820312 38.703125 59.320312 37.523438 L 58.863281 37.296875 L 58.410156 37.523438 C 56.855469 37.648438 55.550781 37.539062 54.089844 37 C 52.992188 36.625 52.078125 36.8125 51.023438 37.179688 M 47.730469 42.960938 C 47.425781 43.246094 47.117188 43.550781 46.816406 43.847656 L 46.367188 44.273438 C 45.90625 44.707031 45.457031 45.15625 45 45.613281 L 44.496094 46.101562 C 44.144531 46.4375 43.804688 46.78125 43.453125 47.125 C 43.105469 47.476562 42.746094 47.820312 42.390625 48.171875 C 41.878906 48.671875 41.363281 49.175781 40.851562 49.6875 L 40.375 50.148438 C 39.203125 51.320312 38.066406 52.671875 37.578125 54.28125 C 37.414062 55.117188 37.378906 55.890625 37.5 56.734375 C 37.902344 57.851562 38.433594 58.765625 39.21875 59.65625 L 39.773438 60.125 L 40.210938 60.5 C 40.929688 60.960938 41.65625 61.21875 42.503906 61.292969 C 43.046875 61.3125 43.589844 61.3125 44.128906 61.3125 L 44.757812 61.320312 C 45.433594 61.320312 46.105469 61.320312 46.789062 61.320312 L 48.207031 61.328125 C 49.199219 61.328125 50.183594 61.328125 51.171875 61.328125 C 52.441406 61.328125 53.710938 61.328125 54.972656 61.328125 C 55.949219 61.339844 56.925781 61.339844 57.902344 61.339844 C 58.367188 61.339844 58.835938 61.339844 59.304688 61.339844 C 59.957031 61.34375 60.609375 61.34375 61.265625 61.339844 L 61.84375 61.34375 C 63.121094 61.328125 64.0625 61.09375 65.230469 60.578125 C 66.226562 59.867188 66.898438 59.15625 67.496094 58.09375 C 67.988281 56.785156 68.101562 55.582031 67.875 54.210938 C 67.261719 51.859375 64.988281 50.140625 63.328125 48.460938 C 62.800781 47.933594 62.265625 47.398438 61.738281 46.867188 C 61.375 46.5 61.011719 46.132812 60.648438 45.765625 C 60.113281 45.234375 59.585938 44.695312 59.050781 44.164062 L 58.566406 43.664062 L 58.101562 43.210938 C 57.964844 43.074219 57.832031 42.949219 57.695312 42.804688 C 57.175781 42.421875 56.777344 42.347656 56.132812 42.265625 C 55.074219 42.203125 54.011719 42.179688 52.949219 42.164062 C 52.605469 42.15625 52.257812 42.148438 51.914062 42.128906 C 51.414062 42.117188 50.917969 42.109375 50.410156 42.109375 L 49.511719 42.089844 C 48.636719 42.265625 48.378906 42.398438 47.730469 42.960938 M 209.953125 15.84375 C 211.429688 16.566406 211.429688 16.566406 212.042969 17.179688 L 212.285156 16.515625 L 212.726562 15.820312 C 213.539062 15.609375 213.539062 15.609375 214.316406 15.59375 L 214.773438 15.820312 C 214.785156 17.585938 214.800781 19.355469 214.808594 21.125 C 214.816406 21.933594 214.816406 22.765625 214.824219 23.578125 C 214.828125 24.375 214.835938 25.171875 214.835938 25.960938 C 214.84375 26.402344 214.84375 26.859375 214.851562 27.308594 C 214.851562 28.84375 214.765625 30.023438 214.089844 31.421875 C 213.617188 32.195312 213.039062 32.796875 212.269531 33.289062 C 210.910156 34.011719 209.660156 34.203125 208.121094 34.183594 C 206.269531 34.039062 204.742188 33.390625 203.160156 32.453125 C 202.726562 32.09375 202.726562 32.09375 202.511719 31.65625 C 202.496094 31.1875 202.496094 31.1875 202.726562 30.757812 L 203.054688 30.34375 L 203.382812 29.921875 L 203.636719 29.609375 L 204.257812 29.898438 L 205.070312 30.269531 L 205.875 30.648438 C 207.074219 31.179688 208.023438 31.3125 209.320312 31.1875 C 210.046875 30.921875 210.511719 30.6875 211.042969 30.132812 C 211.457031 29.457031 211.527344 28.867188 211.636719 28.085938 C 211.671875 27.824219 211.707031 27.554688 211.742188 27.28125 L 211.820312 26.671875 L 211.394531 26.964844 L 210.835938 27.335938 L 210.289062 27.710938 C 209.449219 28.234375 208.71875 28.3125 207.742188 28.351562 C 206.289062 28.339844 205.257812 28.015625 204 27.3125 C 202.941406 26.570312 202.347656 25.75 201.8125 24.59375 C 201.355469 23.40625 201.207031 22.277344 201.363281 21.023438 C 201.628906 19.609375 202.105469 18.460938 203.019531 17.34375 C 203.902344 16.460938 204.90625 15.878906 206.105469 15.515625 C 207.4375 15.242188 208.691406 15.34375 209.953125 15.84375 M 205.914062 18.753906 C 205.34375 19.234375 204.914062 19.699219 204.542969 20.347656 C 204.300781 21.121094 204.238281 21.796875 204.316406 22.601562 C 204.613281 23.59375 205.058594 24.25 205.8125 24.960938 C 206.398438 25.335938 206.859375 25.523438 207.550781 25.59375 C 208.507812 25.625 209.332031 25.625 210.195312 25.1875 C 210.894531 24.648438 211.273438 24.265625 211.65625 23.480469 C 211.941406 22.734375 212.105469 22.066406 212.042969 21.246094 C 211.792969 20.398438 211.40625 19.71875 210.796875 19.078125 C 210.246094 18.609375 209.78125 18.3125 209.089844 18.078125 C 207.816406 18 207.003906 18.03125 205.914062 18.753906 "/>
<path style=" stroke:none;fill-rule:nonzero;fill:rgb(100%,100%,100%);fill-opacity:1;" d="M 98.167969 15.792969 C 98.875 16.171875 99.445312 16.601562 100 17.179688 L 100.386719 16.898438 C 101.503906 16.109375 102.480469 15.5 103.863281 15.367188 C 104.960938 15.34375 105.894531 15.515625 106.871094 16.03125 C 107.722656 16.65625 108.183594 17.265625 108.632812 18.203125 C 109.160156 19.992188 108.976562 21.914062 108.933594 23.765625 C 108.925781 24.195312 108.925781 24.632812 108.917969 25.074219 C 108.90625 26.132812 108.882812 27.1875 108.863281 28.253906 L 105.910156 28.253906 L 105.894531 27.519531 C 105.882812 26.625 105.859375 25.734375 105.839844 24.84375 C 105.824219 24.453125 105.816406 24.0625 105.8125 23.679688 C 105.804688 23.125 105.789062 22.5625 105.773438 22.007812 L 105.769531 21.484375 C 105.738281 20.558594 105.652344 19.8125 105.226562 18.984375 C 104.855469 18.546875 104.855469 18.546875 104.320312 18.3125 C 103.53125 18.199219 103.53125 18.199219 102.722656 18.3125 C 102.082031 18.5625 102.082031 18.5625 101.589844 18.984375 C 101.304688 19.355469 101.304688 19.355469 101.136719 19.890625 C 101.085938 20.53125 101.050781 21.171875 101.042969 21.8125 L 101.027344 22.363281 C 101.011719 22.953125 101.007812 23.539062 100.992188 24.128906 C 100.984375 24.53125 100.976562 24.921875 100.964844 25.332031 C 100.941406 26.296875 100.929688 27.28125 100.90625 28.253906 L 97.957031 28.253906 L 97.941406 27.570312 C 97.921875 26.734375 97.90625 25.898438 97.882812 25.054688 C 97.878906 24.695312 97.863281 24.335938 97.855469 23.96875 C 97.847656 23.453125 97.835938 22.925781 97.820312 22.410156 L 97.8125 21.921875 C 97.785156 20.875 97.613281 19.96875 97.269531 18.984375 C 96.929688 18.515625 96.929688 18.515625 96.367188 18.3125 C 95.675781 18.234375 95.203125 18.1875 94.546875 18.3125 C 93.878906 18.695312 93.878906 18.695312 93.40625 19.210938 C 93.078125 19.867188 93.136719 20.453125 93.117188 21.1875 L 93.101562 21.640625 C 93.085938 22.125 93.078125 22.609375 93.066406 23.097656 C 93.050781 23.578125 93.042969 24.0625 93.03125 24.539062 C 93.015625 24.976562 93.007812 25.417969 92.996094 25.859375 C 92.953125 26.660156 92.851562 27.453125 92.730469 28.253906 C 92.28125 28.257812 91.824219 28.265625 91.375 28.265625 L 90.621094 28.273438 L 90 28.253906 L 89.773438 28.03125 C 89.75 27.65625 89.738281 27.28125 89.738281 26.90625 L 89.730469 26.191406 L 89.730469 25.398438 L 89.722656 24.597656 C 89.722656 24.042969 89.722656 23.476562 89.714844 22.914062 C 89.714844 22.054688 89.707031 21.195312 89.703125 20.335938 C 89.703125 19.785156 89.703125 19.25 89.703125 18.703125 L 89.6875 17.921875 L 89.695312 17.195312 L 89.6875 16.554688 C 89.714844 16.394531 89.742188 16.222656 89.773438 16.050781 C 90.457031 15.59375 90.457031 15.59375 91.148438 15.523438 L 91.816406 15.59375 L 92.273438 16.273438 L 92.273438 16.949219 L 92.609375 16.71875 C 94.339844 15.570312 96.152344 14.90625 98.167969 15.792969 "/>
<path style=" stroke:none;fill-rule:nonzero;fill:rgb(99.607843%,99.607843%,99.607843%);fill-opacity:1;" d="M 172.046875 9.949219 L 174.777344 9.949219 L 174.777344 16.949219 L 176.59375 15.820312 C 177.882812 15.421875 178.980469 15.28125 180.328125 15.460938 C 181.597656 15.757812 182.679688 16.28125 183.652344 17.148438 C 184.5 18.046875 185.089844 18.925781 185.453125 20.117188 C 185.6875 21.4375 185.796875 22.6875 185.390625 23.984375 L 185.226562 24.40625 L 185.054688 24.867188 C 184.578125 25.96875 183.921875 26.71875 182.980469 27.46875 C 182.003906 28.148438 181.171875 28.429688 179.980469 28.546875 C 178.539062 28.601562 177.398438 28.484375 176.109375 27.824219 L 175.679688 27.578125 L 174.984375 27.175781 L 174.546875 26.898438 L 173.863281 28.253906 C 172.464844 28.273438 172.464844 28.273438 172.046875 28.253906 L 171.816406 28.03125 C 171.796875 27.46875 171.789062 26.917969 171.789062 26.367188 L 171.789062 25.847656 C 171.789062 25.265625 171.789062 24.683594 171.789062 24.109375 L 171.789062 22.90625 C 171.789062 22.070312 171.789062 21.234375 171.789062 20.386719 C 171.789062 19.316406 171.789062 18.238281 171.789062 17.167969 C 171.789062 16.335938 171.789062 15.515625 171.789062 14.6875 C 171.789062 14.285156 171.789062 13.890625 171.789062 13.5 C 171.789062 12.9375 171.789062 12.390625 171.789062 11.828125 L 171.789062 11.328125 C 171.789062 10.945312 171.804688 10.554688 171.816406 10.171875 Z M 176.5 18.695312 C 175.886719 19.183594 175.460938 19.710938 174.996094 20.347656 C 174.691406 21.28125 174.613281 22.078125 174.777344 23.050781 C 175.238281 24.046875 175.832031 24.835938 176.679688 25.539062 C 177.484375 25.847656 178.234375 26.019531 179.089844 25.992188 C 179.765625 25.875 180.320312 25.675781 180.90625 25.3125 C 181.554688 24.710938 182.105469 24.070312 182.503906 23.28125 C 182.617188 22.25 182.660156 21.246094 182.3125 20.261719 C 181.941406 19.601562 181.554688 19.125 180.949219 18.667969 C 180.195312 18.25 179.488281 18.027344 178.625 17.96875 C 177.742188 18.078125 177.226562 18.234375 176.5 18.695312 "/>
<path style=" stroke:none;fill-rule:nonzero;fill:rgb(100%,100%,100%);fill-opacity:1;" d="M 121.308594 15.976562 C 122.285156 16.460938 123.140625 17.03125 123.867188 17.859375 C 124.492188 18.859375 124.964844 19.882812 125.0625 21.070312 C 125.128906 23.703125 125.128906 23.703125 124.53125 24.976562 C 123.808594 26.191406 122.996094 27.136719 121.785156 27.875 C 120.359375 28.546875 118.960938 28.609375 117.402344 28.5625 C 116.054688 28.425781 115.164062 28 114.058594 27.242188 C 113.039062 26.453125 112.3125 25.570312 111.785156 24.398438 C 111.390625 23.050781 111.429688 21.722656 111.59375 20.347656 C 111.917969 19.0625 112.597656 18.03125 113.496094 17.0625 C 114.414062 16.222656 115.335938 15.8125 116.53125 15.523438 C 118.179688 15.25 119.753906 15.351562 121.308594 15.976562 M 116.039062 18.667969 C 115.335938 19.289062 114.878906 19.921875 114.542969 20.796875 C 114.40625 21.648438 114.398438 22.421875 114.542969 23.28125 C 114.949219 24.117188 115.425781 24.609375 116.070312 25.273438 C 116.746094 25.714844 117.050781 25.875 117.828125 25.992188 C 118.550781 26.03125 118.984375 25.960938 119.703125 25.765625 C 120.609375 25.21875 121.199219 24.585938 121.820312 23.734375 C 122.183594 23 122.128906 22.257812 122.121094 21.453125 C 122.027344 20.59375 121.769531 20.042969 121.257812 19.355469 C 120.679688 18.742188 120.132812 18.34375 119.320312 18.078125 C 118.113281 17.875 117.066406 17.992188 116.039062 18.667969 M 151.671875 16.089844 C 152.636719 16.625 153.261719 17.148438 153.863281 18.078125 C 154.683594 19.648438 154.773438 20.507812 154.773438 22.375 L 145.230469 22.375 C 145.894531 24.484375 145.894531 24.484375 146.75 25.21875 C 147.695312 25.625 148.5 25.847656 149.542969 25.765625 C 150.691406 25.421875 151.722656 24.828125 152.730469 24.1875 L 154.089844 25.765625 C 153.632812 26.671875 153.632812 26.671875 153.191406 27.039062 L 152.671875 27.375 L 152.160156 27.71875 C 150.789062 28.464844 149.554688 28.578125 148.023438 28.546875 C 146.890625 28.445312 145.976562 28.171875 145 27.578125 C 144.054688 26.832031 143.25 26.03125 142.742188 24.9375 C 142.230469 23.355469 142.109375 21.867188 142.363281 20.214844 C 142.636719 19.109375 143.054688 18.3125 143.789062 17.429688 C 144.816406 16.375 145.820312 15.8125 147.234375 15.414062 C 148.816406 15.316406 150.21875 15.421875 151.671875 16.089844 M 146.992188 18.234375 C 146.378906 18.75 145.90625 19.234375 145.457031 19.890625 L 145.457031 20.347656 L 151.589844 20.347656 C 151.472656 19.28125 151.472656 19.28125 151.0625 18.859375 C 150.332031 18.3125 150.332031 18.3125 149.542969 17.859375 C 148.480469 17.769531 147.945312 17.742188 146.992188 18.234375 "/>
<path style=" stroke:none;fill-rule:nonzero;fill:rgb(99.607843%,99.607843%,99.607843%);fill-opacity:1;" d="M 196.589844 16.050781 C 197.171875 16.382812 197.480469 16.671875 197.957031 17.179688 C 198.65625 18.476562 198.726562 19.527344 198.707031 20.988281 L 198.699219 21.625 C 198.699219 22.277344 198.683594 22.945312 198.675781 23.613281 C 198.675781 24.054688 198.667969 24.507812 198.667969 24.953125 C 198.664062 26.054688 198.648438 27.15625 198.632812 28.253906 L 196.589844 28.253906 L 196.140625 27.125 C 195.578125 27.394531 195.046875 27.703125 194.542969 28.054688 C 193.792969 28.484375 193.152344 28.5625 192.289062 28.597656 C 191.214844 28.550781 190.394531 28.390625 189.460938 27.851562 C 188.777344 27.34375 188.335938 26.742188 187.957031 25.992188 C 187.855469 25 187.800781 23.984375 188.113281 23.023438 C 188.457031 22.375 188.890625 21.898438 189.417969 21.40625 C 190.636719 20.828125 191.839844 20.640625 193.179688 20.570312 C 194.035156 20.65625 194.847656 20.804688 195.683594 21.023438 C 195.625 20.695312 195.5625 20.375 195.496094 20.042969 L 195.390625 19.5 C 195.253906 18.976562 195.253906 18.976562 194.914062 18.59375 C 194.519531 18.257812 194.519531 18.257812 193.867188 18.078125 C 192.3125 17.945312 190.828125 18.21875 189.316406 18.53125 C 188.855469 17.6875 188.632812 17.253906 188.632812 16.273438 C 191.292969 15.296875 193.914062 14.9375 196.589844 16.050781 M 191.753906 23.03125 C 191.328125 23.328125 191.328125 23.328125 190.90625 23.960938 C 190.734375 24.648438 190.734375 24.648438 190.90625 25.3125 C 191.085938 25.875 191.085938 25.875 191.589844 26.21875 C 192.28125 26.429688 192.917969 26.5 193.636719 26.449219 C 194.4375 26.058594 194.878906 25.695312 195.425781 25 C 195.726562 24.3125 195.753906 23.804688 195.683594 23.050781 L 195.453125 22.828125 C 193.574219 22.648438 193.574219 22.648438 191.753906 23.03125 "/>
<path style=" stroke:none;fill-rule:nonzero;fill:rgb(100%,100%,100%);fill-opacity:1;" d="M 136.589844 15.59375 C 137.59375 16.109375 138.214844 16.71875 138.863281 17.632812 C 139.46875 18.609375 139.542969 19.632812 139.578125 20.765625 C 139.578125 21.085938 139.578125 21.414062 139.578125 21.734375 L 139.578125 22.257812 C 139.578125 22.621094 139.578125 22.984375 139.578125 23.34375 C 139.578125 23.90625 139.578125 24.460938 139.578125 25.015625 C 139.578125 25.367188 139.578125 25.714844 139.578125 26.078125 L 139.578125 26.574219 C 139.578125 27.75 139.578125 27.75 139.320312 28.253906 L 136.589844 28.253906 L 136.578125 27.59375 C 136.5625 26.78125 136.539062 25.96875 136.519531 25.160156 C 136.511719 24.804688 136.503906 24.453125 136.496094 24.101562 C 136.484375 23.59375 136.46875 23.085938 136.453125 22.582031 L 136.449219 22.105469 C 136.417969 21.074219 136.242188 20.1875 135.90625 19.210938 C 135.613281 18.78125 135.613281 18.78125 135.230469 18.53125 C 134.402344 18.265625 133.816406 18.234375 132.953125 18.3125 C 132.183594 18.640625 132.183594 18.640625 131.59375 19.210938 C 131.136719 20.261719 131.058594 21.257812 131.042969 22.382812 L 131.03125 22.890625 C 131.015625 23.429688 131 23.960938 130.996094 24.5 L 130.964844 25.589844 C 130.945312 26.476562 130.921875 27.367188 130.910156 28.253906 L 127.949219 28.253906 C 127.945312 26.484375 127.945312 24.71875 127.9375 22.953125 C 127.9375 22.351562 127.9375 21.75 127.9375 21.148438 C 127.929688 20.289062 127.929688 19.421875 127.929688 18.5625 L 127.929688 16.320312 L 127.949219 15.820312 L 128.179688 15.59375 C 128.949219 15.523438 128.949219 15.523438 129.777344 15.59375 C 130.210938 16.003906 130.210938 16.003906 130.453125 16.5 L 130.453125 17.179688 L 130.839844 16.898438 C 131.800781 16.222656 132.675781 15.632812 133.839844 15.414062 C 134.78125 15.328125 135.671875 15.382812 136.589844 15.59375 M 156.820312 15.59375 C 157.210938 15.546875 157.605469 15.515625 157.996094 15.484375 L 158.660156 15.421875 L 159.316406 15.59375 C 160.449219 16.824219 161.070312 18.617188 161.761719 20.101562 C 161.980469 20.570312 162.203125 21.039062 162.421875 21.503906 L 162.714844 22.125 C 162.914062 22.585938 162.914062 22.585938 163.179688 22.828125 L 163.390625 22.3125 C 163.71875 21.53125 164.046875 20.75 164.375 19.976562 L 164.710938 19.15625 L 165.046875 18.371094 L 165.34375 17.636719 C 165.703125 16.910156 166.09375 16.25 166.59375 15.59375 C 167.15625 15.453125 167.15625 15.453125 167.753906 15.5 L 168.355469 15.523438 C 168.867188 15.59375 168.867188 15.59375 169.316406 15.820312 C 169.179688 16.65625 168.945312 17.34375 168.589844 18.113281 L 168.261719 18.800781 C 168.148438 19.039062 168.03125 19.28125 167.910156 19.539062 L 167.546875 20.3125 C 167.285156 20.867188 167.027344 21.414062 166.769531 21.96875 C 166.359375 22.84375 165.953125 23.71875 165.539062 24.59375 C 165.003906 25.742188 164.453125 26.898438 163.914062 28.054688 C 163.472656 28.992188 163.035156 29.9375 162.59375 30.871094 L 162.335938 31.421875 C 162.1875 31.75 162.039062 32.070312 161.886719 32.390625 C 161.609375 32.984375 161.382812 33.4375 160.910156 33.90625 C 160.320312 33.945312 160.320312 33.945312 159.628906 33.929688 L 158.945312 33.925781 L 158.410156 33.90625 L 158.183594 33.226562 C 158.453125 32.570312 158.453125 32.570312 158.875 31.777344 L 159.316406 30.90625 C 159.550781 30.441406 159.785156 29.992188 160.027344 29.542969 C 160.257812 29.09375 160.484375 28.65625 160.707031 28.207031 L 161.125 27.414062 C 161.425781 26.6875 161.425781 26.6875 161.234375 26.007812 C 160.847656 25.179688 160.457031 24.359375 160.035156 23.539062 L 159.777344 23.039062 C 159.515625 22.515625 159.242188 21.984375 158.980469 21.464844 C 158.710938 20.929688 158.4375 20.40625 158.175781 19.871094 C 158.011719 19.546875 157.839844 19.21875 157.675781 18.890625 C 156.871094 17.292969 156.871094 17.292969 156.59375 16.5 C 156.675781 15.976562 156.675781 15.976562 156.820312 15.59375 "/>
<path style=" stroke:none;fill-rule:nonzero;fill:rgb(99.607843%,99.607843%,99.607843%);fill-opacity:1;" d="M 52.042969 45.429688 L 53.410156 45.429688 L 53.527344 46.179688 L 53.859375 47.015625 C 54.445312 47.351562 55.03125 47.53125 55.679688 47.6875 C 55.613281 47.992188 55.535156 48.296875 55.457031 48.59375 L 55.230469 48.820312 C 54.617188 48.78125 54.015625 48.679688 53.410156 48.59375 C 53.367188 49.460938 53.398438 50.242188 53.640625 51.078125 C 54.132812 51.5625 54.609375 51.859375 55.222656 52.183594 L 55.679688 52.4375 C 56.035156 53.140625 55.992188 53.8125 55.984375 54.589844 C 55.90625 55.152344 55.90625 55.152344 55.386719 55.828125 C 54.957031 56.136719 54.53125 56.445312 54.089844 56.734375 L 53.410156 56.734375 L 53.410156 58.09375 L 52.042969 58.09375 L 51.816406 56.960938 L 49.777344 56.28125 L 49.546875 55.152344 L 50.226562 54.703125 C 50.859375 54.773438 51.429688 54.96875 52.042969 55.152344 C 52.058594 54.296875 52.027344 53.492188 51.816406 52.664062 C 51.324219 52.171875 50.886719 52.03125 50.226562 51.753906 C 49.839844 51.476562 49.839844 51.476562 49.546875 51.078125 C 49.40625 50.242188 49.433594 49.433594 49.546875 48.59375 C 49.910156 47.90625 49.910156 47.90625 50.453125 47.46875 C 51.195312 47.171875 51.195312 47.171875 51.816406 47.015625 Z M 51.367188 48.820312 L 50.910156 49.273438 C 50.875 49.859375 50.875 49.859375 50.910156 50.40625 L 52.042969 50.632812 L 52.042969 48.820312 Z M 53.410156 53.117188 L 53.410156 55.152344 L 54.316406 54.703125 L 54.316406 53.347656 Z M 53.410156 53.117188 "/>
<path style=" stroke:none;fill-rule:nonzero;fill:rgb(100%,100%,100%);fill-opacity:1;" d="M 146.136719 36.847656 L 146.820312 36.847656 L 146.820312 45.882812 L 146.136719 45.429688 C 145.714844 45.5 145.714844 45.5 145.230469 45.652344 C 144.445312 45.824219 144.445312 45.824219 143.632812 45.882812 C 142.871094 45.578125 142.515625 45.21875 141.957031 44.609375 C 141.601562 43.867188 141.53125 43.609375 141.582031 42.816406 C 141.703125 42.023438 141.828125 41.796875 142.371094 41.144531 C 142.957031 40.6875 142.957031 40.6875 143.414062 40.460938 C 144.046875 40.40625 144.046875 40.40625 144.773438 40.460938 L 145.90625 41.144531 Z M 143.242188 41.355469 C 142.671875 41.804688 142.671875 41.804688 142.398438 42.578125 C 142.222656 43.378906 142.222656 43.378906 142.429688 44.03125 C 142.714844 44.59375 142.714844 44.59375 143.414062 44.976562 C 144.183594 45.109375 144.183594 45.109375 145 44.976562 C 145.691406 44.53125 145.691406 44.53125 146.136719 43.847656 C 146.304688 43.171875 146.304688 43.171875 146.136719 42.492188 C 145.792969 41.835938 145.792969 41.835938 145.230469 41.355469 C 144.429688 41.09375 144.03125 41.078125 143.242188 41.355469 M 176.136719 36.847656 L 176.816406 36.847656 L 177.042969 41.144531 L 178.183594 40.460938 C 178.847656 40.359375 178.847656 40.359375 179.546875 40.460938 C 180.238281 40.828125 180.742188 41.148438 181.21875 41.773438 C 181.425781 42.5 181.425781 43.101562 181.363281 43.847656 C 181.011719 44.570312 180.628906 45.15625 180 45.652344 C 179.464844 45.738281 179.464844 45.738281 178.875 45.726562 L 178.289062 45.726562 C 177.707031 45.652344 177.320312 45.5 176.816406 45.203125 L 176.816406 45.652344 L 176.136719 45.882812 Z M 177.785156 41.421875 C 177.222656 41.8125 177.222656 41.8125 176.816406 42.492188 C 176.6875 43.15625 176.6875 43.15625 176.816406 43.847656 C 177.257812 44.53125 177.257812 44.53125 177.957031 44.976562 C 178.746094 45.1875 178.746094 45.1875 179.546875 44.976562 C 180.265625 44.421875 180.265625 44.421875 180.679688 43.625 C 180.679688 42.863281 180.535156 42.421875 180.1875 41.746094 C 179.78125 41.316406 179.78125 41.316406 179.117188 41.148438 C 178.40625 41.085938 178.40625 41.085938 177.785156 41.421875 M 106.367188 40.460938 L 107.042969 40.6875 L 107.042969 41.144531 L 107.644531 40.800781 C 108.40625 40.460938 108.40625 40.460938 109.089844 40.359375 C 109.773438 40.460938 109.773438 40.460938 110.507812 40.851562 C 111.136719 41.355469 111.136719 41.355469 111.449219 41.773438 C 111.65625 42.5 111.65625 43.09375 111.59375 43.847656 C 111.335938 44.585938 111.335938 44.585938 110.90625 45.203125 C 110.289062 45.640625 110.289062 45.640625 109.546875 45.882812 C 108.703125 45.84375 108.703125 45.84375 107.957031 45.652344 L 107.273438 45.203125 L 107.042969 48.59375 L 106.367188 48.59375 Z M 107.886719 41.476562 C 107.214844 42.003906 107.214844 42.003906 107.03125 42.816406 C 106.996094 43.625 106.996094 43.625 107.34375 44.273438 C 107.6875 44.773438 107.6875 44.773438 108.183594 44.976562 C 108.953125 45.078125 108.953125 45.078125 109.773438 44.976562 C 110.351562 44.65625 110.351562 44.65625 110.679688 44.078125 C 110.941406 43.304688 110.941406 43.304688 110.90625 42.492188 C 110.585938 41.8125 110.585938 41.8125 110.003906 41.355469 C 109.105469 41.03125 108.753906 41.078125 107.886719 41.476562 M 100.90625 40.460938 C 101.5625 40.6875 101.5625 40.6875 102.046875 40.90625 L 102.273438 40.460938 L 102.953125 40.6875 L 102.953125 45.882812 L 101.589844 45.429688 C 101.207031 45.578125 100.828125 45.726562 100.457031 45.882812 C 99.652344 45.851562 99.167969 45.703125 98.46875 45.320312 C 97.957031 44.757812 97.8125 44.476562 97.613281 43.761719 C 97.476562 43 97.5 42.71875 97.769531 41.953125 C 98.398438 41.046875 98.398438 41.046875 98.859375 40.6875 C 99.609375 40.4375 100.128906 40.410156 100.90625 40.460938 M 99.261719 41.304688 C 98.796875 41.601562 98.796875 41.601562 98.410156 42.265625 C 98.347656 42.929688 98.3125 43.429688 98.410156 44.078125 C 98.710938 44.679688 98.710938 44.679688 99.316406 44.976562 C 99.953125 45.101562 100.507812 45.101562 101.136719 44.976562 C 101.742188 44.679688 101.742188 44.679688 102.046875 44.078125 C 102.167969 43.445312 102.175781 42.898438 102.046875 42.265625 C 101.710938 41.6875 101.710938 41.6875 101.136719 41.355469 C 100.421875 41.15625 99.980469 41.070312 99.261719 41.304688 M 127.503906 40.460938 L 128.109375 40.714844 L 128.636719 40.90625 L 129.320312 40.460938 L 129.546875 40.6875 C 129.570312 41.058594 129.570312 41.421875 129.570312 41.796875 L 129.570312 42.46875 L 129.5625 43.1875 L 129.554688 43.898438 C 129.554688 44.484375 129.554688 45.070312 129.546875 45.652344 L 128.898438 45.53125 C 128.195312 45.375 128.195312 45.375 127.617188 45.652344 C 127.046875 45.882812 127.046875 45.882812 126.363281 45.871094 C 125.683594 45.652344 125.683594 45.652344 125.042969 45.097656 L 124.542969 44.53125 L 124.316406 44.296875 C 124.214844 43.539062 124.207031 42.804688 124.316406 42.039062 C 124.628906 41.4375 124.9375 41.15625 125.457031 40.6875 C 126.199219 40.4375 126.71875 40.410156 127.503906 40.460938 M 126.363281 41.144531 C 125.71875 41.523438 125.71875 41.523438 125.226562 42.039062 C 124.964844 42.507812 124.964844 42.507812 124.914062 43.125 C 124.941406 43.882812 124.941406 43.882812 125.46875 44.5 C 126.113281 45.039062 126.113281 45.039062 126.945312 45.109375 C 127.722656 45.03125 127.722656 45.03125 128.277344 44.640625 C 128.640625 44.070312 128.714844 43.828125 128.75 43.171875 C 128.734375 42.703125 128.734375 42.703125 128.636719 42.265625 C 128.300781 41.6875 128.300781 41.6875 127.730469 41.355469 C 127.066406 41.097656 127.066406 41.097656 126.363281 41.144531 "/>
<path style=" stroke:none;fill-rule:nonzero;fill:rgb(99.607843%,99.607843%,99.607843%);fill-opacity:1;" d="M 77.726562 21.46875 L 78.410156 21.703125 L 78.679688 22.445312 C 78.832031 22.878906 78.832031 22.878906 79.09375 23.28125 C 79.664062 23.671875 80.261719 23.9375 80.914062 24.1875 L 80.914062 24.644531 C 79.601562 25.3125 79.601562 25.3125 79.09375 25.3125 L 78.894531 25.953125 C 78.636719 26.671875 78.636719 26.671875 78.183594 27.347656 L 77.726562 27.347656 L 77.453125 26.621094 C 77.175781 25.96875 77.007812 25.726562 76.464844 25.234375 C 75.9375 24.867188 75.9375 24.867188 75.453125 24.644531 L 75.679688 23.960938 L 76.335938 23.5625 C 77.042969 23.132812 77.042969 23.132812 77.285156 22.640625 C 77.449219 22.257812 77.589844 21.867188 77.726562 21.46875 "/>
<path style=" stroke:none;fill-rule:nonzero;fill:rgb(100%,100%,100%);fill-opacity:1;" d="M 36.589844 7.90625 L 37.273438 8.144531 L 37.445312 8.648438 C 37.671875 9.265625 37.671875 9.265625 38.105469 9.578125 C 38.398438 9.777344 38.691406 9.960938 38.984375 10.148438 L 39.320312 10.398438 L 39.320312 10.847656 L 38.5625 11.09375 C 38.113281 11.257812 38.113281 11.257812 37.730469 11.53125 C 37.386719 12.046875 37.238281 12.515625 37.046875 13.109375 L 36.359375 12.882812 L 36.070312 12.234375 L 35.683594 11.53125 C 34.992188 11.09375 34.992188 11.09375 34.316406 10.847656 L 34.542969 10.171875 L 35.199219 9.765625 C 35.953125 9.3125 35.953125 9.3125 36.332031 8.527344 Z M 205 40.460938 C 205.699219 40.828125 206.191406 41.144531 206.675781 41.757812 C 206.894531 42.546875 206.972656 43.273438 206.816406 44.078125 C 206.496094 44.632812 206.148438 44.976562 205.683594 45.429688 C 205.027344 45.757812 204.4375 45.738281 203.710938 45.734375 C 203.183594 45.652344 203.183594 45.652344 202.753906 45.421875 C 202.261719 45.015625 201.878906 44.640625 201.59375 44.078125 C 201.492188 43.382812 201.484375 42.730469 201.59375 42.039062 C 201.90625 41.453125 202.21875 41.148438 202.726562 40.6875 C 203.550781 40.410156 204.128906 40.382812 205 40.460938 M 203.636719 41.144531 C 202.976562 41.515625 202.976562 41.515625 202.496094 42.039062 C 202.234375 42.507812 202.234375 42.507812 202.183594 43.125 C 202.210938 43.882812 202.210938 43.882812 202.738281 44.5 C 203.382812 45.039062 203.382812 45.039062 204.214844 45.109375 C 205 45.03125 205 45.03125 205.542969 44.621094 C 205.953125 44.070312 205.953125 44.070312 206.132812 43.296875 C 206.195312 42.492188 206.195312 42.492188 205.796875 41.84375 C 205.242188 41.316406 205.242188 41.316406 204.445312 41.125 Z M 210.226562 40.460938 L 210.679688 40.460938 L 210.910156 40.90625 L 211.28125 40.6875 C 211.972656 40.390625 212.425781 40.371094 213.183594 40.460938 C 213.78125 40.78125 213.78125 40.78125 214.316406 41.355469 C 214.488281 42.09375 214.496094 42.8125 214.5 43.5625 L 214.523438 44.171875 C 214.53125 44.671875 214.542969 45.164062 214.542969 45.652344 L 213.640625 45.652344 L 213.410156 41.355469 C 211.964844 41.46875 211.964844 41.46875 211.386719 41.835938 C 210.988281 42.519531 211 43.234375 210.980469 44 L 210.957031 44.484375 C 210.9375 44.875 210.921875 45.269531 210.910156 45.652344 L 209.996094 45.652344 C 209.988281 44.839844 209.988281 44.007812 209.980469 43.1875 L 209.976562 42.46875 L 209.976562 41.796875 L 209.96875 41.171875 L 209.996094 40.6875 Z M 184.550781 40.460938 L 185.226562 40.460938 L 185.269531 41.28125 L 185.324219 42.351562 L 185.355469 42.898438 C 185.382812 43.859375 185.382812 43.859375 185.683594 44.753906 C 186.339844 44.8125 186.339844 44.8125 187.042969 44.753906 C 187.449219 44.535156 187.449219 44.535156 187.726562 44.078125 C 187.847656 43.464844 187.933594 42.84375 188 42.226562 L 188.054688 41.710938 C 188.097656 41.296875 188.140625 40.875 188.183594 40.460938 L 188.863281 40.460938 L 188.863281 45.882812 L 187.5 45.429688 L 186.816406 45.882812 C 186.152344 45.859375 186.152344 45.859375 185.453125 45.652344 C 184.957031 45.328125 184.957031 45.328125 184.550781 44.753906 C 184.433594 44.015625 184.464844 43.296875 184.492188 42.546875 L 184.507812 41.9375 C 184.511719 41.441406 184.527344 40.953125 184.550781 40.460938 M 93.179688 40.460938 C 93.933594 40.839844 93.933594 40.839844 94.546875 41.355469 C 94.742188 41.984375 94.742188 41.984375 94.769531 42.492188 C 94.25 42.242188 93.792969 41.992188 93.324219 41.648438 L 92.730469 41.355469 C 91.996094 41.492188 91.996094 41.492188 91.363281 41.8125 L 90.90625 42.265625 C 90.800781 43.039062 90.800781 43.039062 90.90625 43.847656 C 91.242188 44.429688 91.242188 44.429688 91.816406 44.753906 C 92.488281 44.90625 92.488281 44.90625 93.179688 44.753906 C 93.800781 44.324219 93.800781 44.324219 94.320312 43.847656 L 94.769531 43.847656 C 94.71875 44.375 94.71875 44.375 94.546875 44.976562 C 94.175781 45.375 94.175781 45.375 93.636719 45.652344 C 92.867188 45.859375 92.867188 45.859375 92.046875 45.882812 C 91.304688 45.617188 90.820312 45.355469 90.269531 44.792969 C 89.914062 44.152344 89.800781 43.6875 89.773438 42.949219 C 90.027344 42.1875 90.292969 41.574219 90.800781 40.9375 C 91.539062 40.382812 92.289062 40.375 93.179688 40.460938 M 156.023438 40.375 C 156.820312 40.460938 156.820312 40.460938 157.367188 40.753906 L 157.726562 41.144531 L 157.726562 41.8125 L 157.242188 41.59375 C 156.535156 41.34375 155.980469 41.328125 155.230469 41.355469 L 155.230469 42.265625 L 155.765625 42.453125 L 157.164062 42.929688 L 157.726562 43.171875 C 157.953125 43.625 157.953125 43.625 158.039062 44.273438 L 157.953125 44.976562 C 157.511719 45.53125 157.511719 45.53125 156.820312 45.882812 C 156.109375 45.921875 155.453125 45.871094 154.773438 45.652344 C 154.367188 45.34375 154.367188 45.34375 154.089844 44.976562 L 154.089844 44.296875 C 154.519531 44.390625 154.519531 44.390625 155.003906 44.53125 L 155.453125 44.976562 C 156.15625 45.015625 156.15625 45.015625 156.820312 44.976562 L 157.269531 43.847656 L 156.804688 43.734375 C 155.90625 43.492188 155.160156 43.28125 154.390625 42.75 L 154.089844 42.265625 C 154.089844 41.6875 154.089844 41.6875 154.316406 41.144531 C 154.875 40.523438 155.195312 40.460938 156.023438 40.375 M 159.257812 53.902344 C 159.578125 53.953125 159.90625 53.988281 160.226562 54.023438 L 160.457031 53.796875 C 161.234375 53.851562 161.234375 53.851562 162.046875 54.023438 L 162.5 54.703125 C 162.542969 55.410156 162.542969 55.410156 162.53125 56.210938 L 162.515625 57.015625 L 162.5 57.644531 L 161.816406 57.644531 L 161.773438 57.0625 L 161.71875 56.308594 C 161.703125 56.0625 161.683594 55.8125 161.660156 55.5625 C 161.632812 54.933594 161.632812 54.933594 161.359375 54.46875 L 160.226562 54.921875 L 160 57.644531 L 159.316406 57.40625 L 159.09375 54.46875 L 157.953125 54.703125 C 157.660156 55.277344 157.652344 55.773438 157.597656 56.421875 L 157.539062 57.109375 L 157.496094 57.644531 L 157.046875 57.644531 L 157.046875 54.023438 C 157.96875 53.835938 158.386719 53.78125 159.257812 53.902344 M 70.226562 36.617188 C 70.613281 36.992188 70.988281 37.375 71.359375 37.765625 C 71.832031 38.234375 71.832031 38.234375 72.5 38.652344 L 72.273438 39.328125 L 71.714844 39.636719 L 71.140625 40.007812 C 70.832031 40.582031 70.832031 40.582031 70.683594 41.144531 L 70 40.90625 L 69.699219 40.390625 C 69.234375 39.648438 68.703125 39.320312 67.953125 38.875 C 68.410156 38.421875 68.410156 38.421875 68.964844 38.125 C 69.613281 37.707031 69.871094 37.304688 70.226562 36.617188 M 26.816406 28.703125 L 27.273438 28.703125 L 27.527344 29.324219 C 28.015625 30.164062 28.484375 30.488281 29.316406 30.96875 L 28.804688 31.335938 C 28.140625 31.902344 27.730469 32.484375 27.273438 33.226562 L 26.589844 33 L 26.28125 32.464844 C 25.941406 31.828125 25.941406 31.828125 25.296875 31.460938 L 24.769531 31.1875 C 25.148438 30.8125 25.53125 30.4375 25.925781 30.078125 C 26.347656 29.632812 26.574219 29.257812 26.816406 28.703125 M 85.453125 53.796875 L 85.910156 53.796875 C 86.058594 54.125 86.214844 54.453125 86.363281 54.78125 L 86.621094 55.34375 C 86.820312 55.828125 86.820312 55.828125 86.820312 56.28125 L 87.269531 56.28125 L 87.953125 54.023438 L 88.640625 54.023438 L 89.316406 56.050781 C 89.773438 55.601562 89.980469 55.242188 90.257812 54.671875 L 90.5 54.171875 L 90.683594 53.796875 L 91.132812 54.246094 L 89.542969 57.855469 L 89.089844 57.644531 C 88.886719 57.117188 88.746094 56.59375 88.589844 56.0625 L 88.410156 55.601562 L 87.953125 55.375 L 87.882812 55.8125 L 87.769531 56.375 L 87.664062 56.945312 L 87.5 57.40625 L 86.820312 57.644531 C 86.59375 57.128906 86.363281 56.613281 86.136719 56.097656 L 85.9375 55.65625 C 85.652344 55 85.453125 54.523438 85.453125 53.796875 M 161.589844 38.421875 L 162.273438 38.421875 L 162.273438 40.460938 L 163.636719 40.460938 L 163.636719 41.144531 L 162.730469 41.355469 C 162.5 42.789062 162.386719 44.21875 162.273438 45.652344 L 161.589844 45.652344 L 161.589844 41.144531 L 160.226562 41.144531 L 160.226562 40.6875 L 161.589844 40.460938 Z M 112.695312 53.695312 L 113.410156 53.796875 C 114.066406 54.304688 114.066406 54.304688 114.542969 54.921875 L 114.542969 55.828125 L 111.820312 55.828125 L 112.046875 56.734375 C 112.5625 56.890625 112.5625 56.890625 113.179688 56.960938 C 113.808594 56.765625 113.808594 56.765625 114.316406 56.507812 L 114.316406 57.1875 C 113.636719 57.644531 113.636719 57.644531 112.855469 57.703125 C 112.046875 57.644531 112.046875 57.644531 111.507812 57.40625 C 111.105469 56.921875 111.035156 56.679688 110.9375 56.070312 C 110.894531 55.5 110.90625 55.164062 111.078125 54.609375 C 111.542969 54.015625 111.957031 53.8125 112.695312 53.695312 M 112.046875 54.46875 L 112.046875 55.375 L 113.636719 55.375 L 113.410156 54.46875 Z M 166.59375 53.796875 C 167.371094 53.8125 167.371094 53.8125 168.183594 54.023438 C 168.753906 54.554688 168.753906 54.554688 169.085938 55.152344 L 168.867188 55.828125 L 166.136719 56.050781 L 166.363281 56.734375 C 166.878906 56.890625 166.878906 56.890625 167.5 56.960938 C 168.125 56.765625 168.125 56.765625 168.640625 56.507812 L 168.640625 57.1875 C 167.953125 57.644531 167.953125 57.644531 167.171875 57.71875 C 166.363281 57.644531 166.363281 57.644531 165.824219 57.265625 C 165.453125 56.734375 165.453125 56.734375 165.238281 56.070312 C 165.222656 55.375 165.222656 55.375 165.507812 54.757812 C 165.910156 54.246094 165.910156 54.246094 166.59375 53.796875 M 166.363281 54.46875 L 166.363281 55.375 L 167.953125 55.375 L 167.953125 54.46875 C 167.269531 54.265625 167.070312 54.234375 166.363281 54.46875 M 172.730469 53.796875 C 173.363281 53.710938 173.363281 53.710938 174.09375 53.796875 C 174.734375 54.1875 174.734375 54.1875 175.226562 54.703125 C 175.410156 55.203125 175.410156 55.203125 175.453125 55.601562 C 174.796875 55.78125 174.148438 55.890625 173.464844 55.953125 L 172.914062 56.015625 L 172.503906 56.050781 L 172.730469 56.734375 C 173.242188 56.890625 173.242188 56.890625 173.863281 56.960938 C 174.492188 56.765625 174.492188 56.765625 174.996094 56.507812 L 174.996094 57.1875 C 174.320312 57.644531 174.320312 57.644531 173.535156 57.71875 C 172.730469 57.644531 172.730469 57.644531 172.1875 57.265625 C 171.816406 56.734375 171.816406 56.734375 171.605469 56.070312 C 171.589844 55.375 171.589844 55.375 171.890625 54.757812 C 172.273438 54.246094 172.273438 54.246094 172.730469 53.796875 M 172.730469 54.46875 L 172.730469 55.375 L 174.320312 55.375 L 174.546875 54.921875 C 174.234375 54.578125 174.234375 54.578125 173.863281 54.246094 C 173.359375 54.21875 173.359375 54.21875 172.730469 54.46875 "/>
<path style=" stroke:none;fill-rule:nonzero;fill:rgb(99.607843%,99.607843%,99.607843%);fill-opacity:1;" d="M 94.09375 51.753906 L 94.546875 51.753906 L 94.546875 54.246094 L 95.226562 53.796875 C 95.925781 53.835938 95.925781 53.835938 96.59375 54.023438 L 97.042969 54.703125 C 97.085938 55.410156 97.085938 55.410156 97.070312 56.210938 L 97.058594 57.015625 L 97.042969 57.644531 L 96.367188 57.644531 L 96.136719 54.703125 L 94.996094 54.703125 L 94.769531 54.921875 C 94.726562 55.382812 94.683594 55.839844 94.648438 56.296875 L 94.589844 57.046875 L 94.546875 57.644531 L 93.863281 57.40625 C 93.855469 56.515625 93.851562 55.609375 93.851562 54.710938 L 93.84375 53.9375 L 93.84375 53.195312 L 93.835938 52.507812 L 93.863281 51.984375 Z M 94.09375 51.753906 "/>
<path style=" stroke:none;fill-rule:nonzero;fill:rgb(100%,100%,100%);fill-opacity:1;" d="M 101.589844 53.65625 C 102.273438 53.796875 102.273438 53.796875 102.910156 54.1875 C 103.410156 54.703125 103.410156 54.703125 103.609375 55.191406 L 103.636719 55.601562 L 103.410156 55.828125 C 102.953125 55.878906 102.496094 55.925781 102.03125 55.953125 L 101.269531 56.015625 L 100.679688 56.050781 L 100.90625 56.734375 C 101.425781 56.890625 101.425781 56.890625 102.046875 56.960938 C 102.667969 56.765625 102.667969 56.765625 103.179688 56.507812 L 103.179688 57.1875 C 102.503906 57.644531 102.503906 57.644531 101.71875 57.71875 C 100.90625 57.644531 100.90625 57.644531 100.371094 57.28125 C 100 56.734375 100 56.734375 99.757812 55.964844 C 99.773438 55.152344 99.773438 55.152344 99.964844 54.75 C 100.445312 54.101562 100.800781 53.8125 101.589844 53.65625 M 101.589844 54.246094 C 101.085938 54.4375 101.085938 54.4375 100.679688 54.703125 L 100.679688 55.375 L 102.503906 55.375 L 102.503906 54.46875 C 102.089844 54.3125 102.089844 54.3125 101.589844 54.246094 M 119.773438 38.421875 L 120.453125 38.421875 L 120.453125 40.460938 L 121.820312 40.460938 L 121.820312 41.144531 L 120.679688 41.355469 L 120.453125 45.652344 L 119.773438 45.652344 L 119.773438 41.144531 L 118.40625 41.144531 L 118.632812 40.460938 L 119.773438 40.460938 Z M 192.726562 38.421875 L 193.410156 38.652344 L 193.410156 40.460938 L 194.542969 40.460938 L 194.769531 41.144531 L 193.636719 41.355469 L 193.410156 45.652344 L 192.726562 45.652344 L 192.496094 41.355469 L 191.363281 41.144531 L 191.363281 40.6875 L 192.726562 40.460938 Z M 215.890625 53.679688 C 216.589844 53.796875 216.589844 53.796875 217.230469 54.1875 C 217.730469 54.703125 217.730469 54.703125 217.921875 55.191406 L 217.953125 55.601562 L 217.730469 55.828125 C 217.308594 55.84375 216.882812 55.84375 216.460938 55.84375 L 215.769531 55.839844 L 215.230469 55.828125 L 215.230469 55.375 L 217.046875 55.375 L 216.816406 54.46875 L 215.457031 54.703125 L 215 56.28125 C 215.265625 56.652344 215.265625 56.652344 215.683594 56.960938 C 216.332031 56.890625 216.875 56.710938 217.503906 56.507812 C 217.417969 56.945312 217.417969 56.945312 217.273438 57.40625 C 216.816406 57.644531 216.816406 57.644531 216.0625 57.734375 L 215.230469 57.644531 C 214.542969 57.0625 214.542969 57.0625 214.089844 56.28125 C 214.074219 55.460938 214.074219 55.460938 214.316406 54.703125 C 214.800781 54 215.050781 53.828125 215.890625 53.679688 M 141.816406 53.671875 C 142.5 53.796875 142.5 53.796875 143.140625 54.21875 C 143.632812 54.703125 143.632812 54.703125 143.859375 55.152344 C 143.945312 55.789062 143.945312 55.789062 143.859375 56.507812 C 143.398438 57.15625 143.398438 57.15625 142.726562 57.644531 C 141.929688 57.78125 141.929688 57.78125 141.136719 57.644531 C 140.46875 57.167969 140.46875 57.167969 139.996094 56.507812 C 139.855469 55.71875 139.855469 55.71875 139.996094 54.921875 C 140.5625 54.15625 140.882812 53.84375 141.816406 53.671875 M 141.136719 54.46875 C 140.660156 54.828125 140.660156 54.828125 140.453125 55.375 C 140.441406 55.964844 140.441406 55.964844 140.683594 56.507812 C 141.058594 56.957031 141.058594 56.957031 141.59375 57.1875 C 142.1875 57.21875 142.1875 57.21875 142.726562 56.960938 C 143.148438 56.40625 143.148438 56.40625 143.414062 55.828125 C 143.011719 55.105469 143.011719 55.105469 142.5 54.46875 C 141.835938 54.378906 141.835938 54.378906 141.136719 54.46875 M 199.644531 53.726562 L 200.453125 53.796875 C 200.84375 54.160156 200.84375 54.160156 201.136719 54.703125 C 201.199219 55.382812 201.199219 55.382812 201.179688 56.109375 L 201.15625 56.851562 L 201.136719 57.40625 C 200.203125 57.609375 199.359375 57.710938 198.40625 57.644531 L 197.957031 56.960938 C 197.984375 56.375 197.984375 56.375 198.183594 55.828125 C 198.589844 55.53125 198.589844 55.53125 199.089844 55.375 L 200.003906 55.375 L 200.003906 55.828125 L 198.863281 56.050781 L 198.632812 56.960938 L 200.222656 57.1875 L 200.222656 54.703125 C 199.324219 54.4375 199.324219 54.4375 198.40625 54.46875 L 198.40625 54.023438 C 198.863281 53.796875 198.863281 53.796875 199.644531 53.726562 M 132.953125 36.847656 L 133.640625 36.847656 L 133.640625 45.652344 L 132.953125 45.652344 Z M 166.59375 40.460938 L 167.042969 40.460938 L 167.042969 41.144531 L 167.554688 40.800781 C 168.183594 40.460938 168.183594 40.460938 169.085938 40.460938 L 169.085938 41.355469 L 168.425781 41.578125 C 167.761719 41.75 167.761719 41.75 167.5 42.039062 C 167.449219 42.644531 167.40625 43.257812 167.371094 43.859375 L 167.339844 44.382812 C 167.320312 44.8125 167.292969 45.234375 167.269531 45.652344 L 166.363281 45.652344 C 166.320312 42.101562 166.320312 42.101562 166.59375 40.460938 M 149.09375 53.796875 C 149.457031 54.035156 149.457031 54.035156 149.769531 54.46875 C 149.839844 55.238281 149.839844 55.238281 149.8125 56.097656 L 149.792969 56.96875 L 149.769531 57.644531 L 149.09375 57.40625 L 148.863281 54.703125 L 147.726562 54.703125 C 147.441406 55.277344 147.425781 55.773438 147.375 56.421875 L 147.320312 57.109375 L 147.277344 57.644531 L 146.589844 57.40625 L 146.589844 54.023438 C 148.402344 53.71875 148.402344 53.71875 149.09375 53.796875 M 208.40625 53.796875 L 208.863281 53.796875 L 208.90625 54.378906 L 208.964844 55.125 C 208.984375 55.363281 209 55.617188 209.019531 55.867188 C 209.046875 56.492188 209.046875 56.492188 209.320312 56.960938 L 210.453125 56.734375 L 210.679688 54.023438 L 211.363281 53.796875 C 211.378906 54.265625 211.394531 54.734375 211.40625 55.203125 L 211.429688 56 C 211.363281 56.734375 211.363281 56.734375 211.066406 57.273438 L 210.679688 57.644531 C 209.890625 57.734375 209.890625 57.734375 209.089844 57.644531 C 208.613281 57.289062 208.441406 57.03125 208.179688 56.507812 C 208.15625 56.132812 208.148438 55.753906 208.148438 55.375 L 208.148438 54.761719 C 208.179688 54.246094 208.179688 54.246094 208.40625 53.796875 M 131.59375 53.796875 C 132.414062 53.875 132.414062 53.875 133.183594 54.023438 L 133.183594 54.46875 L 132.042969 54.46875 L 132.042969 55.152344 L 132.726562 55.5625 L 133.410156 56.050781 C 133.496094 56.789062 133.496094 56.789062 133.410156 57.40625 C 132.675781 57.769531 131.941406 57.648438 131.136719 57.644531 L 131.136719 56.960938 L 132.726562 56.960938 L 132.5 56.28125 L 131.808594 55.859375 L 131.136719 55.375 C 131.023438 54.78125 131.023438 54.78125 131.136719 54.246094 Z M 121.363281 53.796875 C 121.792969 53.949219 121.792969 53.949219 122.269531 54.246094 C 122.511719 54.78125 122.511719 54.78125 122.667969 55.410156 L 122.839844 56.03125 L 122.953125 56.507812 L 123.410156 56.507812 L 123.554688 56.03125 L 123.921875 54.78125 C 124.085938 54.246094 124.085938 54.246094 124.316406 53.796875 L 124.773438 53.796875 C 124.65625 55.203125 124.015625 56.382812 123.410156 57.644531 L 122.726562 57.40625 C 122.457031 56.898438 122.210938 56.375 122.007812 55.84375 L 121.8125 55.398438 C 121.363281 54.3125 121.363281 54.3125 121.363281 53.796875 "/>
<path style=" stroke:none;fill-rule:nonzero;fill:rgb(99.607843%,99.607843%,99.607843%);fill-opacity:1;" d="M 178.640625 52.4375 L 179.089844 52.4375 L 179.144531 52.957031 L 179.316406 53.570312 C 179.757812 53.984375 179.757812 53.984375 180.230469 54.246094 L 179.316406 54.46875 C 179.265625 55.238281 179.238281 55.976562 179.316406 56.734375 C 179.722656 57.328125 179.722656 57.328125 180.230469 57.644531 L 178.859375 57.644531 C 178.511719 56.929688 178.382812 56.367188 178.398438 55.585938 C 178.453125 54.757812 178.453125 54.757812 178.269531 54.21875 C 178.183594 53.796875 178.183594 53.796875 178.398438 53.0625 Z M 178.640625 52.4375 "/>
<path style=" stroke:none;fill-rule:nonzero;fill:rgb(100%,100%,100%);fill-opacity:1;" d="M 183.410156 53.796875 C 184.007812 53.765625 184.007812 53.765625 184.550781 53.796875 L 184.320312 54.46875 L 183.636719 54.703125 L 184.050781 55.105469 L 184.550781 55.601562 L 184.957031 55.929688 L 185.226562 56.28125 C 185.167969 56.875 185.167969 56.875 184.996094 57.40625 L 184.769531 57.644531 C 184.164062 57.671875 183.566406 57.648438 182.953125 57.644531 L 182.722656 57.1875 L 184.550781 56.960938 L 184.019531 56.441406 L 183.410156 55.828125 L 182.980469 55.476562 L 182.722656 55.152344 C 182.765625 54.6875 182.765625 54.6875 182.953125 54.246094 Z M 192.046875 53.796875 C 192.46875 54.132812 192.46875 54.132812 192.953125 54.703125 C 193.167969 55.296875 193.28125 55.878906 193.410156 56.507812 L 193.867188 56.507812 L 193.980469 56.03125 L 194.152344 55.410156 L 194.308594 54.78125 L 194.542969 54.246094 C 195.027344 53.949219 195.027344 53.949219 195.453125 53.796875 C 195.046875 55.125 194.515625 56.40625 193.867188 57.644531 L 193.410156 57.644531 C 193.179688 57.167969 192.953125 56.699219 192.726562 56.222656 L 192.347656 55.429688 C 192.046875 54.703125 192.046875 54.703125 192.046875 53.796875 M 204.09375 51.753906 L 204.773438 51.984375 L 204.765625 52.554688 C 204.742188 54.761719 204.742188 54.761719 205 56.960938 C 205.335938 57.351562 205.335938 57.351562 205.683594 57.644531 C 205.226562 57.648438 204.773438 57.648438 204.316406 57.644531 L 204.09375 57.40625 C 204.074219 56.992188 204.066406 56.566406 204.074219 56.15625 L 204.074219 55.382812 L 204.082031 54.570312 L 204.082031 53.757812 C 204.085938 53.09375 204.085938 52.421875 204.09375 51.753906 "/>
<path style=" stroke:none;fill-rule:nonzero;fill:rgb(99.607843%,99.607843%,99.607843%);fill-opacity:1;" d="M 197.730469 40.460938 L 198.40625 40.460938 L 198.40625 45.652344 L 197.5 45.429688 Z M 197.730469 40.460938 "/>
<path style=" stroke:none;fill-rule:nonzero;fill:rgb(100%,100%,100%);fill-opacity:1;" d="M 171.816406 40.460938 L 172.503906 40.460938 L 172.503906 45.652344 L 171.816406 45.652344 Z M 115 40.460938 L 115.457031 40.460938 L 115.457031 45.652344 L 114.769531 45.652344 C 114.765625 44.839844 114.765625 44.007812 114.757812 43.1875 L 114.75 42.46875 L 114.75 41.796875 L 114.742188 41.171875 L 114.769531 40.6875 Z M 36.359375 44.976562 C 36.929688 45.5 36.929688 45.5 37.5 46.109375 L 37.5 46.789062 C 37.160156 47.28125 37.160156 47.28125 36.816406 47.6875 C 36.054688 47.367188 35.570312 46.9375 35 46.335938 L 35.554688 45.910156 C 36.140625 45.492188 36.140625 45.492188 36.359375 44.976562 M 151.140625 40.460938 L 151.140625 45.652344 L 150.453125 45.652344 L 150.453125 40.6875 C 150.910156 40.460938 150.910156 40.460938 151.140625 40.460938 M 108.40625 53.796875 L 108.183594 54.46875 L 107.5 54.703125 C 107.207031 55.277344 107.199219 55.773438 107.144531 56.421875 L 107.085938 57.109375 L 107.042969 57.644531 L 106.367188 57.40625 L 106.367188 54.023438 C 107.726562 53.796875 107.726562 53.796875 108.40625 53.796875 M 127.503906 54.023438 L 128.179688 54.023438 L 128.179688 57.644531 L 127.503906 57.644531 Z M 136.363281 54.023438 L 137.046875 54.023438 L 137.046875 57.644531 L 136.363281 57.40625 Z M 65.449219 7.007812 L 65.90625 7.234375 L 65.679688 8.355469 L 64.773438 8.144531 L 64.773438 7.234375 Z M 30.003906 40.90625 L 30.90625 41.144531 L 30.679688 42.039062 L 29.773438 41.8125 Z M 73.183594 50.40625 C 73.5625 50.464844 73.941406 50.546875 74.320312 50.632812 L 74.089844 51.3125 L 73.40625 51.53125 L 72.957031 50.632812 Z M 43.410156 31.1875 L 44.316406 31.1875 L 44.316406 32.09375 L 43.183594 32.09375 Z M 197.730469 38.652344 L 198.40625 38.652344 L 198.183594 39.550781 L 197.5 39.328125 Z M 171.816406 38.652344 L 172.503906 38.652344 L 172.503906 39.550781 L 171.589844 39.101562 Z M 80.457031 37.296875 L 80.914062 37.523438 L 80.914062 38.203125 L 80 37.96875 L 80 37.523438 Z M 150.453125 38.652344 L 151.140625 38.652344 L 150.910156 39.550781 L 150.453125 39.550781 Z M 114.769531 38.652344 L 115.457031 38.652344 L 115.457031 39.550781 L 114.769531 39.328125 Z M 136.363281 52.4375 L 137.046875 52.4375 L 137.046875 53.117188 L 136.363281 53.117188 Z M 127.503906 52.4375 L 128.179688 52.4375 L 128.179688 53.117188 L 127.503906 53.117188 Z M 32.726562 52.890625 L 33.183594 53.117188 L 33.183594 53.570312 L 32.726562 53.570312 Z M 32.726562 52.890625 "/>
</g>
</svg>
